<svg width="813" height="758" viewBox="0 0 813 758" fill="none" xmlns="http://www.w3.org/2000/svg">
<path d="M165.898 404.688V405.912C165.898 409.272 167.65 413.184 171.274 414.864L169.522 417.36C167.074 416.232 165.346 414.024 164.362 411.408C163.378 414.288 161.602 416.712 159.082 417.912L157.306 415.392C160.93 413.712 162.73 409.56 162.73 405.912V404.688H158.146V402.072H170.29V404.688H165.898ZM178.306 408.384V411H175.09V422.064H171.922V399.96H175.09V408.384H178.306ZM197.745 399.984V416.088H194.553V399.984H197.745ZM192.921 410.232L191.313 412.752C188.865 411.912 187.185 410.28 186.225 408.216C185.217 410.448 183.489 412.248 180.921 413.136L179.313 410.616C182.985 409.368 184.569 406.272 184.569 403.32V401.184H187.785V403.32C187.785 406.248 189.321 409.08 192.921 410.232ZM186.201 419.16H198.297V421.68H183.033V414.552H186.201V419.16ZM216.127 399.936H219.295V422.112H216.127V399.936ZM207.415 401.496C210.751 401.496 213.223 404.52 213.223 409.368C213.223 414.24 210.751 417.288 207.415 417.288C204.079 417.288 201.607 414.24 201.607 409.368C201.607 404.52 204.079 401.496 207.415 401.496ZM207.415 404.352C205.783 404.352 204.655 406.104 204.655 409.368C204.655 412.656 205.783 414.408 207.415 414.408C209.047 414.408 210.175 412.656 210.175 409.368C210.175 406.104 209.047 404.352 207.415 404.352ZM229.823 402.072H240.311C240.311 408.888 238.463 414.672 230.183 418.824L228.503 416.328C232.103 414.528 234.383 412.488 235.679 410.04L229.103 410.64L228.695 407.976L236.687 407.52C236.903 406.608 237.071 405.648 237.167 404.592H229.823V402.072ZM243.551 399.936H246.743V422.04H243.551V399.936ZM259.893 403.224C256.989 403.224 255.141 404.088 255.141 405.672C255.141 407.28 256.989 408.144 259.893 408.144C262.773 408.144 264.621 407.28 264.621 405.672C264.621 404.088 262.773 403.224 259.893 403.224ZM259.893 410.664C255.165 410.664 251.901 408.72 251.901 405.672C251.901 402.672 255.165 400.704 259.893 400.704C264.597 400.704 267.885 402.672 267.885 405.672C267.885 408.72 264.597 410.664 259.893 410.664ZM269.949 412.32V414.864H261.453V422.088H258.285V414.864H249.933V412.32H269.949ZM289.339 405.936V408.456H274.003V400.752H277.171V405.936H289.339ZM276.979 415.008V419.064H289.459V421.584H273.787V415.008H276.979ZM271.531 410.712H291.547V413.256H271.531V410.712ZM312.42 409.584L310.884 412.08C308.412 411.288 306.708 409.728 305.724 407.736C304.716 409.872 302.94 411.6 300.348 412.44L298.788 409.944C302.484 408.768 304.068 405.888 304.068 403.08V400.968H307.284V403.08C307.284 405.84 308.844 408.48 312.42 409.584ZM302.172 416.616V414.096H317.244V422.088H314.052V416.616H302.172ZM314.052 399.96H317.244V413.136H314.052V399.96ZM334.81 405.12V403.032H326.05V405.12H334.81ZM337.906 400.608V407.544H322.954V400.608H337.906ZM340.45 411.216H332.026V412.608H338.026V418.272H325.93V419.52H338.602V421.896H322.786V416.088H334.906V414.936H322.762V412.608H328.858V411.216H320.482V408.72H340.45V411.216ZM366.195 399.96V411.024H363.003V399.96H366.195ZM351.219 405.648C351.219 407.232 352.443 408.144 354.075 408.144C355.707 408.144 356.883 407.232 356.883 405.648C356.883 404.088 355.707 403.152 354.075 403.152C352.443 403.152 351.219 404.088 351.219 405.648ZM359.955 405.648C359.955 408.6 357.435 410.712 354.075 410.712C350.691 410.712 348.147 408.6 348.147 405.648C348.147 402.72 350.691 400.608 354.075 400.608C357.435 400.608 359.955 402.72 359.955 405.648ZM354.627 419.352H366.747V421.8H351.483V415.704H363.051V414.36H351.459V411.936H366.195V417.96H354.627V419.352ZM377.977 404.688V405.912C377.977 409.512 379.753 413.328 383.449 414.864L381.721 417.36C379.153 416.256 377.401 414.096 376.417 411.432C375.433 414.312 373.657 416.736 371.065 417.912L369.265 415.392C372.961 413.736 374.761 409.68 374.761 405.912V404.688H370.153V402.072H382.537V404.688H377.977ZM384.577 399.96H387.745V422.064H384.577V399.96ZM405.479 403.56V402.48H393.479V400.344H408.599V405.552H396.647V406.704H408.983V408.84H393.527V403.56H405.479ZM396.455 418.536V419.736H409.271V421.872H393.311V416.544H405.527V415.416H393.287V413.28H408.671V418.536H396.455ZM391.031 409.896H411.047V412.176H391.031V409.896ZM431.583 410.064L429.975 412.512C427.575 411.744 425.919 410.184 424.959 408.24C423.975 410.376 422.247 412.08 419.703 412.92L418.047 410.448C421.647 409.272 423.207 406.512 423.279 403.776H418.887V401.256H430.839V403.776H426.519C426.591 406.32 428.103 408.936 431.583 410.064ZM421.023 416.784V414.264H435.783V422.088H432.615V416.784H421.023ZM438.711 405.288V407.904H435.783V413.28H432.615V399.96H435.783V405.288H438.711ZM455.293 412.92V406.56H451.261V403.992H455.293V399.96H458.461V412.92H455.293ZM453.277 409.728L451.621 412.224C449.293 411.432 447.733 409.92 446.797 407.952C445.813 410.208 444.061 411.984 441.445 412.872L439.789 410.328C443.557 409.128 445.117 406.128 445.117 403.08V401.112H448.333V402.936C448.333 405.912 449.773 408.6 453.277 409.728ZM450.997 419.64C453.877 419.64 455.389 419.04 455.389 417.792C455.389 416.52 453.877 415.92 450.997 415.92C448.093 415.92 446.581 416.52 446.581 417.792C446.581 419.04 448.093 419.64 450.997 419.64ZM450.997 413.472C455.677 413.472 458.557 415.056 458.557 417.792C458.557 420.48 455.677 422.064 450.997 422.064C446.293 422.064 443.413 420.48 443.413 417.792C443.413 415.056 446.293 413.472 450.997 413.472ZM467.963 414.96C469.451 414.96 470.531 413.952 470.531 412.248C470.531 410.592 469.451 409.56 467.963 409.56C466.475 409.56 465.371 410.592 465.371 412.272C465.371 413.952 466.475 414.96 467.963 414.96ZM467.963 406.992C471.155 406.992 473.531 409.176 473.531 412.248C473.531 415.368 471.155 417.552 467.963 417.552C464.747 417.552 462.347 415.368 462.347 412.248C462.347 409.176 464.747 406.992 467.963 406.992ZM469.523 400.344V403.224H474.323V405.744H461.459V403.224H466.355V400.344H469.523ZM482.099 408.6V411.216H478.931V422.064H475.763V399.96H478.931V408.6H482.099ZM494.506 410.928H498.562V407.496H494.506V410.928ZM491.386 414.192V404.376H487.114V414.192H491.386ZM498.562 399.96H501.73V422.112H498.562V413.448H494.506V416.688H483.994V401.904H494.506V404.952H498.562V399.96ZM158.77 439.424H169.234C169.234 445.328 165.682 448.664 158.938 449.936L157.714 447.416C163.066 446.528 165.394 444.368 165.706 441.944H158.77V439.424ZM163.858 456.2V457.52H175.738V459.8H160.714V450.392H175.282V452.696H163.858V453.992H175.042V456.2H163.858ZM175.186 442.472H178.114V445.088H175.186V449.504H172.018V437.936H175.186V442.472ZM194.529 437.936H197.697V460.112H194.529V437.936ZM185.817 439.496C189.153 439.496 191.625 442.52 191.625 447.368C191.625 452.24 189.153 455.288 185.817 455.288C182.481 455.288 180.009 452.24 180.009 447.368C180.009 442.52 182.481 439.496 185.817 439.496ZM185.817 442.352C184.185 442.352 183.057 444.104 183.057 447.368C183.057 450.656 184.185 452.408 185.817 452.408C187.449 452.408 188.577 450.656 188.577 447.368C188.577 444.104 187.449 442.352 185.817 442.352ZM222.049 450.92V444.56H218.017V441.992H222.049V437.96H225.217V450.92H222.049ZM220.033 447.728L218.377 450.224C216.049 449.432 214.489 447.92 213.553 445.952C212.569 448.208 210.817 449.984 208.201 450.872L206.545 448.328C210.313 447.128 211.873 444.128 211.873 441.08V439.112H215.089V440.936C215.089 443.912 216.529 446.6 220.033 447.728ZM217.753 457.64C220.633 457.64 222.145 457.04 222.145 455.792C222.145 454.52 220.633 453.92 217.753 453.92C214.849 453.92 213.337 454.52 213.337 455.792C213.337 457.04 214.849 457.64 217.753 457.64ZM217.753 451.472C222.433 451.472 225.313 453.056 225.313 455.792C225.313 458.48 222.433 460.064 217.753 460.064C213.049 460.064 210.169 458.48 210.169 455.792C210.169 453.056 213.049 451.472 217.753 451.472ZM241.511 447.992L239.999 450.44C237.575 449.72 235.895 448.256 234.935 446.432C233.951 448.616 232.199 450.368 229.607 451.208L228.023 448.736C231.599 447.536 233.183 444.728 233.231 441.968H228.839V439.424H240.791V441.968H236.471C236.519 444.488 238.031 446.96 241.511 447.992ZM238.511 457.64C241.319 457.64 242.831 457.04 242.831 455.792C242.831 454.52 241.319 453.92 238.511 453.92C235.679 453.92 234.167 454.52 234.167 455.792C234.167 457.04 235.679 457.64 238.511 457.64ZM238.511 451.472C243.095 451.472 245.975 453.08 245.975 455.792C245.975 458.48 243.095 460.064 238.511 460.064C233.903 460.064 231.023 458.48 231.023 455.792C231.023 453.08 233.903 451.472 238.511 451.472ZM245.735 443.048H248.663V445.64H245.735V451.088H242.567V437.96H245.735V443.048ZM256.317 452.96C257.805 452.96 258.885 451.952 258.885 450.248C258.885 448.592 257.805 447.56 256.317 447.56C254.829 447.56 253.725 448.592 253.725 450.272C253.725 451.952 254.829 452.96 256.317 452.96ZM256.317 444.992C259.509 444.992 261.885 447.176 261.885 450.248C261.885 453.368 259.509 455.552 256.317 455.552C253.101 455.552 250.701 453.368 250.701 450.248C250.701 447.176 253.101 444.992 256.317 444.992ZM257.877 438.344V441.224H262.677V443.744H249.813V441.224H254.709V438.344H257.877ZM270.453 446.6V449.216H267.285V460.064H264.117V437.96H267.285V446.6H270.453ZM289.339 443.936V446.456H274.003V438.752H277.171V443.936H289.339ZM276.979 453.008V457.064H289.459V459.584H273.787V453.008H276.979ZM271.531 448.712H291.547V451.256H271.531V448.712ZM316.74 445.688V448.088H301.356V438.488H316.572V440.888H304.5V442.088H316.044V444.392H304.5V445.688H316.74ZM301.092 455.84V453.344H316.404V460.088H313.236V455.84H301.092ZM298.86 449.432H318.852V451.952H298.86V449.432ZM335.794 443.144H331.858V444.776H335.794V443.144ZM328.762 446.24V443.84H324.562V446.24H328.762ZM331.858 447.176V448.712H321.418V438.872H324.562V441.464H328.762V438.872H331.858V440.744H335.794V437.984H338.962V449.312H335.794V447.176H331.858ZM327.538 457.352H339.586V459.8H324.418V453.776H335.818V452.6H324.37V450.152H338.962V456.056H327.538V457.352ZM355.112 440.288L355.088 442.76H342.08V440.288H346.976V437.936H350.168V440.288H355.112ZM346.184 447.8C346.184 449.024 347.168 449.672 348.584 449.672C349.976 449.672 350.984 449.024 350.984 447.8C350.984 446.6 349.976 445.952 348.584 445.952C347.168 445.952 346.184 446.6 346.184 447.8ZM354.008 447.8C354.008 450.344 351.752 452.072 348.584 452.072C345.416 452.072 343.16 450.344 343.16 447.8C343.16 445.304 345.416 443.552 348.584 443.552C351.752 443.552 354.008 445.304 354.008 447.8ZM348.392 453.272V457.16H360.272V459.68H345.224V453.272H348.392ZM359.48 444.704H362.408V447.32H359.48V454.496H356.312V437.96H359.48V444.704ZM371.305 446.336L370.321 443.936C374.449 443.672 376.657 442.424 377.329 441.104H371.257V438.632H387.601V441.104H381.529C382.177 442.448 384.361 443.648 388.513 443.936L387.553 446.336C383.473 446.048 380.737 444.752 379.441 442.928C378.121 444.752 375.361 446.048 371.305 446.336ZM374.881 456.272V457.544H387.553V459.896H371.737V454.112H383.857V452.912H371.713V450.608H386.977V456.272H374.881ZM369.433 446.936H389.401V449.408H369.433V446.936ZM391.823 440.24H402.215C402.215 446.912 400.079 452.432 392.447 456.248L390.767 453.8C396.287 451.016 398.567 447.584 398.999 442.76H391.823V440.24ZM406.343 437.96H409.511V460.064H406.343V449H402.071V446.432H406.343V437.96ZM422.613 440.696C419.613 440.696 417.885 441.296 417.885 442.544C417.885 443.768 419.613 444.392 422.613 444.392C425.637 444.392 427.365 443.768 427.365 442.544C427.365 441.296 425.637 440.696 422.613 440.696ZM422.613 446.768C417.741 446.768 414.621 445.184 414.621 442.544C414.621 439.88 417.741 438.296 422.613 438.296C427.485 438.296 430.629 439.88 430.629 442.544C430.629 445.184 427.485 446.768 422.613 446.768ZM427.101 457.328V454.784H418.053V457.328H427.101ZM432.597 450.416H424.197V452.312H430.221V459.8H414.957V452.312H421.029V450.416H412.629V447.896H432.597V450.416ZM444.211 440.6C441.019 440.6 439.507 441.056 439.507 442.04C439.507 443.072 441.019 443.504 444.211 443.504C447.427 443.504 448.939 443.072 448.939 442.04C448.939 441.056 447.427 440.6 444.211 440.6ZM444.211 445.808C439.171 445.808 436.219 444.488 436.219 442.04C436.219 439.616 439.171 438.272 444.211 438.272C449.275 438.272 452.227 439.616 452.227 442.04C452.227 444.488 449.275 445.808 444.211 445.808ZM439.675 456.272V457.52H452.347V459.896H436.531V454.088H448.651V452.912H436.507V450.584H451.771V456.272H439.675ZM434.227 446.864H454.195V449.336H434.227V446.864ZM476.891 443.984H472.307C470.939 447.464 467.843 449.84 462.971 451.208L461.747 448.712C466.787 447.368 469.211 444.992 469.619 441.992H462.947V439.448H473.075C473.075 440.144 473.027 440.816 472.931 441.464H476.891V437.96H480.059V450.68H476.891V448.568H472.019V446.024H476.891V443.984ZM472.763 457.496C475.475 457.496 477.083 456.8 477.083 455.456C477.083 454.112 475.475 453.416 472.763 453.416C470.027 453.416 468.419 454.112 468.419 455.456C468.419 456.8 470.027 457.496 472.763 457.496ZM472.763 450.968C477.251 450.968 480.203 452.696 480.203 455.456C480.203 458.216 477.251 459.944 472.763 459.944C468.251 459.944 465.299 458.216 465.299 455.456C465.299 452.696 468.251 450.968 472.763 450.968ZM496.162 439.904V442.376H483.226V439.904H488.098V437.792H491.266V439.904H496.162ZM487.426 447.08C487.426 448.16 488.362 448.736 489.706 448.736C491.05 448.736 491.986 448.16 491.986 447.08C491.986 446.024 491.05 445.448 489.706 445.448C488.362 445.448 487.426 446.024 487.426 447.08ZM495.01 447.08C495.01 449.432 492.802 451.064 489.706 451.064C486.61 451.064 484.402 449.432 484.402 447.08C484.402 444.728 486.61 443.12 489.706 443.12C492.802 443.12 495.01 444.728 495.01 447.08ZM490.066 454.736V457.328H498.562V454.736H490.066ZM486.946 459.8V452.24H501.658V459.8H486.946ZM498.49 437.96H501.658V451.304H498.49V446.984H495.73V444.416H498.49V437.96ZM510.08 452.672C511.28 452.672 512.144 451.712 512.144 450.056C512.144 448.4 511.28 447.416 510.08 447.416C508.88 447.416 508.016 448.4 508.016 450.056C508.016 451.712 508.88 452.672 510.08 452.672ZM510.08 444.776C512.912 444.776 514.928 446.96 514.928 450.056C514.928 453.128 512.912 455.312 510.08 455.312C507.248 455.312 505.232 453.128 505.232 450.056C505.232 446.96 507.248 444.776 510.08 444.776ZM511.64 438.56V441.296H515.312V443.816H504.752V441.296H508.52V438.56H511.64ZM520.736 437.936H523.736V460.04H520.736V449.504H519.056V459.128H516.104V438.368H519.056V446.96H520.736V437.936ZM533.934 450.704V454.928H538.806V450.704C538.038 450.848 537.222 450.92 536.358 450.92C535.494 450.92 534.702 450.848 533.934 450.704ZM536.358 441.536C533.286 441.536 531.246 442.784 531.246 444.992C531.246 447.176 533.286 448.448 536.358 448.448C539.43 448.448 541.494 447.176 541.494 444.992C541.494 442.784 539.43 441.536 536.358 441.536ZM541.95 454.928H546.39V457.496H526.374V454.928H530.79V449.528C529.11 448.496 528.102 446.912 528.126 444.992C528.126 441.368 531.606 439.04 536.358 439.04C541.134 439.04 544.614 441.368 544.614 444.992C544.614 446.912 543.606 448.496 541.95 449.528V454.928ZM551.452 452.648H549.148L548.548 440.864H552.052L551.452 452.648ZM548.452 456.464C548.452 455.792 548.628 455.32 548.98 455.048C549.348 454.76 549.788 454.616 550.3 454.616C550.796 454.616 551.22 454.76 551.572 455.048C551.94 455.32 552.124 455.792 552.124 456.464C552.124 457.12 551.94 457.592 551.572 457.88C551.22 458.168 550.796 458.312 550.3 458.312C549.788 458.312 549.348 458.168 548.98 457.88C548.628 457.592 548.452 457.12 548.452 456.464Z" fill="#DAEACA"/>
<path d="M165.568 551.584L164.032 554.08C161.56 553.288 159.856 551.728 158.872 549.736C157.864 551.872 156.088 553.6 153.496 554.44L151.936 551.944C155.632 550.768 157.216 547.888 157.216 545.08V542.968H160.432V545.08C160.432 547.84 161.992 550.48 165.568 551.584ZM155.32 558.616V556.096H170.392V564.088H167.2V558.616H155.32ZM167.2 541.96H170.392V555.136H167.2V541.96ZM187.958 547.12V545.032H179.198V547.12H187.958ZM191.054 542.608V549.544H176.102V542.608H191.054ZM193.598 553.216H185.174V554.608H191.174V560.272H179.078V561.52H191.75V563.896H175.934V558.088H188.054V556.936H175.91V554.608H182.006V553.216H173.63V550.72H193.598V553.216ZM205.212 544.6C202.02 544.6 200.508 545.056 200.508 546.04C200.508 547.072 202.02 547.504 205.212 547.504C208.428 547.504 209.94 547.072 209.94 546.04C209.94 545.056 208.428 544.6 205.212 544.6ZM205.212 549.808C200.172 549.808 197.22 548.488 197.22 546.04C197.22 543.616 200.172 542.272 205.212 542.272C210.276 542.272 213.228 543.616 213.228 546.04C213.228 548.488 210.276 549.808 205.212 549.808ZM200.676 560.272V561.52H213.348V563.896H197.532V558.088H209.652V556.912H197.508V554.584H212.772V560.272H200.676ZM195.228 550.864H215.196V553.336H195.228V550.864ZM230.717 543.664V546.88C230.717 550.864 232.277 554.872 235.829 556.624L233.909 559.12C231.605 557.944 230.045 555.808 229.133 553.168C228.173 555.976 226.517 558.304 224.021 559.528L222.125 556.96C225.845 555.208 227.525 550.984 227.525 546.88V543.664H230.717ZM243.101 550.456V553.096H239.885V564.064H236.717V541.96H239.885V550.456H243.101ZM244.971 547.552H251.907V545.8H244.947V543.256H255.027V549.904H248.115V551.824C251.715 551.8 254.139 551.656 256.899 551.152L257.163 553.696C254.091 554.272 251.283 554.368 246.867 554.368H244.971V547.552ZM254.307 561.664C257.187 561.664 258.675 561.112 258.675 559.888C258.675 558.664 257.187 558.112 254.307 558.112C251.427 558.112 249.939 558.664 249.939 559.888C249.939 561.112 251.427 561.664 254.307 561.664ZM254.307 555.688C258.915 555.688 261.795 557.224 261.795 559.888C261.795 562.528 258.915 564.088 254.307 564.088C249.699 564.088 246.819 562.528 246.819 559.888C246.819 557.224 249.699 555.688 254.307 555.688ZM261.579 547.12H264.507V549.712H261.579V555.232H258.411V541.984H261.579V547.12ZM272.161 556.96C273.649 556.96 274.729 555.952 274.729 554.248C274.729 552.592 273.649 551.56 272.161 551.56C270.673 551.56 269.569 552.592 269.569 554.272C269.569 555.952 270.673 556.96 272.161 556.96ZM272.161 548.992C275.353 548.992 277.729 551.176 277.729 554.248C277.729 557.368 275.353 559.552 272.161 559.552C268.945 559.552 266.545 557.368 266.545 554.248C266.545 551.176 268.945 548.992 272.161 548.992ZM273.721 542.344V545.224H278.521V547.744H265.657V545.224H270.553V542.344H273.721ZM286.297 550.6V553.216H283.129V564.064H279.961V541.96H283.129V550.6H286.297ZM305.183 547.936V550.456H289.847V542.752H293.015V547.936H305.183ZM292.823 557.008V561.064H305.303V563.584H289.631V557.008H292.823ZM287.375 552.712H307.391V555.256H287.375V552.712ZM329.872 541.936H333.04V564.112H329.872V541.936ZM321.16 543.496C324.496 543.496 326.968 546.52 326.968 551.368C326.968 556.24 324.496 559.288 321.16 559.288C317.824 559.288 315.352 556.24 315.352 551.368C315.352 546.52 317.824 543.496 321.16 543.496ZM321.16 546.352C319.528 546.352 318.4 548.104 318.4 551.368C318.4 554.656 319.528 556.408 321.16 556.408C322.792 556.408 323.92 554.656 323.92 551.368C323.92 548.104 322.792 546.352 321.16 546.352ZM353.966 546.856V549.352H338.822V542.392H353.798V544.912H341.966V546.856H353.966ZM341.774 560.128V561.448H354.446V563.872H338.63V557.896H350.75V556.648H338.606V554.272H353.87V560.128H341.774ZM336.35 550.528H356.342V553.024H336.35V550.528ZM358.836 544.216H364.812C364.812 550.24 364.044 554.968 360.204 559.192L357.78 557.368C360.612 554.2 361.572 551.128 361.788 546.76H358.836V544.216ZM365.604 544.216H370.956C370.956 550.504 370.284 555.976 366.66 560.632L364.092 558.904C366.852 555.28 367.764 551.632 367.956 546.76H365.604V544.216ZM373.116 541.936H376.284V564.04H373.116V541.936ZM383.938 552.376V556.36C387.298 556.336 390.082 556.168 393.202 555.64L393.538 558.208C389.938 558.832 386.698 558.976 382.69 558.976H380.698V549.88H387.874V546.352H380.674V543.832H391.114V552.376H383.938ZM394.738 541.936H397.906V564.112H394.738V541.936ZM426.218 552.04L424.922 554.656C421.034 553.96 418.202 551.896 416.762 549.16C415.322 551.872 412.514 553.96 408.65 554.656L407.354 552.04C412.346 551.224 415.082 547.84 415.082 544.768V543.184H418.466V544.768C418.466 547.912 421.179 551.224 426.218 552.04ZM418.37 558.904H426.89V561.448H406.874V558.904H415.202V553.96H418.37V558.904ZM438.409 561.76C441.481 561.76 442.897 561.352 442.897 560.44C442.897 559.528 441.481 559.144 438.409 559.144C435.361 559.144 433.945 559.528 433.945 560.44C433.945 561.352 435.361 561.76 438.409 561.76ZM438.409 556.816C443.281 556.816 446.089 558.064 446.089 560.44C446.089 562.792 443.281 564.064 438.409 564.064C433.561 564.064 430.753 562.792 430.753 560.44C430.753 558.064 433.561 556.816 438.409 556.816ZM440.017 553.36H448.441V555.832H428.449V553.36H436.849V551.992H430.945V542.536H446.161V544.936H434.089V546.088H445.657V548.392H434.089V549.592H446.329V551.992H440.017V553.36ZM456.455 556.96C457.943 556.96 459.023 555.952 459.023 554.248C459.023 552.592 457.943 551.56 456.455 551.56C454.967 551.56 453.863 552.592 453.863 554.272C453.863 555.952 454.967 556.96 456.455 556.96ZM456.455 548.992C459.647 548.992 462.023 551.176 462.023 554.248C462.023 557.368 459.647 559.552 456.455 559.552C453.239 559.552 450.839 557.368 450.839 554.248C450.839 551.176 453.239 548.992 456.455 548.992ZM458.015 542.344V545.224H462.815V547.744H449.951V545.224H454.847V542.344H458.015ZM470.591 550.6V553.216H467.423V564.064H464.255V541.96H467.423V550.6H470.591ZM488.877 556.552L485.709 556.192C486.549 552.016 486.597 548.944 486.597 546.376H473.709V543.856H489.765V545.968C489.765 548.728 489.765 551.848 488.877 556.552ZM481.917 558.856H491.685V561.4H471.693V558.856H478.749V551.248H481.917V558.856ZM169 588.672L165.88 588.36C166.384 586.392 166.456 584.904 166.456 583.44H154.312V580.944H169.624V582.768C169.624 584.52 169.624 586.392 169 588.672ZM161.896 599.688C164.896 599.688 166.6 599.088 166.6 597.912C166.6 596.712 164.896 596.112 161.896 596.112C158.92 596.112 157.216 596.712 157.216 597.912C157.216 599.088 158.92 599.688 161.896 599.688ZM161.896 593.736C166.672 593.736 169.744 595.32 169.744 597.912C169.744 600.48 166.672 602.064 161.896 602.064C157.144 602.064 154.072 600.48 154.072 597.912C154.072 595.32 157.144 593.736 161.896 593.736ZM162.616 589.848H171.976V592.344H152.08V589.848H159.448V585.984H162.616V589.848ZM183.59 583.224C180.686 583.224 178.838 584.088 178.838 585.648C178.838 587.232 180.686 588.072 183.59 588.072C186.47 588.072 188.318 587.232 188.318 585.648C188.318 584.088 186.47 583.224 183.59 583.224ZM183.59 590.592C178.862 590.592 175.598 588.672 175.598 585.648C175.598 582.648 178.862 580.704 183.59 580.704C188.294 580.704 191.582 582.648 191.582 585.648C191.582 588.672 188.294 590.592 183.59 590.592ZM193.646 592.248V594.816H189.014V602.04H185.798V594.816H181.358V602.04H178.166V594.816H173.63V592.248H193.646ZM201.612 594.96C203.1 594.96 204.18 593.952 204.18 592.248C204.18 590.592 203.1 589.56 201.612 589.56C200.124 589.56 199.02 590.592 199.02 592.272C199.02 593.952 200.124 594.96 201.612 594.96ZM201.612 586.992C204.804 586.992 207.18 589.176 207.18 592.248C207.18 595.368 204.804 597.552 201.612 597.552C198.396 597.552 195.996 595.368 195.996 592.248C195.996 589.176 198.396 586.992 201.612 586.992ZM203.172 580.344V583.224H207.972V585.744H195.108V583.224H200.004V580.344H203.172ZM215.748 588.6V591.216H212.58V602.064H209.412V579.96H212.58V588.6H215.748ZM228.154 590.928H232.21V587.496H228.154V590.928ZM225.034 594.192V584.376H220.762V594.192H225.034ZM232.21 579.96H235.378V602.112H232.21V593.448H228.154V596.688H217.642V581.904H228.154V584.952H232.21V579.96ZM257.715 589.584L256.179 592.08C253.707 591.288 252.003 589.728 251.019 587.736C250.011 589.872 248.235 591.6 245.643 592.44L244.083 589.944C247.779 588.768 249.363 585.888 249.363 583.08V580.968H252.579V583.08C252.579 585.84 254.139 588.48 257.715 589.584ZM247.467 596.616V594.096H262.539V602.088H259.347V596.616H247.467ZM259.347 579.96H262.539V593.136H259.347V579.96ZM280.105 585.12V583.032H271.345V585.12H280.105ZM283.201 580.608V587.544H268.249V580.608H283.201ZM285.745 591.216H277.321V592.608H283.321V598.272H271.225V599.52H283.897V601.896H268.081V596.088H280.201V594.936H268.057V592.608H274.153V591.216H265.777V588.72H285.745V591.216ZM295.919 584.688V585.912C295.919 589.512 297.695 593.328 301.391 594.864L299.663 597.36C297.095 596.256 295.343 594.096 294.359 591.432C293.375 594.312 291.599 596.736 289.007 597.912L287.207 595.392C290.903 593.736 292.703 589.68 292.703 585.912V584.688H288.095V582.072H300.479V584.688H295.919ZM302.519 579.96H305.687V602.064H302.519V579.96ZM322.509 589.584L320.973 592.08C318.501 591.288 316.797 589.728 315.813 587.736C314.805 589.872 313.029 591.6 310.437 592.44L308.877 589.944C312.573 588.768 314.157 585.888 314.157 583.08V580.968H317.373V583.08C317.373 585.84 318.933 588.48 322.509 589.584ZM312.261 596.616V594.096H327.333V602.088H324.141V596.616H312.261ZM324.141 579.96H327.333V593.136H324.141V579.96ZM340.555 582.6C337.363 582.6 335.851 583.056 335.851 584.04C335.851 585.072 337.363 585.504 340.555 585.504C343.771 585.504 345.283 585.072 345.283 584.04C345.283 583.056 343.771 582.6 340.555 582.6ZM340.555 587.808C335.515 587.808 332.563 586.488 332.563 584.04C332.563 581.616 335.515 580.272 340.555 580.272C345.619 580.272 348.571 581.616 348.571 584.04C348.571 586.488 345.619 587.808 340.555 587.808ZM336.019 598.272V599.52H348.691V601.896H332.875V596.088H344.995V594.912H332.851V592.584H348.115V598.272H336.019ZM330.571 588.864H350.539V591.336H330.571V588.864ZM361.764 582.048V594C364.548 593.928 367.548 593.688 370.644 593.088L370.956 595.68C367.284 596.448 363.732 596.64 360.516 596.64H358.596V582.048H361.764ZM378.324 588.288V590.904H375.228V602.016H372.06V579.936H375.228V588.288H378.324ZM397.234 584.4V586.896H381.994V580.176H385.162V584.4H397.234ZM399.538 590.688H391.042V592.368H397.186V598.176H384.994V599.52H397.81V601.896H381.802V595.968H393.994V594.744H381.778V592.368H387.898V590.688H379.522V588.192H399.538V590.688ZM426.146 587.808L424.947 590.352C421.082 589.776 418.322 587.976 416.906 585.6C415.49 587.976 412.706 589.776 408.842 590.352L407.642 587.808C412.682 587.112 415.202 584.256 415.202 581.664V580.608H418.586V581.664C418.586 584.232 421.13 587.112 426.146 587.808ZM426.866 591.984V594.552H418.394V602.088H415.226V594.552H406.898V591.984H426.866ZM452.587 579.96V592.464H449.395V579.96H452.587ZM440.539 583.728C438.859 583.728 437.635 584.736 437.635 586.392C437.635 588.048 438.859 589.056 440.539 589.056C442.219 589.056 443.467 588.048 443.467 586.392C443.467 584.736 442.219 583.728 440.539 583.728ZM440.539 591.696C437.131 591.696 434.539 589.488 434.539 586.392C434.539 583.296 437.131 581.088 440.539 581.088C443.995 581.088 446.563 583.296 446.563 586.392C446.563 589.488 443.995 591.696 440.539 591.696ZM450.355 593.376V594.12C450.355 596.4 451.555 598.536 454.483 599.424L452.947 601.728C450.859 601.032 449.491 599.712 448.747 598.032C448.027 599.712 446.755 601.176 444.739 601.968C442.723 601.224 441.451 599.784 440.731 598.104C439.963 599.712 438.619 601.008 436.627 601.728L435.067 599.424C437.995 598.44 439.195 596.256 439.195 594.12V593.376H442.267V594.12C442.267 595.872 442.963 597.696 444.715 598.92C446.491 597.6 447.235 595.752 447.235 594.12V593.376H450.355ZM461.873 594.408C463.505 594.408 464.585 592.656 464.585 589.368C464.585 586.104 463.505 584.352 461.873 584.352C460.265 584.352 459.185 586.104 459.185 589.368C459.185 592.656 460.265 594.408 461.873 594.408ZM471.209 579.936H474.377V602.112H471.209V590.472H467.537C467.201 594.696 464.945 597.288 461.873 597.288C458.585 597.288 456.161 594.24 456.161 589.368C456.161 584.52 458.585 581.496 461.873 581.496C464.849 581.496 467.081 583.92 467.513 587.904H471.209V579.936ZM484.983 592.704V596.928H489.855V592.704C489.087 592.848 488.271 592.92 487.407 592.92C486.543 592.92 485.751 592.848 484.983 592.704ZM487.407 583.536C484.335 583.536 482.295 584.784 482.295 586.992C482.295 589.176 484.335 590.448 487.407 590.448C490.479 590.448 492.543 589.176 492.543 586.992C492.543 584.784 490.479 583.536 487.407 583.536ZM492.999 596.928H497.439V599.496H477.423V596.928H481.839V591.528C480.159 590.496 479.151 588.912 479.175 586.992C479.175 583.368 482.655 581.04 487.407 581.04C492.183 581.04 495.663 583.368 495.663 586.992C495.663 588.912 494.655 590.496 492.999 591.528V596.928ZM502.501 594.648H500.197L499.597 582.864H503.101L502.501 594.648ZM499.501 598.464C499.501 597.792 499.677 597.32 500.029 597.048C500.397 596.76 500.837 596.616 501.349 596.616C501.845 596.616 502.269 596.76 502.621 597.048C502.989 597.32 503.173 597.792 503.173 598.464C503.173 599.12 502.989 599.592 502.621 599.88C502.269 600.168 501.845 600.312 501.349 600.312C500.837 600.312 500.397 600.168 500.029 599.88C499.677 599.592 499.501 599.12 499.501 598.464Z" fill="#DAEACA"/>
<path d="M157.288 691.256V694.352H166.744V691.256H157.288ZM163.6 700.928H172.048V703.496H152.032V700.928H160.432V696.872H154.144V685.328H157.288V688.76H166.744V685.328H169.864V696.872H163.6V700.928ZM191.51 694.16V696.68H175.958V685.784H191.342V688.352H179.126V694.16H191.51ZM173.63 700.832H193.646V703.424H173.63V700.832ZM204.631 694.784V698.648C206.935 698.624 208.663 698.528 210.655 698.216L210.919 700.736C208.423 701.144 206.311 701.192 203.143 701.192H201.631V686.384H209.815V688.904H204.631V692.336H208.975V694.784H204.631ZM212.383 692V684.368H215.335V705.08H212.383V694.568H209.983V692H212.383ZM216.967 683.936H219.967V706.04H216.967V683.936ZM241.901 694.352L240.557 697.016C236.717 696.248 233.885 694.112 232.469 691.304C231.053 694.112 228.245 696.272 224.405 697.016L223.061 694.352C228.029 693.512 230.789 690.008 230.789 686.84V685.256H234.173V686.84C234.173 690.08 236.909 693.512 241.901 694.352ZM222.581 700.808H242.597V703.376H222.581V700.808ZM262.059 695.36V697.856H246.531V685.568H261.891V688.112H249.747V690.44H261.387V692.888H249.747V695.36H262.059ZM244.179 700.952H264.195V703.52H244.179V700.952ZM280.225 687.56V686.48H268.225V684.344H283.345V689.552H271.393V690.704H283.729V692.84H268.273V687.56H280.225ZM271.201 702.536V703.736H284.017V705.872H268.057V700.544H280.273V699.416H268.033V697.28H283.417V702.536H271.201ZM265.777 693.896H285.793V696.176H265.777V693.896ZM303.066 703.76C306.138 703.76 307.554 703.352 307.554 702.44C307.554 701.528 306.138 701.144 303.066 701.144C300.018 701.144 298.602 701.528 298.602 702.44C298.602 703.352 300.018 703.76 303.066 703.76ZM303.066 698.816C307.938 698.816 310.746 700.064 310.746 702.44C310.746 704.792 307.938 706.064 303.066 706.064C298.218 706.064 295.41 704.792 295.41 702.44C295.41 700.064 298.218 698.816 303.066 698.816ZM304.674 695.36H313.098V697.832H293.106V695.36H301.506V693.992H295.602V684.536H310.818V686.936H298.746V688.088H310.314V690.392H298.746V691.592H310.986V693.992H304.674V695.36ZM320.032 698.672C321.232 698.672 322.096 697.712 322.096 696.056C322.096 694.4 321.232 693.416 320.032 693.416C318.832 693.416 317.968 694.4 317.968 696.056C317.968 697.712 318.832 698.672 320.032 698.672ZM320.032 690.776C322.864 690.776 324.88 692.96 324.88 696.056C324.88 699.128 322.864 701.312 320.032 701.312C317.2 701.312 315.184 699.128 315.184 696.056C315.184 692.96 317.2 690.776 320.032 690.776ZM321.592 684.56V687.296H325.264V689.816H314.704V687.296H318.472V684.56H321.592ZM330.688 683.936H333.688V706.04H330.688V695.504H329.008V705.128H326.056V684.368H329.008V692.96H330.688V683.936ZM355.947 688.688V689.912C355.947 693.272 357.699 697.184 361.323 698.864L359.571 701.36C357.123 700.232 355.395 698.024 354.411 695.408C353.427 698.288 351.651 700.712 349.131 701.912L347.355 699.392C350.979 697.712 352.779 693.56 352.779 689.912V688.688H348.195V686.072H360.339V688.688H355.947ZM368.355 692.384V695H365.139V706.064H361.971V683.96H365.139V692.384H368.355ZM387.793 683.984V700.088H384.601V683.984H387.793ZM382.969 694.232L381.361 696.752C378.913 695.912 377.233 694.28 376.273 692.216C375.265 694.448 373.537 696.248 370.969 697.136L369.361 694.616C373.033 693.368 374.617 690.272 374.617 687.32V685.184H377.833V687.32C377.833 690.248 379.369 693.08 382.969 694.232ZM376.249 703.16H388.345V705.68H373.081V698.552H376.249V703.16ZM395.999 698.6C397.223 698.6 397.919 696.944 397.919 693.536C397.919 690.152 397.223 688.496 395.999 688.496C394.799 688.496 394.079 690.152 394.079 693.536C394.079 696.944 394.799 698.6 395.999 698.6ZM402.503 692.096V684.32H405.455V705.08H402.503V694.664H400.775C400.487 698.984 398.687 701.576 395.999 701.576C393.071 701.576 391.223 698.552 391.223 693.536C391.223 688.544 393.071 685.52 395.999 685.52C398.615 685.52 400.391 687.968 400.751 692.096H402.503ZM406.991 683.936H409.991V706.04H406.991V683.936ZM423.981 692.408V684.44H426.933V705.08H423.981V694.952H420.525C419.277 697.472 417.261 699.656 414.141 701.48L412.341 699.248C416.757 696.608 418.701 693.416 419.085 689.096H413.565V686.576H422.229C422.229 688.664 422.037 690.608 421.509 692.408H423.981ZM428.637 683.936H431.637V706.04H428.637V683.936ZM448.045 692.6V687.872H443.725V692.6H448.045ZM451.165 685.376V695.12H440.629V685.376H451.165ZM457.669 699.848H452.077C452.581 701.48 454.693 703.136 458.629 703.616L457.477 706.016C453.973 705.584 451.549 704.144 450.277 702.296C449.029 704.144 446.581 705.536 443.053 705.992L441.901 703.592C445.885 703.136 447.997 701.528 448.453 699.848H442.861V697.376H457.669V699.848ZM457.381 688.76H460.309V691.352H457.381V696.32H454.213V683.96H457.381V688.76ZM479.387 689.936V692.456H464.051V684.752H467.219V689.936H479.387ZM467.027 699.008V703.064H479.507V705.584H463.835V699.008H467.027ZM461.579 694.712H481.595V697.256H461.579V694.712ZM165.568 731.584L164.032 734.08C161.56 733.288 159.856 731.728 158.872 729.736C157.864 731.872 156.088 733.6 153.496 734.44L151.936 731.944C155.632 730.768 157.216 727.888 157.216 725.08V722.968H160.432V725.08C160.432 727.84 161.992 730.48 165.568 731.584ZM155.32 738.616V736.096H170.392V744.088H167.2V738.616H155.32ZM167.2 721.96H170.392V735.136H167.2V721.96ZM187.958 727.12V725.032H179.198V727.12H187.958ZM191.054 722.608V729.544H176.102V722.608H191.054ZM193.598 733.216H185.174V734.608H191.174V740.272H179.078V741.52H191.75V743.896H175.934V738.088H188.054V736.936H175.91V734.608H182.006V733.216H173.63V730.72H193.598V733.216ZM205.212 724.6C202.02 724.6 200.508 725.056 200.508 726.04C200.508 727.072 202.02 727.504 205.212 727.504C208.428 727.504 209.94 727.072 209.94 726.04C209.94 725.056 208.428 724.6 205.212 724.6ZM205.212 729.808C200.172 729.808 197.22 728.488 197.22 726.04C197.22 723.616 200.172 722.272 205.212 722.272C210.276 722.272 213.228 723.616 213.228 726.04C213.228 728.488 210.276 729.808 205.212 729.808ZM200.676 740.272V741.52H213.348V743.896H197.532V738.088H209.652V736.912H197.508V734.584H212.772V740.272H200.676ZM195.228 730.864H215.196V733.336H195.228V730.864ZM236.597 727.648L235.253 730.048C232.781 729.544 231.053 728.368 230.069 726.832C229.109 728.536 227.333 729.832 224.717 730.408L223.349 728.008C226.853 727.288 228.365 725.392 228.365 723.424V722.56H231.653V723.424C231.653 725.248 233.189 727.024 236.597 727.648ZM237.845 741.328V739.816H229.013V741.328H237.845ZM237.845 737.44V735.664H240.989V743.8H225.893V735.664H228.653V733.672C226.637 733.768 224.717 733.768 222.989 733.768L222.629 731.248C226.709 731.248 232.013 731.248 236.645 730.648L236.837 732.88C235.181 733.168 233.477 733.36 231.797 733.504V736.048H229.013V737.44H237.845ZM237.821 721.984H240.989V734.68H237.821V721.984ZM255.531 730.408V722.44H258.483V743.08H255.531V732.952H252.075C250.827 735.472 248.811 737.656 245.691 739.48L243.891 737.248C248.307 734.608 250.251 731.416 250.635 727.096H245.115V724.576H253.779C253.779 726.664 253.587 728.608 253.059 730.408H255.531ZM260.187 721.936H263.187V744.04H260.187V721.936ZM284.755 731.8L283.339 734.248C280.819 733.576 279.115 732.232 278.107 730.504C277.123 732.424 275.371 733.936 272.827 734.632L271.363 732.16C274.843 731.224 276.403 728.92 276.475 726.568H272.155V724.072H276.475V721.888H279.643V724.072H284.011V726.568H279.643C279.715 728.728 281.251 730.936 284.755 731.8ZM289.219 737.992H283.651C284.251 739.576 286.363 741.16 290.179 741.616L289.027 744.016C285.523 743.584 283.075 742.168 281.827 740.296C280.555 742.168 278.107 743.536 274.579 743.992L273.451 741.592C277.315 741.16 279.403 739.624 279.955 737.992H274.411V735.496H289.219V737.992ZM288.931 726.904H291.859V729.52H288.931V734.536H285.763V721.96H288.931V726.904ZM299.058 736.408C300.69 736.408 301.818 734.656 301.818 731.368C301.818 728.104 300.69 726.352 299.058 726.352C297.402 726.352 296.298 728.104 296.298 731.368C296.298 734.656 297.402 736.408 299.058 736.408ZM299.058 723.496C302.394 723.496 304.866 726.52 304.866 731.368C304.866 736.24 302.394 739.288 299.058 739.288C295.698 739.288 293.25 736.24 293.25 731.368C293.25 726.52 295.698 723.496 299.058 723.496ZM313.65 730.288V732.904H310.434V744.064H307.266V721.96H310.434V730.288H313.65ZM320.176 740.344V741.544H332.848V743.896H317.032V738.16H329.152V737.056H317.008V734.728H332.272V740.344H320.176ZM320.416 726.064V727.36H329.032V726.064H320.416ZM326.248 731.104H334.72V733.576H314.728V731.104H323.08V729.688H317.272V722.296H320.416V723.76H329.032V722.296H332.176V729.688H326.248V731.104ZM361.352 729.808L360.152 732.352C356.288 731.776 353.528 729.976 352.112 727.6C350.696 729.976 347.912 731.776 344.048 732.352L342.848 729.808C347.888 729.112 350.408 726.256 350.408 723.664V722.608H353.792V723.664C353.792 726.232 356.336 729.112 361.352 729.808ZM362.072 733.984V736.552H353.6V744.088H350.432V736.552H342.104V733.984H362.072ZM387.793 721.96V734.464H384.601V721.96H387.793ZM375.745 725.728C374.065 725.728 372.841 726.736 372.841 728.392C372.841 730.048 374.065 731.056 375.745 731.056C377.425 731.056 378.673 730.048 378.673 728.392C378.673 726.736 377.425 725.728 375.745 725.728ZM375.745 733.696C372.337 733.696 369.745 731.488 369.745 728.392C369.745 725.296 372.337 723.088 375.745 723.088C379.201 723.088 381.769 725.296 381.769 728.392C381.769 731.488 379.201 733.696 375.745 733.696ZM385.561 735.376V736.12C385.561 738.4 386.761 740.536 389.689 741.424L388.153 743.728C386.065 743.032 384.697 741.712 383.953 740.032C383.233 741.712 381.961 743.176 379.945 743.968C377.929 743.224 376.657 741.784 375.937 740.104C375.169 741.712 373.825 743.008 371.833 743.728L370.273 741.424C373.201 740.44 374.401 738.256 374.401 736.12V735.376H377.473V736.12C377.473 737.872 378.169 739.696 379.921 740.92C381.697 739.6 382.441 737.752 382.441 736.12V735.376H385.561ZM397.079 736.408C398.711 736.408 399.791 734.656 399.791 731.368C399.791 728.104 398.711 726.352 397.079 726.352C395.471 726.352 394.391 728.104 394.391 731.368C394.391 734.656 395.471 736.408 397.079 736.408ZM406.415 721.936H409.583V744.112H406.415V732.472H402.743C402.407 736.696 400.151 739.288 397.079 739.288C393.791 739.288 391.367 736.24 391.367 731.368C391.367 726.52 393.791 723.496 397.079 723.496C400.055 723.496 402.287 725.92 402.719 729.904H406.415V721.936ZM420.189 734.704V738.928H425.061V734.704C424.293 734.848 423.477 734.92 422.613 734.92C421.749 734.92 420.957 734.848 420.189 734.704ZM422.613 725.536C419.541 725.536 417.501 726.784 417.501 728.992C417.501 731.176 419.541 732.448 422.613 732.448C425.685 732.448 427.749 731.176 427.749 728.992C427.749 726.784 425.685 725.536 422.613 725.536ZM428.205 738.928H432.645V741.496H412.629V738.928H417.045V733.528C415.365 732.496 414.357 730.912 414.381 728.992C414.381 725.368 417.861 723.04 422.613 723.04C427.389 723.04 430.869 725.368 430.869 728.992C430.869 730.912 429.861 732.496 428.205 733.528V738.928ZM437.707 736.648H435.403L434.803 724.864H438.307L437.707 736.648ZM434.707 740.464C434.707 739.792 434.883 739.32 435.235 739.048C435.603 738.76 436.043 738.616 436.555 738.616C437.051 738.616 437.475 738.76 437.827 739.048C438.195 739.32 438.379 739.792 438.379 740.464C438.379 741.12 438.195 741.592 437.827 741.88C437.475 742.168 437.051 742.312 436.555 742.312C436.043 742.312 435.603 742.168 435.235 741.88C434.883 741.592 434.707 741.12 434.707 740.464Z" fill="#DAEACA"/>
<path d="M56.1133 292.961V302.059H52.5605V292.961H56.1133ZM62.1895 292.961V302.059H58.6367V292.961H62.1895ZM75.0676 294.123C75.0344 297.908 77.1926 301.561 82.173 303.055L80.048 306.375C76.6115 305.279 74.2375 303.138 72.8762 300.365C71.5148 303.354 69.0578 305.694 65.5051 306.84L63.3801 303.52C68.427 301.893 70.6516 297.975 70.6516 294.123V291.234H75.0676V294.123ZM88.7805 309.164V320.055H84.5305V312.551H67.9953V309.164H88.7805ZM88.7805 289.84V307.869H84.5305V289.84H88.7805ZM119.223 301.826V305.18H107.536V307.105H115.87V314.842H99.0355V316.668H116.666V319.855H94.8852V311.854H111.686V310.293H94.852V307.105H103.286V305.18H91.6645V301.826H119.223ZM115.737 290.703V300.232H95.0844V290.703H115.737ZM99.2348 293.99V296.979H111.52V293.99H99.2348ZM154.143 313.049V316.436H126.485V313.049H138.04V306.209H142.257V313.049H154.143ZM142.389 293.725C142.389 298.041 146.274 302.59 153.18 303.652L151.387 307.172C146.075 306.209 142.124 303.37 140.132 299.602C138.139 303.354 134.221 306.226 128.942 307.172L127.149 303.652C133.989 302.59 137.841 298.008 137.874 293.725V291.566H142.389V293.725ZM182.229 305.412V308.732H154.604V305.412H166.291V303.553H158.057V290.57H179.008V293.824H162.307V295.518H178.311V298.572H162.307V300.299H179.273V303.553H170.541V305.412H182.229ZM168.416 310.127C175.09 310.094 178.908 311.887 178.941 315.074C178.908 318.328 175.09 320.055 168.416 320.055C161.643 320.055 157.824 318.328 157.824 315.074C157.824 311.887 161.643 310.094 168.416 310.127ZM168.416 313.248C164.066 313.248 162.041 313.812 162.074 315.074C162.041 316.369 164.066 316.934 168.416 316.934C172.666 316.934 174.658 316.369 174.691 315.074C174.658 313.812 172.666 313.248 168.416 313.248ZM192.65 291.865C197.431 291.832 201.017 294.953 201.017 299.27C201.017 303.619 197.431 306.707 192.65 306.707C187.868 306.707 184.249 303.619 184.249 299.27C184.249 294.953 187.868 291.832 192.65 291.865ZM192.65 295.518C190.259 295.518 188.433 296.912 188.466 299.27C188.433 301.66 190.259 303.021 192.65 303.021C195.04 303.021 196.866 301.66 196.9 299.27C196.866 296.912 195.073 295.518 192.65 295.518ZM208.255 289.84V320.121H204.038V289.84H208.255ZM182.988 310.492C188.366 310.525 195.837 310.426 202.312 309.529L202.644 312.584C195.937 313.879 188.765 313.945 183.486 313.945L182.988 310.492ZM245.234 302.125V305.479H217.675V302.125H245.234ZM241.88 307.139V314.842H225.046V316.668H242.677V319.855H220.896V311.887H237.697V310.227H220.863V307.139H241.88ZM242.744 290.803V294.123H234.244C235.173 295.966 238.361 297.709 244.039 298.041L242.711 301.295C237.116 300.88 233.248 299.12 231.421 296.58C229.612 299.104 225.777 300.88 220.232 301.295L218.904 298.041C224.532 297.709 227.686 295.966 228.632 294.123H220.199V290.803H242.744ZM271.327 289.84V320.055H267.11V304.914H261.1V301.461H267.11V289.84H271.327ZM261.266 292.994C261.266 302.125 258.311 309.562 247.753 314.809L245.561 311.488C253.198 307.72 256.352 302.922 257.016 296.314H246.989V292.994H261.266ZM287.824 290.238C294.531 290.271 298.781 292.43 298.814 296.115C298.781 299.701 294.531 301.859 287.824 301.859C281.15 301.859 276.801 299.701 276.801 296.115C276.801 292.43 281.15 290.271 287.824 290.238ZM287.824 293.492C283.607 293.492 281.184 294.355 281.217 296.115C281.184 297.775 283.607 298.639 287.824 298.639C292.008 298.639 294.432 297.775 294.432 296.115C294.432 294.355 292.008 293.492 287.824 293.492ZM298.316 309.43V319.723H277.232V309.43H285.699V306.807H274.045V303.42H301.604V306.807H289.916V309.43H298.316ZM281.416 312.783V316.336H294.166V312.783H281.416ZM308.605 314.543L305.749 324.006H302.23L303.89 314.543H308.605ZM340.304 289.84V297.277H344.388V300.83H340.304V308.068H336.054V289.84H340.304ZM340.304 309.396V319.723H320.548V309.396H340.304ZM324.732 312.717V316.336H336.121V312.717H324.732ZM334.261 292.562V295.916H316.332V292.562H323.205V289.674H327.421V292.562H334.261ZM325.296 296.846C329.679 296.846 332.734 299.07 332.734 302.258C332.734 305.545 329.679 307.736 325.296 307.736C320.847 307.736 317.793 305.545 317.793 302.258C317.793 299.07 320.847 296.846 325.296 296.846ZM325.296 300.033C323.271 300.033 321.91 300.83 321.943 302.258C321.91 303.785 323.271 304.615 325.296 304.615C327.322 304.615 328.716 303.785 328.716 302.258C328.716 300.83 327.322 300.033 325.296 300.033ZM351.954 293.293C351.921 300.83 351.19 307.604 347.339 313.58L344.052 311.854C347.156 307.155 348.086 302.573 348.302 296.713H345.048V293.293H351.954ZM358.727 293.293C358.711 295.949 358.661 298.589 358.429 301.162H361.018V290.504H365.003V318.727H361.018V304.582H357.997C357.349 308.284 356.204 311.837 354.112 315.107L350.891 313.314C354.262 308.168 354.959 302.839 355.108 296.713H352.817V293.293H358.727ZM370.946 289.84V320.055H366.895V289.84H370.946ZM390.493 298.074C390.46 302.689 392.917 308.002 397.898 310.293L395.54 313.613C392.17 312.069 389.763 308.981 388.435 305.346C387.073 309.347 384.6 312.733 381.097 314.377L378.64 311.023C383.687 308.666 386.21 303.055 386.243 298.074V296.215H379.835V292.762H396.57V296.215H390.493V298.074ZM403.177 289.84V301.361H407.626V304.914H403.177V320.055H398.927V289.84H403.177ZM431.362 289.84V301.262H435.811V304.748H431.362V320.121H427.178V289.84H431.362ZM422.729 292.363V304.084H413V309.562C417.4 309.546 421.036 309.347 425.053 308.666L425.418 312.053C420.803 312.883 416.653 313.082 411.34 313.082H408.784V300.73H418.512V295.783H408.75V292.363H422.729ZM460.244 298.074V301.395H439.127V290.902H443.343V298.074H460.244ZM463.332 304.648V307.969H435.673V304.648H463.332ZM460.443 316.004V319.391H438.861V310.426H443.111V316.004H460.443ZM498.086 302.125V305.479H470.527V302.125H498.086ZM494.732 307.139V314.842H477.898V316.668H495.529V319.855H473.748V311.887H490.549V310.227H473.715V307.139H494.732ZM495.596 290.803V294.123H487.096C488.025 295.966 491.213 297.709 496.891 298.041L495.562 301.295C489.968 300.88 486.1 299.12 484.273 296.58C482.464 299.104 478.629 300.88 473.084 301.295L471.756 298.041C477.384 297.709 480.538 295.966 481.484 294.123H473.051V290.803H495.596ZM524.179 289.84V320.055H519.962V304.914H513.952V301.461H519.962V289.84H524.179ZM514.118 292.994C514.118 302.125 511.163 309.562 500.605 314.809L498.413 311.488C506.05 307.72 509.204 302.922 509.868 296.314H499.841V292.994H514.118ZM540.676 290.238C547.383 290.271 551.633 292.43 551.666 296.115C551.633 299.701 547.383 301.859 540.676 301.859C534.002 301.859 529.653 299.701 529.653 296.115C529.653 292.43 534.002 290.271 540.676 290.238ZM540.676 293.492C536.459 293.492 534.036 294.355 534.069 296.115C534.036 297.775 536.459 298.639 540.676 298.639C544.86 298.639 547.284 297.775 547.284 296.115C547.284 294.355 544.86 293.492 540.676 293.492ZM551.168 309.43V319.723H530.084V309.43H538.551V306.807H526.897V303.42H554.455V306.807H542.768V309.43H551.168ZM534.268 312.783V316.336H547.018V312.783H534.268ZM559.298 292.961V302.059H555.746V292.961H559.298ZM565.375 292.961V302.059H561.822V292.961H565.375Z" fill="#F1FFE3"/>
<path d="M85.9886 49.1026C85.9886 49.1026 87.3087 23.5856 61.5902 11.6338C31.3523 -2.41553 4.79512 -0.456229 4.09625 1.04206C3.39737 2.54035 6.68984 4.68406 7.9944 8.78707C9.29897 12.8901 10.1687 46.6708 46.0286 50.5779C81.8885 54.4849 85.973 49.1026 85.973 49.1026H85.9886Z" fill="#82BE84"/>
<path d="M2.00956 59.5935C2.00956 59.5935 39.9629 82.3078 84.0286 48.5958C84.0286 48.5958 40.7208 25.2087 2.00956 59.5935Z" stroke="#FAFFF4" stroke-width="1.24" stroke-linecap="round" stroke-linejoin="round"/>
<path d="M84.0274 48.5959L38.9385 54.6378" stroke="#FAFFF4" stroke-width="1.24" stroke-linecap="round" stroke-linejoin="round"/>
<path d="M494.893 100.485C494.893 100.485 510.237 119.076 542.044 114.663C579.438 109.473 602.991 94.8652 602.671 93.464C602.35 92.0629 597.88 92.1966 593.995 89.963C590.11 87.7293 567.35 64.422 531.289 79.5411C495.229 94.6602 494.908 100.478 494.908 100.478L494.893 100.485Z" fill="#82BE84"/>
<path d="M565.934 51.451C565.934 51.451 515.913 54.2171 496.976 99.7692C496.976 99.7692 552.406 94.8289 565.934 51.451Z" stroke="#FAFFF4" stroke-width="1.24" stroke-linecap="round" stroke-linejoin="round"/>
<path d="M496.977 99.7689L534.888 73.2094" stroke="#FAFFF4" stroke-width="1.24" stroke-linecap="round" stroke-linejoin="round"/>
<path d="M119.991 585.991C119.991 585.991 120.974 559.493 101.841 547.081C79.3474 532.492 59.5915 534.526 59.0716 536.082C58.5517 537.638 61.001 539.864 61.9714 544.125C62.9419 548.386 63.5889 583.466 90.2652 587.523C116.941 591.581 119.98 585.991 119.98 585.991H119.991Z" fill="#82BE84"/>
<path d="M119.991 443.991C119.991 443.991 120.974 417.493 101.841 405.081C79.3474 390.492 59.5915 392.526 59.0716 394.082C58.5517 395.638 61.001 397.864 61.9714 402.125C62.9419 406.386 63.5889 441.466 90.2652 445.523C116.941 449.581 119.98 443.991 119.98 443.991H119.991Z" fill="#82BE84"/>
<path d="M119.991 727.991C119.991 727.991 120.974 701.493 101.841 689.081C79.3474 674.492 59.5915 676.526 59.0716 678.082C58.5517 679.638 61.001 681.864 61.9714 686.125C62.9419 690.386 63.5889 725.466 90.2652 729.523C116.941 733.581 119.98 727.991 119.98 727.991H119.991Z" fill="#82BE84"/>
<mask id="mask0_1858_22952" style="mask-type:alpha" maskUnits="userSpaceOnUse" x="74" y="408" width="32" height="32">
<rect x="74" y="408" width="32" height="32" fill="#F1FFE3"/>
</mask>
<g mask="url(#mask0_1858_22952)">
<path d="M85.4 432H94.6L95.9333 426.667H84.0667L85.4 432ZM85.4 434.667C84.7778 434.667 84.2333 434.478 83.7667 434.1C83.3 433.722 82.9889 433.233 82.8333 432.633L81.3333 426.667H98.6667L97.1667 432.633C97.0111 433.233 96.7 433.722 96.2333 434.1C95.7667 434.478 95.2222 434.667 94.6 434.667H85.4ZM80.6667 424H99.3333V421.333H80.6667V424ZM90 416C90 413.778 90.7778 411.889 92.3333 410.333C93.8889 408.778 95.7778 408 98 408C98 410 97.3667 411.733 96.1 413.2C94.8333 414.667 93.2444 415.556 91.3333 415.867V418.667H102V424C102 424.733 101.739 425.361 101.217 425.883C100.694 426.406 100.067 426.667 99.3333 426.667H80.6667C79.9333 426.667 79.3056 426.406 78.7833 425.883C78.2611 425.361 78 424.733 78 424V418.667H88.6667V415.867C86.7556 415.556 85.1667 414.667 83.9 413.2C82.6333 411.733 82 410 82 408C84.2222 408 86.1111 408.778 87.6667 410.333C89.2222 411.889 90 413.778 90 416Z" fill="#F1FFE3"/>
</g>
<mask id="mask1_1858_22952" style="mask-type:alpha" maskUnits="userSpaceOnUse" x="74" y="549" width="32" height="32">
<rect x="74" y="549" width="32" height="32" fill="#F1FFE3"/>
</mask>
<g mask="url(#mask1_1858_22952)">
<path d="M75.2667 564.067C74.8667 563.267 74.5556 562.456 74.3333 561.633C74.1111 560.811 74 559.978 74 559.133C74 556.644 74.8444 554.556 76.5333 552.867C78.2222 551.178 80.3111 550.333 82.8 550.333C84.2 550.333 85.5333 550.628 86.8 551.217C88.0667 551.806 89.1333 552.622 90 553.667C90.8667 552.622 91.9333 551.806 93.2 551.217C94.4667 550.628 95.8 550.333 97.2 550.333C99.6889 550.333 101.778 551.178 103.467 552.867C105.156 554.556 106 556.644 106 559.133C106 559.978 105.889 560.811 105.667 561.633C105.444 562.456 105.133 563.267 104.733 564.067C104.489 563.644 104.2 563.267 103.867 562.933C103.533 562.6 103.144 562.333 102.7 562.133C102.9 561.622 103.056 561.122 103.167 560.633C103.278 560.144 103.333 559.644 103.333 559.133C103.333 557.4 102.744 555.944 101.567 554.767C100.389 553.589 98.9333 553 97.2 553C95.4 553 94.0167 553.494 93.05 554.483C92.0833 555.472 91.0667 556.578 90 557.8C88.9333 556.556 87.9167 555.444 86.95 554.467C85.9833 553.489 84.6 553 82.8 553C81.0667 553 79.6111 553.589 78.4333 554.767C77.2556 555.944 76.6667 557.4 76.6667 559.133C76.6667 559.644 76.7222 560.144 76.8333 560.633C76.9444 561.122 77.1 561.622 77.3 562.133C76.8556 562.333 76.4667 562.6 76.1333 562.933C75.8 563.267 75.5111 563.644 75.2667 564.067ZM74 575.667V573.567C74 572.589 74.4944 571.806 75.4833 571.217C76.4722 570.628 77.7556 570.333 79.3333 570.333C79.6222 570.333 79.9 570.339 80.1667 570.35C80.4333 570.361 80.6889 570.389 80.9333 570.433C80.6222 570.878 80.3889 571.356 80.2333 571.867C80.0778 572.378 80 572.922 80 573.5V575.667H74ZM82 575.667V573.5C82 572.056 82.7389 570.889 84.2167 570C85.6944 569.111 87.6222 568.667 90 568.667C92.4 568.667 94.3333 569.111 95.8 570C97.2667 570.889 98 572.056 98 573.5V575.667H82ZM100 575.667V573.5C100 572.922 99.9278 572.378 99.7833 571.867C99.6389 571.356 99.4222 570.878 99.1333 570.433C99.3778 570.389 99.6278 570.361 99.8833 570.35C100.139 570.339 100.4 570.333 100.667 570.333C102.267 570.333 103.556 570.628 104.533 571.217C105.511 571.806 106 572.589 106 573.567V575.667H100ZM90 571.333C88.7333 571.333 87.6 571.5 86.6 571.833C85.6 572.167 85.0111 572.556 84.8333 573H95.2C95 572.556 94.4056 572.167 93.4167 571.833C92.4278 571.5 91.2889 571.333 90 571.333ZM79.3333 569C78.6 569 77.9722 568.739 77.45 568.217C76.9278 567.694 76.6667 567.067 76.6667 566.333C76.6667 565.578 76.9278 564.944 77.45 564.433C77.9722 563.922 78.6 563.667 79.3333 563.667C80.0889 563.667 80.7222 563.922 81.2333 564.433C81.7444 564.944 82 565.578 82 566.333C82 567.067 81.7444 567.694 81.2333 568.217C80.7222 568.739 80.0889 569 79.3333 569ZM100.667 569C99.9333 569 99.3056 568.739 98.7833 568.217C98.2611 567.694 98 567.067 98 566.333C98 565.578 98.2611 564.944 98.7833 564.433C99.3056 563.922 99.9333 563.667 100.667 563.667C101.422 563.667 102.056 563.922 102.567 564.433C103.078 564.944 103.333 565.578 103.333 566.333C103.333 567.067 103.078 567.694 102.567 568.217C102.056 568.739 101.422 569 100.667 569ZM90 567.667C88.8889 567.667 87.9444 567.278 87.1667 566.5C86.3889 565.722 86 564.778 86 563.667C86 562.533 86.3889 561.583 87.1667 560.817C87.9444 560.05 88.8889 559.667 90 559.667C91.1333 559.667 92.0833 560.05 92.85 560.817C93.6167 561.583 94 562.533 94 563.667C94 564.778 93.6167 565.722 92.85 566.5C92.0833 567.278 91.1333 567.667 90 567.667ZM90 562.333C89.6222 562.333 89.3056 562.461 89.05 562.717C88.7944 562.972 88.6667 563.289 88.6667 563.667C88.6667 564.044 88.7944 564.361 89.05 564.617C89.3056 564.872 89.6222 565 90 565C90.3778 565 90.6944 564.872 90.95 564.617C91.2056 564.361 91.3333 564.044 91.3333 563.667C91.3333 563.289 91.2056 562.972 90.95 562.717C90.6944 562.461 90.3778 562.333 90 562.333Z" fill="#F1FFE3"/>
</g>
<mask id="mask2_1858_22952" style="mask-type:alpha" maskUnits="userSpaceOnUse" x="74" y="693" width="32" height="32">
<rect x="74" y="693" width="32" height="32" fill="#F1FFE3"/>
</mask>
<g mask="url(#mask2_1858_22952)">
<path d="M83.3333 702.333H96.6667V699.667H83.3333V702.333ZM83.3333 707.667H89.6667C90.1111 707.133 90.5944 706.639 91.1167 706.183C91.6389 705.728 92.2111 705.333 92.8333 705H83.3333V707.667ZM83.3333 713H87.4C87.4444 712.533 87.5278 712.078 87.65 711.633C87.7722 711.189 87.9222 710.756 88.1 710.333H83.3333V713ZM80.6667 718.333C79.9333 718.333 79.3056 718.072 78.7833 717.55C78.2611 717.028 78 716.4 78 715.667V697C78 696.267 78.2611 695.639 78.7833 695.117C79.3056 694.594 79.9333 694.333 80.6667 694.333H99.3333C100.067 694.333 100.694 694.594 101.217 695.117C101.739 695.639 102 696.267 102 697V704.433C101.578 704.256 101.144 704.106 100.7 703.983C100.256 703.861 99.8 703.778 99.3333 703.733V697H80.6667V715.667H87.4C87.4444 716.133 87.5278 716.589 87.65 717.033C87.7722 717.478 87.9222 717.911 88.1 718.333H80.6667ZM98 721C96.3778 721 94.9611 720.494 93.75 719.483C92.5389 718.472 91.7778 717.2 91.4667 715.667H93.5333C93.8222 716.644 94.3722 717.444 95.1833 718.067C95.9944 718.689 96.9333 719 98 719C99.2889 719 100.389 718.544 101.3 717.633C102.211 716.722 102.667 715.622 102.667 714.333C102.667 713.044 102.211 711.944 101.3 711.033C100.389 710.122 99.2889 709.667 98 709.667C97.3556 709.667 96.7556 709.783 96.2 710.017C95.6444 710.25 95.1556 710.578 94.7333 711H96.6667V713H91.3333V707.667H93.3333V709.567C93.9333 708.989 94.6333 708.528 95.4333 708.183C96.2333 707.839 97.0889 707.667 98 707.667C99.8444 707.667 101.417 708.317 102.717 709.617C104.017 710.917 104.667 712.489 104.667 714.333C104.667 716.178 104.017 717.75 102.717 719.05C101.417 720.35 99.8444 721 98 721Z" fill="#F1FFE3"/>
</g>
<path d="M103.76 87C103.76 86.92 103.72 86.04 103.64 84.36C103.64 82.68 103.6 80.76 103.52 78.6C103.52 76.44 103.52 74.32 103.52 72.24C103.52 70.08 103.52 68.56 103.52 67.68C102.32 67.6 101.08 67.56 99.8 67.56C98.52 67.56 97.28 67.44 96.08 67.2C94.96 66.96 93.88 66.56 92.84 66C91.88 65.36 91.08 64.4 90.44 63.12C89.48 61.28 89.44 59.52 90.32 57.84C91.28 56.16 92.68 55 94.52 54.36C96.36 53.72 98.4 53.32 100.64 53.16C102.88 53 105 52.92 107 52.92C110.28 52.92 114.36 52.92 119.24 52.92C124.12 52.92 129.16 52.96 134.36 53.04C139.56 53.04 144.6 53.04 149.48 53.04C154.36 53.04 158.44 53.04 161.72 53.04C163.32 53.04 165.08 53.24 167 53.64C169 53.96 170.6 54.76 171.8 56.04C172.36 56.68 172.76 57.44 173 58.32C173.32 59.2 173.48 60.12 173.48 61.08C173.48 62.04 173.28 62.96 172.88 63.84C172.56 64.64 172.04 65.32 171.32 65.88C171 66.2 170.52 66.48 169.88 66.72C168.36 67.36 166.68 67.6 164.84 67.44C163.08 67.28 161.4 67.36 159.8 67.68C159.96 68.8 160.04 69.8 160.04 70.68C160.12 71.48 160.16 72.2 160.16 72.84V86.76C160.16 86.68 160.52 86.68 161.24 86.76C162.04 86.84 162.88 86.96 163.76 87.12C164.72 87.2 165.6 87.32 166.4 87.48C167.2 87.64 167.68 87.72 167.84 87.72C169.84 88.04 171.32 88.56 172.28 89.28C173.32 89.92 173.72 91.44 173.48 93.84C173.32 95.84 172.88 97.32 172.16 98.28C171.52 99.16 170.68 99.8 169.64 100.2C168.6 100.52 167.36 100.68 165.92 100.68C164.56 100.6 163.08 100.56 161.48 100.56C159.4 100.64 157.32 100.68 155.24 100.68C153.24 100.6 151.2 100.56 149.12 100.56C148.08 100.56 146.64 100.56 144.8 100.56C143.04 100.56 141.08 100.56 138.92 100.56C136.76 100.56 134.48 100.56 132.08 100.56C129.76 100.56 127.52 100.56 125.36 100.56C123.2 100.56 121.2 100.6 119.36 100.68C117.6 100.68 116.2 100.68 115.16 100.68C113 100.68 110.84 100.68 108.68 100.68C106.6 100.68 104.48 100.64 102.32 100.56C101.28 100.56 100.08 100.48 98.72 100.32C97.36 100.16 96.04 99.84 94.76 99.36C93.48 98.88 92.36 98.24 91.4 97.44C90.52 96.56 90 95.44 89.84 94.08C89.6 92.24 89.96 90.88 90.92 90C91.96 89.04 93.2 88.36 94.64 87.96C96.16 87.56 97.76 87.36 99.44 87.36C101.12 87.28 102.56 87.16 103.76 87ZM98.96 124.68C97.12 124.6 95.36 124.36 93.68 123.96C92.08 123.48 90.76 122.44 89.72 120.84C88.84 119.48 88.4 118.04 88.4 116.52C88.48 114.92 89.08 113.56 90.2 112.44C90.84 111.8 91.64 111.32 92.6 111C93.56 110.68 94.48 110.44 95.36 110.28C96.24 110.12 97 110.04 97.64 110.04C98.36 110.04 98.76 110.04 98.84 110.04H164.24C165.52 109.96 166.88 109.96 168.32 110.04C169.84 110.12 171.24 110.4 172.52 110.88C173.8 111.28 174.88 112 175.76 113.04C176.64 114 177.08 115.36 177.08 117.12C177.08 119.12 176.4 120.64 175.04 121.68C173.68 122.64 172.04 123.36 170.12 123.84C168.28 124.24 166.36 124.48 164.36 124.56C162.36 124.56 160.72 124.56 159.44 124.56H154.76C153.16 124.64 151.6 124.68 150.08 124.68C148.56 124.6 147 124.56 145.4 124.56H140.84C140.92 126.8 141 129.16 141.08 131.64C141.16 134.12 141.04 136.32 140.72 138.24C140.56 139.76 140.16 141.2 139.52 142.56C138.96 144 138 145.16 136.64 146.04C135.44 146.84 134.04 147.24 132.44 147.24C130.84 147.32 129.4 147 128.12 146.28C127.08 145.64 126.28 144.72 125.72 143.52C125.24 142.32 124.92 141.16 124.76 140.04C124.6 139.16 124.52 138.2 124.52 137.16C124.6 136.12 124.64 135.16 124.64 134.28C124.56 132.84 124.52 131.28 124.52 129.6C124.52 127.84 124.52 126.12 124.52 124.44H121.52C119.28 124.44 117.24 124.48 115.4 124.56C113.64 124.56 111.92 124.6 110.24 124.68C108.56 124.68 106.8 124.68 104.96 124.68C103.2 124.68 101.2 124.68 98.96 124.68ZM118.28 83.28C118.28 83.52 118.32 84 118.4 84.72C118.56 85.44 118.8 86.12 119.12 86.76H145.4V75.72C145.4 75.72 145.4 75.48 145.4 75C145.4 74.44 145.36 73.84 145.28 73.2C145.28 72.48 145.24 71.76 145.16 71.04C145.16 70.24 145.12 69.56 145.04 69C145.04 68.52 144.92 68.08 144.68 67.68H118.88C118.56 68 118.36 68.44 118.28 69C118.12 69.64 118.08 70.64 118.16 72C118.24 73.36 118.32 74.6 118.4 75.72L118.28 83.28ZM258.956 79.56C260.236 79.64 261.356 79.96 262.316 80.52C263.276 81 263.956 81.92 264.356 83.28C265.236 86.4 264.196 88.56 261.236 89.76C260.276 90.16 259.276 90.4 258.236 90.48C257.276 90.56 256.356 90.6 255.476 90.6H200.636C199.036 90.6 197.356 90.6 195.596 90.6C193.916 90.6 192.196 90.56 190.436 90.48C188.756 90.32 187.316 89.68 186.116 88.56C184.996 87.36 184.356 85.8 184.196 83.88C184.036 82.44 183.956 80.96 183.956 79.44C183.956 77.84 183.956 76.48 183.956 75.36C183.956 75.2 183.916 75 183.836 74.76C183.836 74.52 183.836 74.32 183.836 74.16C183.836 73.28 183.876 72.2 183.956 70.92C184.036 69.56 184.436 68.44 185.156 67.56C186.276 66.28 187.756 65.52 189.596 65.28C191.436 64.96 193.236 64.8 194.996 64.8H239.516C240.956 64.8 242.076 64.8 242.876 64.8C243.676 64.8 244.396 64.8 245.036 64.8C245.676 64.8 246.316 64.8 246.956 64.8C247.596 64.8 248.396 64.8 249.356 64.8C249.356 64.64 249.356 64.32 249.356 63.84C249.436 63.28 249.476 62.76 249.476 62.28C249.556 61.72 249.596 61.24 249.596 60.84C249.596 60.36 249.516 60.12 249.356 60.12H197.996C197.596 60.12 197.156 60.12 196.676 60.12C196.276 60.04 195.836 60.04 195.356 60.12H192.476C191.676 60.12 190.956 60.12 190.316 60.12C189.676 60.12 189.036 60.04 188.396 59.88C187.676 59.72 186.996 59.48 186.356 59.16C185.716 58.76 185.196 58.24 184.796 57.6C184.476 56.88 184.276 56.12 184.196 55.32C184.196 54.52 184.196 53.76 184.196 53.04C184.196 52.32 184.396 51.64 184.796 51C185.276 50.36 185.796 49.84 186.356 49.44C186.996 49.04 187.636 48.8 188.276 48.72C188.916 48.64 189.636 48.52 190.436 48.36C191.076 48.2 191.716 48.16 192.356 48.24C192.996 48.32 193.636 48.32 194.276 48.24C194.996 48.16 195.676 48.12 196.316 48.12C197.036 48.12 197.756 48.12 198.476 48.12C200.956 48.2 204.116 48.24 207.956 48.24C211.796 48.16 215.516 48.12 219.116 48.12H251.876C255.956 48.12 259.076 48.8 261.236 50.16C263.396 51.44 264.476 53.6 264.476 56.64V65.04C264.476 65.76 264.476 66.56 264.476 67.44C264.556 68.24 264.516 69.08 264.356 69.96C264.276 70.76 264.076 71.52 263.756 72.24C263.436 72.96 262.916 73.52 262.196 73.92C260.996 74.56 259.596 74.92 257.996 75C256.476 75 255.036 75 253.676 75H198.596V79.44H254.996C255.636 79.44 256.276 79.44 256.916 79.44C257.636 79.44 258.316 79.48 258.956 79.56ZM219.836 113.76C221.356 112.72 222.796 112.08 224.156 111.84C225.596 111.6 226.916 111.56 228.116 111.72C229.316 111.88 230.356 112.2 231.236 112.68C232.196 113.08 232.876 113.44 233.276 113.76L245.036 121.32C247.996 123.4 250.716 125.32 253.196 127.08C255.756 128.84 258.436 130.84 261.236 133.08C262.196 133.88 263.236 134.72 264.356 135.6C265.556 136.56 266.276 137.72 266.516 139.08C266.756 140.2 266.676 141.32 266.276 142.44C265.876 143.56 265.236 144.48 264.356 145.2C262.996 146.32 261.676 146.8 260.396 146.64C259.116 146.48 257.756 146.08 256.316 145.44L232.196 131.04C231.236 130.48 230.316 130 229.436 129.6C228.636 129.12 227.596 128.76 226.316 128.52C225.196 128.6 224.196 128.84 223.316 129.24C222.516 129.64 221.716 130.16 220.916 130.8C219.316 131.84 217.636 132.96 215.876 134.16C214.116 135.36 212.356 136.52 210.596 137.64C208.916 138.84 207.276 139.92 205.676 140.88C204.156 141.92 202.796 142.72 201.596 143.28C200.716 143.76 199.716 144.24 198.596 144.72C197.476 145.2 196.356 145.56 195.236 145.8C194.116 146.12 192.956 146.24 191.756 146.16C190.636 146.16 189.596 145.92 188.636 145.44C187.356 144.8 186.436 143.84 185.876 142.56C185.316 141.28 185.236 139.96 185.636 138.6C186.036 137.24 186.916 136.12 188.276 135.24C189.716 134.36 190.916 133.52 191.876 132.72C194.916 130.4 197.756 128.36 200.396 126.6C203.116 124.76 206.036 122.72 209.156 120.48C210.516 119.44 212.036 118.48 213.716 117.6C215.476 116.64 217.516 115.36 219.836 113.76ZM256.196 94.92C257.556 94.92 258.996 94.92 260.516 94.92C262.116 94.84 263.556 95 264.836 95.4C266.196 95.72 267.276 96.4 268.076 97.44C268.956 98.48 269.396 100.08 269.396 102.24C269.396 104.16 268.596 105.84 266.996 107.28C265.716 108.4 264.156 109.04 262.316 109.2C260.556 109.28 258.876 109.28 257.276 109.2C256.876 109.12 256.516 109.08 256.196 109.08C255.876 109.08 255.516 109.08 255.116 109.08H188.996C188.916 109.08 188.556 109.08 187.916 109.08C187.276 109.08 186.516 109 185.636 108.84C184.836 108.68 183.996 108.48 183.116 108.24C182.236 107.92 181.516 107.44 180.956 106.8C179.996 105.76 179.516 104.36 179.516 102.6C179.516 100.92 180.036 99.56 181.076 98.52C182.116 97.56 183.196 96.76 184.316 96.12C185.436 95.48 186.596 95.08 187.796 94.92C188.036 94.92 188.276 94.96 188.516 95.04C188.756 95.04 188.996 95 189.236 94.92C190.356 94.76 191.556 94.76 192.836 94.92C194.116 95 195.436 95 196.796 94.92C200.956 94.76 205.156 94.72 209.396 94.8C213.716 94.88 218.196 94.92 222.836 94.92C227.876 94.92 233.236 94.88 238.916 94.8C244.596 94.72 250.156 94.76 255.596 94.92H256.196Z" fill="white"/>
<path d="M306.92 149.5C306.92 149.407 306.873 148.38 306.78 146.42C306.78 144.46 306.733 142.22 306.64 139.7C306.64 137.18 306.64 134.707 306.64 132.28C306.64 129.76 306.64 127.987 306.64 126.96C305.24 126.867 303.793 126.82 302.3 126.82C300.807 126.82 299.36 126.68 297.96 126.4C296.653 126.12 295.393 125.653 294.18 125C293.06 124.253 292.127 123.133 291.38 121.64C290.26 119.493 290.213 117.44 291.24 115.48C292.36 113.52 293.993 112.167 296.14 111.42C298.287 110.673 300.667 110.207 303.28 110.02C305.893 109.833 308.367 109.74 310.7 109.74C314.527 109.74 319.287 109.74 324.98 109.74C330.673 109.74 336.553 109.787 342.62 109.88C348.687 109.88 354.567 109.88 360.26 109.88C365.953 109.88 370.713 109.88 374.54 109.88C376.407 109.88 378.46 110.113 380.7 110.58C383.033 110.953 384.9 111.887 386.3 113.38C386.953 114.127 387.42 115.013 387.7 116.04C388.073 117.067 388.26 118.14 388.26 119.26C388.26 120.38 388.027 121.453 387.56 122.48C387.187 123.413 386.58 124.207 385.74 124.86C385.367 125.233 384.807 125.56 384.06 125.84C382.287 126.587 380.327 126.867 378.18 126.68C376.127 126.493 374.167 126.587 372.3 126.96C372.487 128.267 372.58 129.433 372.58 130.46C372.673 131.393 372.72 132.233 372.72 132.98V149.22C372.72 149.127 373.14 149.127 373.98 149.22C374.913 149.313 375.893 149.453 376.92 149.64C378.04 149.733 379.067 149.873 380 150.06C380.933 150.247 381.493 150.34 381.68 150.34C384.013 150.713 385.74 151.32 386.86 152.16C388.073 152.907 388.54 154.68 388.26 157.48C388.073 159.813 387.56 161.54 386.72 162.66C385.973 163.687 384.993 164.433 383.78 164.9C382.567 165.273 381.12 165.46 379.44 165.46C377.853 165.367 376.127 165.32 374.26 165.32C371.833 165.413 369.407 165.46 366.98 165.46C364.647 165.367 362.267 165.32 359.84 165.32C358.627 165.32 356.947 165.32 354.8 165.32C352.747 165.32 350.46 165.32 347.94 165.32C345.42 165.32 342.76 165.32 339.96 165.32C337.253 165.32 334.64 165.32 332.12 165.32C329.6 165.32 327.267 165.367 325.12 165.46C323.067 165.46 321.433 165.46 320.22 165.46C317.7 165.46 315.18 165.46 312.66 165.46C310.233 165.46 307.76 165.413 305.24 165.32C304.027 165.32 302.627 165.227 301.04 165.04C299.453 164.853 297.913 164.48 296.42 163.92C294.927 163.36 293.62 162.613 292.5 161.68C291.473 160.653 290.867 159.347 290.68 157.76C290.4 155.613 290.82 154.027 291.94 153C293.153 151.88 294.6 151.087 296.28 150.62C298.053 150.153 299.92 149.92 301.88 149.92C303.84 149.827 305.52 149.687 306.92 149.5ZM301.32 193.46C299.173 193.367 297.12 193.087 295.16 192.62C293.293 192.06 291.753 190.847 290.54 188.98C289.513 187.393 289 185.713 289 183.94C289.093 182.073 289.793 180.487 291.1 179.18C291.847 178.433 292.78 177.873 293.9 177.5C295.02 177.127 296.093 176.847 297.12 176.66C298.147 176.473 299.033 176.38 299.78 176.38C300.62 176.38 301.087 176.38 301.18 176.38H377.48C378.973 176.287 380.56 176.287 382.24 176.38C384.013 176.473 385.647 176.8 387.14 177.36C388.633 177.827 389.893 178.667 390.92 179.88C391.947 181 392.46 182.587 392.46 184.64C392.46 186.973 391.667 188.747 390.08 189.96C388.493 191.08 386.58 191.92 384.34 192.48C382.193 192.947 379.953 193.227 377.62 193.32C375.287 193.32 373.373 193.32 371.88 193.32H366.42C364.553 193.413 362.733 193.46 360.96 193.46C359.187 193.367 357.367 193.32 355.5 193.32H350.18C350.273 195.933 350.367 198.687 350.46 201.58C350.553 204.473 350.413 207.04 350.04 209.28C349.853 211.053 349.387 212.733 348.64 214.32C347.987 216 346.867 217.353 345.28 218.38C343.88 219.313 342.247 219.78 340.38 219.78C338.513 219.873 336.833 219.5 335.34 218.66C334.127 217.913 333.193 216.84 332.54 215.44C331.98 214.04 331.607 212.687 331.42 211.38C331.233 210.353 331.14 209.233 331.14 208.02C331.233 206.807 331.28 205.687 331.28 204.66C331.187 202.98 331.14 201.16 331.14 199.2C331.14 197.147 331.14 195.14 331.14 193.18H327.64C325.027 193.18 322.647 193.227 320.5 193.32C318.447 193.32 316.44 193.367 314.48 193.46C312.52 193.46 310.467 193.46 308.32 193.46C306.267 193.46 303.933 193.46 301.32 193.46ZM323.86 145.16C323.86 145.44 323.907 146 324 146.84C324.187 147.68 324.467 148.473 324.84 149.22H355.5V136.34C355.5 136.34 355.5 136.06 355.5 135.5C355.5 134.847 355.453 134.147 355.36 133.4C355.36 132.56 355.313 131.72 355.22 130.88C355.22 129.947 355.173 129.153 355.08 128.5C355.08 127.94 354.94 127.427 354.66 126.96H324.56C324.187 127.333 323.953 127.847 323.86 128.5C323.673 129.247 323.627 130.413 323.72 132C323.813 133.587 323.907 135.033 324 136.34L323.86 145.16ZM487.982 140.82C489.475 140.913 490.782 141.287 491.902 141.94C493.022 142.5 493.815 143.573 494.282 145.16C495.308 148.8 494.095 151.32 490.642 152.72C489.522 153.187 488.355 153.467 487.142 153.56C486.022 153.653 484.948 153.7 483.922 153.7H419.942C418.075 153.7 416.115 153.7 414.062 153.7C412.102 153.7 410.095 153.653 408.042 153.56C406.082 153.373 404.402 152.627 403.002 151.32C401.695 149.92 400.948 148.1 400.762 145.86C400.575 144.18 400.482 142.453 400.482 140.68C400.482 138.813 400.482 137.227 400.482 135.92C400.482 135.733 400.435 135.5 400.342 135.22C400.342 134.94 400.342 134.707 400.342 134.52C400.342 133.493 400.388 132.233 400.482 130.74C400.575 129.153 401.042 127.847 401.882 126.82C403.188 125.327 404.915 124.44 407.062 124.16C409.208 123.787 411.308 123.6 413.362 123.6H465.302C466.982 123.6 468.288 123.6 469.222 123.6C470.155 123.6 470.995 123.6 471.742 123.6C472.488 123.6 473.235 123.6 473.982 123.6C474.728 123.6 475.662 123.6 476.782 123.6C476.782 123.413 476.782 123.04 476.782 122.48C476.875 121.827 476.922 121.22 476.922 120.66C477.015 120.007 477.062 119.447 477.062 118.98C477.062 118.42 476.968 118.14 476.782 118.14H416.862C416.395 118.14 415.882 118.14 415.322 118.14C414.855 118.047 414.342 118.047 413.782 118.14H410.422C409.488 118.14 408.648 118.14 407.902 118.14C407.155 118.14 406.408 118.047 405.662 117.86C404.822 117.673 404.028 117.393 403.282 117.02C402.535 116.553 401.928 115.947 401.462 115.2C401.088 114.36 400.855 113.473 400.762 112.54C400.762 111.607 400.762 110.72 400.762 109.88C400.762 109.04 400.995 108.247 401.462 107.5C402.022 106.753 402.628 106.147 403.282 105.68C404.028 105.213 404.775 104.933 405.522 104.84C406.268 104.747 407.108 104.607 408.042 104.42C408.788 104.233 409.535 104.187 410.282 104.28C411.028 104.373 411.775 104.373 412.522 104.28C413.362 104.187 414.155 104.14 414.902 104.14C415.742 104.14 416.582 104.14 417.422 104.14C420.315 104.233 424.002 104.28 428.482 104.28C432.962 104.187 437.302 104.14 441.502 104.14H479.722C484.482 104.14 488.122 104.933 490.642 106.52C493.162 108.013 494.422 110.533 494.422 114.08V123.88C494.422 124.72 494.422 125.653 494.422 126.68C494.515 127.613 494.468 128.593 494.282 129.62C494.188 130.553 493.955 131.44 493.582 132.28C493.208 133.12 492.602 133.773 491.762 134.24C490.362 134.987 488.728 135.407 486.862 135.5C485.088 135.5 483.408 135.5 481.822 135.5H417.562V140.68H483.362C484.108 140.68 484.855 140.68 485.602 140.68C486.442 140.68 487.235 140.727 487.982 140.82ZM442.342 180.72C444.115 179.507 445.795 178.76 447.382 178.48C449.062 178.2 450.602 178.153 452.002 178.34C453.402 178.527 454.615 178.9 455.642 179.46C456.762 179.927 457.555 180.347 458.022 180.72L471.742 189.54C475.195 191.967 478.368 194.207 481.262 196.26C484.248 198.313 487.375 200.647 490.642 203.26C491.762 204.193 492.975 205.173 494.282 206.2C495.682 207.32 496.522 208.673 496.802 210.26C497.082 211.567 496.988 212.873 496.522 214.18C496.055 215.487 495.308 216.56 494.282 217.4C492.695 218.707 491.155 219.267 489.662 219.08C488.168 218.893 486.582 218.427 484.902 217.68L456.762 200.88C455.642 200.227 454.568 199.667 453.542 199.2C452.608 198.64 451.395 198.22 449.902 197.94C448.595 198.033 447.428 198.313 446.402 198.78C445.468 199.247 444.535 199.853 443.602 200.6C441.735 201.813 439.775 203.12 437.722 204.52C435.668 205.92 433.615 207.273 431.562 208.58C429.602 209.98 427.688 211.24 425.822 212.36C424.048 213.573 422.462 214.507 421.062 215.16C420.035 215.72 418.868 216.28 417.562 216.84C416.255 217.4 414.948 217.82 413.642 218.1C412.335 218.473 410.982 218.613 409.582 218.52C408.275 218.52 407.062 218.24 405.942 217.68C404.448 216.933 403.375 215.813 402.722 214.32C402.068 212.827 401.975 211.287 402.442 209.7C402.908 208.113 403.935 206.807 405.522 205.78C407.202 204.753 408.602 203.773 409.722 202.84C413.268 200.133 416.582 197.753 419.662 195.7C422.835 193.553 426.242 191.173 429.882 188.56C431.468 187.347 433.242 186.227 435.202 185.2C437.255 184.08 439.635 182.587 442.342 180.72ZM484.762 158.74C486.348 158.74 488.028 158.74 489.802 158.74C491.668 158.647 493.348 158.833 494.842 159.3C496.428 159.673 497.688 160.467 498.622 161.68C499.648 162.893 500.162 164.76 500.162 167.28C500.162 169.52 499.228 171.48 497.362 173.16C495.868 174.467 494.048 175.213 491.902 175.4C489.848 175.493 487.888 175.493 486.022 175.4C485.555 175.307 485.135 175.26 484.762 175.26C484.388 175.26 483.968 175.26 483.502 175.26H406.362C406.268 175.26 405.848 175.26 405.102 175.26C404.355 175.26 403.468 175.167 402.442 174.98C401.508 174.793 400.528 174.56 399.502 174.28C398.475 173.907 397.635 173.347 396.982 172.6C395.862 171.387 395.302 169.753 395.302 167.7C395.302 165.74 395.908 164.153 397.122 162.94C398.335 161.82 399.595 160.887 400.902 160.14C402.208 159.393 403.562 158.927 404.962 158.74C405.242 158.74 405.522 158.787 405.802 158.88C406.082 158.88 406.362 158.833 406.642 158.74C407.948 158.553 409.348 158.553 410.842 158.74C412.335 158.833 413.875 158.833 415.462 158.74C420.315 158.553 425.215 158.507 430.162 158.6C435.202 158.693 440.428 158.74 445.842 158.74C451.722 158.74 457.975 158.693 464.602 158.6C471.228 158.507 477.715 158.553 484.062 158.74H484.762Z" fill="white"/>
</svg>
