<svg width="16" height="17" viewBox="0 0 16 17" fill="none" xmlns="http://www.w3.org/2000/svg">
<path d="M1.89609 5H12.8052V3.5H1.89609V5ZM1.89609 15.5C1.46752 15.5 1.10063 15.3531 0.795439 15.0594C0.490244 14.7656 0.337646 14.4125 0.337646 14V3.5C0.337646 3.0875 0.490244 2.73438 0.795439 2.44063C1.10063 2.14688 1.46752 2 1.89609 2H2.67531V0.5H4.23375V2H10.4675V0.5H12.026V2H12.8052C13.2338 2 13.6006 2.14688 13.9058 2.44063C14.211 2.73438 14.3636 3.0875 14.3636 3.5V7.75625C14.1169 7.64375 13.8636 7.55 13.6039 7.475C13.3441 7.4 13.0779 7.34375 12.8052 7.30625V6.5H1.89609V14H6.80518C6.89609 14.275 7.00323 14.5375 7.12661 14.7875C7.24998 15.0375 7.39609 15.275 7.56492 15.5H1.89609ZM12.026 16.25C10.948 16.25 10.0292 15.8844 9.26946 15.1531C8.50972 14.4219 8.12985 13.5375 8.12985 12.5C8.12985 11.4625 8.50972 10.5781 9.26946 9.84688C10.0292 9.11563 10.948 8.75 12.026 8.75C13.1039 8.75 14.0227 9.11563 14.7825 9.84688C15.5422 10.5781 15.9221 11.4625 15.9221 12.5C15.9221 13.5375 15.5422 14.4219 14.7825 15.1531C14.0227 15.8844 13.1039 16.25 12.026 16.25ZM13.3312 14.2812L13.8766 13.7563L12.4156 12.35V10.25H11.6363V12.65L13.3312 14.2812Z" fill="#72A474"/>
</svg>
