<svg width="20" height="20" viewBox="0 0 20 20" fill="none" xmlns="http://www.w3.org/2000/svg">
<path fill-rule="evenodd" clip-rule="evenodd" d="M18.4853 17.1458L11.3398 10.0003L18.4853 2.85485C18.8552 2.48488 18.8552 1.88504 18.4853 1.51507C18.1153 1.1451 17.5154 1.1451 17.1455 1.51507L9.99997 8.66057L2.85447 1.51507C2.4845 1.1451 1.88466 1.1451 1.51469 1.51507C1.14472 1.88504 1.14472 2.48488 1.51469 2.85485L8.66019 10.0003L1.51469 17.1458C1.14472 17.5158 1.14472 18.1157 1.51469 18.4856C1.88466 18.8556 2.4845 18.8556 2.85447 18.4856L9.99997 11.3401L17.1455 18.4856C17.5154 18.8556 18.1153 18.8556 18.4853 18.4856C18.8552 18.1157 18.8552 17.5158 18.4853 17.1458Z" fill="white" stroke="white"/>
</svg>
