<svg width="24" height="24" viewBox="0 0 24 24" fill="none" xmlns="http://www.w3.org/2000/svg">
<mask id="mask0_529_19510" style="mask-type:alpha" maskUnits="userSpaceOnUse" x="0" y="0" width="24" height="24">
<rect width="24" height="24" fill="#D9D9D9"/>
</mask>
<g mask="url(#mask0_529_19510)">
<path d="M8.55 18H15.45L16.45 14H7.55L8.55 18ZM8.55 20C8.08333 20 7.675 19.8583 7.325 19.575C6.975 19.2917 6.74167 18.925 6.625 18.475L5.5 14H18.5L17.375 18.475C17.2583 18.925 17.025 19.2917 16.675 19.575C16.325 19.8583 15.9167 20 15.45 20H8.55ZM5 12H19V10H5V12ZM12 6C12 4.33333 12.5833 2.91667 13.75 1.75C14.9167 0.583333 16.3333 0 18 0C18 1.5 17.525 2.8 16.575 3.9C15.625 5 14.4333 5.66667 13 5.9V8H21V12C21 12.55 20.8042 13.0208 20.4125 13.4125C20.0208 13.8042 19.55 14 19 14H5C4.45 14 3.97917 13.8042 3.5875 13.4125C3.19583 13.0208 3 12.55 3 12V8H11V5.9C9.56667 5.66667 8.375 5 7.425 3.9C6.475 2.8 6 1.5 6 0C7.66667 0 9.08333 0.583333 10.25 1.75C11.4167 2.91667 12 4.33333 12 6Z" fill="#72A474"/>
</g>
</svg>
