<svg width="24" height="24" viewBox="0 0 24 24" fill="none" xmlns="http://www.w3.org/2000/svg">
<rect width="24" height="24" rx="11.5" fill="#FFF6DB"/>
<path d="M14.0975 5.00073C14.0975 5.00073 10.3266 3.66315 8.32455 5.00073C6.32252 6.33831 9.64972 7.83461 9.64972 7.83461C9.64972 7.83461 4.27721 8.59424 5.04358 10.7304C5.92408 13.1829 10.2577 11.2295 10.2577 11.2295C10.2577 11.2295 5.04358 12.7268 5.73224 14.3239C6.48583 16.0707 11.7334 13.725 11.7334 13.725C11.7334 13.725 7.92119 15.0605 8.19173 16.0208C8.58525 17.4183 10.2144 17.2236 11.8318 16.5199C13.2091 15.921 15.763 15.2402 17.4375 13.4345C19.1119 11.6288 18.4232 8.63416 17.6362 7.53615C16.8491 6.43813 14.0975 5.00073 14.0975 5.00073Z" fill="#EBBB63"/>
<path d="M15.8798 5.84786C15.8798 5.84786 12.2123 4.50267 10.2651 5.84786C8.31797 7.19305 11.7626 8.29731 11.7626 8.29731C11.7626 8.29731 5.83499 8.64164 5.54315 10.9074C5.25132 13.1731 10.423 11.9113 10.423 11.9113C10.423 11.9113 6.88272 12.9151 7.26545 14.2202C7.80319 16.0532 11.7626 14.5213 11.7626 14.5213C11.7626 14.5213 9.20687 14.8948 9.56185 15.8264C9.94459 16.8302 11.0249 16.9838 12.7194 16.7299C13.3892 16.6295 13.9269 16.1024 13.8676 16.1275C13.3892 16.3283 13.2935 16.6295 12.3367 17.031C11.1521 17.5279 11.6688 18.6071 12.241 18.838C13.4849 19.3399 15.012 18.7145 15.2072 18.6372C16.563 18.1011 18.6403 17.1264 19.8957 15.726C21.5242 13.91 20.4698 9.80313 19.0345 7.89577C18.2279 6.82363 15.8798 5.84786 15.8798 5.84786Z" fill="#FFE7B6"/>
<path d="M5.00128 6.64686C5.05147 6.70513 5.09796 6.76521 5.14003 6.82709C5.17915 6.88417 5.2227 6.94425 5.24853 7.00613C5.22934 6.95927 5.25296 7.01574 5.25739 7.02475C5.26551 7.04157 5.27289 7.05779 5.28027 7.07462C5.29355 7.10406 5.30536 7.13349 5.31643 7.16293C5.34227 7.23082 5.36293 7.29991 5.37991 7.3696L5.78437 7.23082C5.76961 7.20919 5.75558 7.18756 5.74082 7.16594C5.68547 7.08303 5.53638 7.04938 5.43821 7.10105C5.34005 7.15272 5.29946 7.25906 5.3585 7.34737C5.37326 7.369 5.38729 7.39063 5.40205 7.41226C5.45519 7.49096 5.58066 7.5198 5.67883 7.48616C5.78437 7.45011 5.82865 7.36299 5.80725 7.27348C5.73713 6.9851 5.591 6.70573 5.38286 6.46482C5.31643 6.38792 5.18579 6.34466 5.08025 6.39993C4.98652 6.4492 4.92968 6.56395 5.00054 6.64625L5.00128 6.64686Z" fill="#010101"/>
<path d="M3.68504 7.65297C3.9906 7.87277 4.29617 8.09258 4.60092 8.31239L4.72462 7.87821C4.70496 7.87821 4.70742 7.87899 4.73118 7.88132C4.75084 7.88132 4.76886 7.88753 4.78525 7.89763L4.8131 7.92015C4.79508 7.90307 4.79999 7.90928 4.82703 7.93802C4.75985 7.83394 4.6042 7.78501 4.49115 7.85413C4.37809 7.92326 4.3314 8.06151 4.40267 8.17258C4.47067 8.27744 4.59191 8.3489 4.72462 8.34346C4.82866 8.33958 4.9368 8.27433 4.96138 8.17258C4.97121 8.13142 4.97121 8.08948 4.96138 8.04831C4.94663 7.98617 4.89912 7.94579 4.84832 7.90928C4.54276 7.68947 4.23719 7.46966 3.93244 7.24986C3.88493 7.21568 3.79727 7.21257 3.7432 7.22655C3.68586 7.24131 3.62441 7.28325 3.59656 7.33374C3.56625 7.38811 3.5515 7.45335 3.57198 7.51316C3.59246 7.57297 3.63097 7.61335 3.68504 7.65219V7.65297Z" fill="#010101"/>
<path d="M3.45531 9.35327C3.79678 9.35774 4.14521 9.39425 4.46871 9.46055L4.51509 9.02174C4.48089 9.02174 4.44726 9.02174 4.41306 9.02174C4.32203 9.02174 4.23507 9.12455 4.23913 9.24525C4.24319 9.36594 4.31566 9.46875 4.41306 9.46875C4.44726 9.46875 4.48089 9.46875 4.51509 9.46875C4.60205 9.46875 4.67452 9.38382 4.68612 9.27505C4.69655 9.17522 4.64727 9.04782 4.56147 9.02994C4.19565 8.95469 3.82635 8.91148 3.45531 8.90627C3.36429 8.90478 3.27733 9.00982 3.28139 9.12977C3.28544 9.24972 3.35791 9.35178 3.45531 9.35327Z" fill="#010101"/>
<path d="M7.15406 17.0894C6.91623 17.2175 6.67455 17.3382 6.42827 17.4517C6.30935 17.5065 6.18967 17.5592 6.06921 17.6105C6.00937 17.6361 5.94876 17.6609 5.88815 17.6858C5.86207 17.6961 5.84365 17.7041 5.81296 17.7158C5.79532 17.7224 5.77844 17.7297 5.76079 17.7363C5.7255 17.7458 5.72627 17.7495 5.76309 17.748L5.98482 18.0261L5.98789 18.018L5.92881 18.1146L5.93879 18.1059L5.83751 18.1622L5.85056 18.1593C5.97255 18.1351 6.04236 17.9983 6.01167 17.8893C5.97715 17.7685 5.85056 17.7122 5.72857 17.7356C5.63037 17.7546 5.57513 17.8241 5.54137 17.9083C5.51605 17.9719 5.54137 18.0488 5.5828 18.1C5.63113 18.1593 5.68791 18.1768 5.76386 18.1864C5.83982 18.1959 5.92344 18.1439 5.98866 18.1183C6.06768 18.0868 6.1467 18.0546 6.22573 18.0217C6.35539 17.9676 6.48351 17.9119 6.61087 17.8541C6.87403 17.7341 7.13335 17.6053 7.3873 17.4692C7.49548 17.4114 7.53154 17.2702 7.47016 17.1692C7.40878 17.0682 7.26378 17.0324 7.1556 17.0902L7.15406 17.0894Z" fill="#010101"/>
<path d="M7.56807 17.976C7.35369 18.1898 7.11227 18.3844 6.84671 18.555L6.90561 18.5173C6.87085 18.5398 6.83512 18.5622 6.79939 18.5838C6.73662 18.6222 6.68737 18.6631 6.66612 18.7271C6.64681 18.7848 6.6555 18.8608 6.69509 18.9121C6.73469 18.9633 6.79456 19.0082 6.86795 19.0226C6.94134 19.037 7.02922 19.0362 7.09102 18.9986C7.41839 18.8 7.71775 18.575 7.97752 18.3164C8.02774 18.2659 8.0625 18.2139 8.0625 18.1466C8.0625 18.0873 8.03063 18.0177 7.97752 17.9768C7.92441 17.936 7.85005 17.904 7.7728 17.9064C7.70037 17.9088 7.61636 17.9288 7.56807 17.9768V17.976Z" fill="#010101"/>
<path d="M8.82187 18.3477C8.80003 18.4611 8.7732 18.5738 8.742 18.6843C8.72828 18.7325 8.71393 18.7808 8.69833 18.8284C8.68959 18.8554 8.68023 18.8825 8.67087 18.9096C8.66214 18.9337 8.66151 18.9366 8.66838 18.9176C8.66338 18.9308 8.65839 18.9447 8.6534 18.9579C8.57541 19.1642 8.47994 19.3617 8.37012 19.5468C8.31396 19.6411 8.35265 19.7948 8.43751 19.8467C8.53298 19.906 8.63406 19.8686 8.69333 19.7677C8.92483 19.3756 9.09205 18.9286 9.18252 18.4633C9.20436 18.3514 9.1532 18.2204 9.05149 18.1934C8.95602 18.1678 8.84433 18.227 8.82125 18.347L8.82187 18.3477Z" fill="#010101"/>
<path d="M10.9447 8.62521C10.1278 8.74123 9.31822 8.91286 8.5242 9.14489C8.12398 9.26186 7.7265 9.39322 7.33544 9.54087C6.98926 9.67127 6.63483 9.80167 6.30696 9.97905C6.05236 10.1171 5.80142 10.3041 5.65489 10.5687C5.50835 10.8333 5.49553 11.1776 5.5981 11.4748C5.81149 12.0875 6.39305 12.4163 6.95079 12.6148C7.79885 12.9159 8.71927 12.958 9.58931 12.7404L9.51604 12.4633C9.04714 12.6148 8.58006 12.7931 8.15237 13.0472C7.72467 13.3013 7.28965 13.6522 7.24203 14.1815C7.1944 14.7107 7.5992 15.1806 8.05987 15.3522C8.5535 15.5363 9.11216 15.4922 9.62045 15.4126C10.4539 15.2822 11.2479 14.983 12.0346 14.6791L11.9613 14.402C11.541 14.5746 11.0785 14.6244 10.6453 14.7539C10.2121 14.8833 9.71753 15.077 9.47849 15.5075C9.36127 15.7184 9.29258 16.0128 9.39424 16.241C9.50597 16.4903 9.71112 16.6811 9.94465 16.8C10.4575 17.0608 11.062 17.0665 11.6197 17.0636C12.0154 17.0617 12.4028 17.0541 12.7911 16.9668C13.2966 16.8537 13.7802 16.6571 14.2601 16.4606C14.3984 16.404 14.3883 16.1806 14.2234 16.1777C14.076 16.1758 13.7087 16.1768 13.6831 16.3963C13.6455 16.7175 14.1483 16.5075 14.2601 16.4606C14.4231 16.3915 14.3636 16.1509 14.1868 16.1835C13.6629 16.2803 13.1373 16.4097 12.6409 16.614C12.259 16.7703 11.8102 16.9783 11.6472 17.4021C11.4631 17.8796 11.6261 18.3369 12.0062 18.6447C12.1765 18.7828 12.3725 18.8863 12.5786 18.9534C12.813 19.0302 13.0521 19.0321 13.2957 19.0311C14.4002 19.0254 15.4983 18.8039 16.5039 18.3178C17.1688 17.9956 17.7595 17.5565 18.3328 17.0838C19.1589 16.4021 19.8018 15.4739 20.2798 14.4979C20.3311 14.3934 20.3797 14.287 20.4245 14.1796C20.4951 14.0118 20.2579 13.8651 20.1873 14.0348C19.9859 14.5171 19.7212 14.9725 19.4354 15.404C19.1332 15.8613 18.7944 16.3072 18.3896 16.6705C17.9097 17.1001 17.3858 17.4989 16.8345 17.8201C16.0038 18.3043 15.0807 18.5968 14.1355 18.6984C13.8296 18.731 13.5228 18.7454 13.2151 18.7444C12.9962 18.7435 12.8011 18.7339 12.5942 18.6572C12.2663 18.5364 11.8761 18.265 11.8395 17.8681C11.7937 17.3609 12.237 17.102 12.6189 16.9323C13.14 16.7012 13.7042 16.5651 14.2601 16.4615L14.1868 16.1844C14.1007 16.2209 14.0137 16.2554 13.924 16.2774C13.9066 16.2813 13.8809 16.2813 13.8663 16.288C13.8479 16.288 13.8489 16.288 13.8708 16.2909C13.9615 16.3906 13.9771 16.4634 13.9166 16.5095C13.8974 16.5066 13.9386 16.5027 13.9258 16.5056C13.9514 16.4999 13.9752 16.4893 14.0009 16.4836C14.0742 16.4673 14.1483 16.4663 14.2234 16.4673L14.1868 16.1844C13.793 16.3455 13.3974 16.5056 12.988 16.6216C12.6244 16.7242 12.2645 16.7722 11.8881 16.775C11.3743 16.7789 10.8413 16.8009 10.3421 16.6523C10.1205 16.5862 9.90344 16.4807 9.74958 16.2947C9.68456 16.2151 9.61495 16.1135 9.61953 16.007C9.6232 15.9092 9.64243 15.8095 9.68181 15.7204C9.85216 15.3292 10.3055 15.1604 10.6709 15.0473C11.1188 14.9092 11.5987 14.8603 12.0337 14.682C12.1958 14.6158 12.128 14.3397 11.9604 14.4049C11.2653 14.6724 10.5674 14.938 9.83842 15.0856C9.38416 15.1777 8.89877 15.2419 8.43902 15.1595C8.01133 15.0837 7.58638 14.8383 7.51769 14.3474C7.45542 13.9006 7.86754 13.5669 8.18717 13.3617C8.62036 13.0837 9.10392 12.8996 9.58748 12.7433C9.75599 12.6886 9.6873 12.423 9.51421 12.4662C8.77788 12.6493 8.004 12.6349 7.27591 12.4221C6.77587 12.2763 6.1934 12.0443 5.92506 11.5429C5.79592 11.3022 5.74738 10.9935 5.87652 10.7423C6.00565 10.491 6.23095 10.3443 6.45807 10.2226C6.76671 10.0577 7.10099 9.9359 7.42703 9.81317C7.78512 9.67894 8.14687 9.55813 8.51229 9.44883C9.33288 9.20529 10.1699 9.02504 11.0153 8.90519C11.0894 8.89464 11.1279 8.79588 11.1114 8.72781C11.0904 8.64439 11.0153 8.61659 10.942 8.62713L10.9447 8.62521Z" fill="#010101"/>
</svg>
