<svg width="24" height="24" viewBox="0 0 24 24" fill="none" xmlns="http://www.w3.org/2000/svg">
<rect width="24" height="24" rx="11.5" fill="#F1FBFF"/>
<path d="M5.28449 16.783L5.28449 16.7829L7.85844 4.25H16.14L18.7155 16.783C18.7155 16.783 18.7155 16.783 18.7155 16.783C18.9246 17.8011 18.155 18.75 17.1329 18.75H6.86561C5.84513 18.75 5.07532 17.8012 5.28449 16.783Z" fill="#D0F1FE"/>
<path d="M5.28449 16.783L5.28449 16.7829L7.85844 4.25H16.14L18.7155 16.783C18.7155 16.783 18.7155 16.783 18.7155 16.783C18.9246 17.8011 18.155 18.75 17.1329 18.75H6.86561C5.84513 18.75 5.07532 17.8012 5.28449 16.783Z" fill="#D0F1FE"/>
<path d="M5.28449 16.783L5.28449 16.7829L7.85844 4.25H16.14L18.7155 16.783C18.7155 16.783 18.7155 16.783 18.7155 16.783C18.9246 17.8011 18.155 18.75 17.1329 18.75H6.86561C5.84513 18.75 5.07532 17.8012 5.28449 16.783Z" stroke="black" stroke-width="0.5"/>
<g clip-path="url(#clip0_2261_18109)">
<path d="M15.1896 4.7124L17.1785 15.768C17.361 16.7841 16.6894 17.7367 15.7903 17.7367H7.98603C7.08831 17.7367 6.41536 16.7841 6.5979 15.768L8.58678 4.7124" stroke="#98D6EF" stroke-miterlimit="10"/>
<path d="M13.8137 4.7124L14.973 15.768C15.0793 16.7841 14.6869 17.7367 14.1625 17.7367H9.61258C9.08948 17.7367 8.69715 16.7841 8.80341 15.768L9.96268 4.7124" stroke="#98D6EF" stroke-miterlimit="10"/>
<path d="M11.8889 4.7124V17.7367" stroke="#98D6EF" stroke-miterlimit="10"/>
</g>
<defs>
<clipPath id="clip0_2261_18109">
<rect width="12.376" height="13.104" fill="white" transform="translate(5.7002 4.7002)"/>
</clipPath>
</defs>
</svg>
