<svg width="24" height="24" viewBox="0 0 24 24" fill="none" xmlns="http://www.w3.org/2000/svg">
<rect width="24" height="24" rx="11.5" fill="#FEF0F0"/>
<path d="M11.6657 10.8309C11.6657 10.8309 11.773 8.15499 9.6821 6.90164C7.22375 5.42833 5.06464 5.6338 5.00782 5.79092C4.95101 5.94804 5.21868 6.17284 5.32475 6.60311C5.43081 7.03338 5.50151 10.5759 8.41694 10.9856C11.3324 11.3953 11.6644 10.8309 11.6644 10.8309H11.6657Z" fill="#FDD7D7" stroke="black" stroke-width="0.5" stroke-miterlimit="10"/>
<path d="M11.6682 10.7929C11.6682 10.7929 11.5609 7.78252 13.6518 6.3725C16.1102 4.71503 18.2693 4.94618 18.3261 5.12294C18.3829 5.2997 18.1152 5.5526 18.0092 6.03666C17.9031 6.52071 17.8324 10.506 14.917 10.9669C12.0016 11.4279 11.6695 10.7929 11.6695 10.7929H11.6682Z" fill="#FDD7D7" stroke="black" stroke-width="0.5" stroke-miterlimit="10"/>
<path d="M12.2203 19.0003C11.7868 14.6788 10.9197 8.81396 13.0006 8.81396" stroke="black" stroke-width="0.5" stroke-linecap="round"/>
</svg>
