<svg width="146" height="138" viewBox="0 0 146 138" fill="none" xmlns="http://www.w3.org/2000/svg">
<g clip-path="url(#clip0_1469_14405)">
<path opacity="0.63" d="M106.41 21H43.71C28.9585 21 17 32.9585 17 47.71V110.41C17 125.162 28.9585 137.12 43.71 137.12H106.41C121.162 137.12 133.12 125.162 133.12 110.41V47.71C133.12 32.9585 121.162 21 106.41 21Z" fill="#ABDFBD"/>
</g>
<g clip-path="url(#clip1_1469_14405)">
<path d="M105.1 74.0399H69.9902V33.1899L87.5402 15.9399L105.1 33.1899V74.0399Z" stroke="#42362D" stroke-width="1.24" stroke-linecap="round" stroke-linejoin="round"/>
<path d="M87.54 15.9399H127.22L144.82 32.9399H105.41" stroke="#42362D" stroke-width="1.24" stroke-linecap="round" stroke-linejoin="round"/>
<path d="M144.82 32.9399V74.0399H105.1" stroke="#42362D" stroke-width="1.24" stroke-linecap="round" stroke-linejoin="round"/>
<path d="M70.2701 34.2301C70.2701 34.2301 65.2301 12.3801 37.6201 0.620117" stroke="#42362D" stroke-width="1.24" stroke-linecap="round" stroke-linejoin="round"/>
<path d="M55.1302 11.5002C55.1302 11.5002 47.2602 6.33015 38.9902 14.4202C38.9902 14.4202 47.9302 19.7302 55.1402 11.4902L55.1302 11.5002Z" stroke="#42362D" stroke-width="1.24" stroke-linecap="round" stroke-linejoin="round"/>
<path d="M67.6402 3.55005C67.6402 3.55005 59.3502 8.01005 62.5302 19.14C62.5302 19.14 71.4502 13.8 67.6402 3.55005Z" stroke="#42362D" stroke-width="1.24" stroke-linecap="round" stroke-linejoin="round"/>
<path d="M62.5303 19.1401L65.3403 10.5701" stroke="#42362D" stroke-width="1.24" stroke-linecap="round" stroke-linejoin="round"/>
<path d="M54.86 11.3401L46.73 12.8801" stroke="#42362D" stroke-width="1.24" stroke-linecap="round" stroke-linejoin="round"/>
<path d="M131.35 74.0401H118.57V49.7301C118.57 46.2001 121.43 43.3401 124.96 43.3401C128.49 43.3401 131.35 46.2001 131.35 49.7301V74.0401Z" stroke="#42362D" stroke-width="1.24" stroke-linecap="round" stroke-linejoin="round"/>
<path d="M123.56 74.04H127.68V49.73C127.68 47 125.97 44.68 123.56 43.76" stroke="#42362D" stroke-width="1.24" stroke-linecap="round" stroke-linejoin="round"/>
</g>
<path d="M18.24 58.216V50.408H11.104V58.216H18.24ZM8.48 58.216V50.408H4.16V48.264H25.184V50.408H20.864V58.216H25.088V60.36H4.256V58.216H8.48ZM27.68 63.688V65.832H16V75.368H13.344V65.832H1.664V63.688H27.68ZM50.5236 52.488V49.64H33.6916V47.592H53.1156V54.44H36.3476V57.32H53.7236V59.368H33.7556V52.488H50.5236ZM44.7956 65.8V66.376C44.7956 69.96 49.1796 72.584 54.3956 73.224L53.4996 75.24C49.1156 74.6 45.1476 72.744 43.4516 69.768C41.6916 72.744 37.7556 74.6 33.3396 75.24L32.4436 73.224C37.6916 72.584 42.1076 69.96 42.1076 66.376V65.8H44.7956ZM30.3956 61.704H56.4436V63.816H30.3956V61.704Z" fill="#FAFFF4"/>
<path d="M18.24 96.216V88.408H11.104V96.216H18.24ZM8.48 96.216V88.408H4.16V86.264H25.184V88.408H20.864V96.216H25.088V98.36H4.256V96.216H8.48ZM27.68 101.688V103.832H16V113.368H13.344V103.832H1.664V101.688H27.68ZM50.5236 90.488V87.64H33.6916V85.592H53.1156V92.44H36.3476V95.32H53.7236V97.368H33.7556V90.488H50.5236ZM44.7956 103.8V104.376C44.7956 107.96 49.1796 110.584 54.3956 111.224L53.4996 113.24C49.1156 112.6 45.1476 110.744 43.4516 107.768C41.6916 110.744 37.7556 112.6 33.3396 113.24L32.4436 111.224C37.6916 110.584 42.1076 107.96 42.1076 104.376V103.8H44.7956ZM30.3956 99.704H56.4436V101.816H30.3956V99.704Z" fill="#FAFFF4"/>
<rect x="102" y="117" width="43" height="1" fill="#42362D"/>
<path d="M76.5 111.05C76.0933 111.05 75.7783 110.938 75.555 110.715C75.335 110.492 75.225 110.137 75.225 109.65C75.225 109.317 75.2817 109.045 75.395 108.835C75.5083 108.625 75.665 108.47 75.865 108.37C76.0683 108.27 76.3017 108.22 76.565 108.22C76.7517 108.22 76.9133 108.238 77.05 108.275C77.19 108.312 77.3117 108.355 77.415 108.405L77.195 108.98C77.0783 108.933 76.9683 108.895 76.865 108.865C76.765 108.835 76.665 108.82 76.565 108.82C76.1783 108.82 75.985 109.095 75.985 109.645C75.985 109.918 76.035 110.12 76.135 110.25C76.2383 110.38 76.3817 110.445 76.565 110.445C76.7217 110.445 76.86 110.425 76.98 110.385C77.1 110.342 77.2167 110.283 77.33 110.21V110.845C77.2167 110.918 77.0967 110.97 76.97 111C76.8467 111.033 76.69 111.05 76.5 111.05ZM80.4384 109.63C80.4384 110.083 80.3184 110.433 80.0784 110.68C79.8417 110.927 79.5184 111.05 79.1084 111.05C78.855 111.05 78.6284 110.995 78.4284 110.885C78.2317 110.775 78.0767 110.615 77.9634 110.405C77.85 110.192 77.7934 109.933 77.7934 109.63C77.7934 109.177 77.9117 108.828 78.1484 108.585C78.385 108.342 78.71 108.22 79.1234 108.22C79.38 108.22 79.6067 108.275 79.8034 108.385C80 108.495 80.155 108.655 80.2684 108.865C80.3817 109.075 80.4384 109.33 80.4384 109.63ZM78.5534 109.63C78.5534 109.9 78.5967 110.105 78.6834 110.245C78.7734 110.382 78.9184 110.45 79.1184 110.45C79.315 110.45 79.4567 110.382 79.5434 110.245C79.6334 110.105 79.6784 109.9 79.6784 109.63C79.6784 109.36 79.6334 109.158 79.5434 109.025C79.4567 108.888 79.3134 108.82 79.1134 108.82C78.9167 108.82 78.7734 108.888 78.6834 109.025C78.5967 109.158 78.5534 109.36 78.5534 109.63ZM84.2591 108.22C84.5691 108.22 84.8024 108.3 84.9591 108.46C85.1191 108.617 85.1991 108.87 85.1991 109.22V111H84.4541V109.405C84.4541 109.012 84.3174 108.815 84.0441 108.815C83.8474 108.815 83.7074 108.885 83.6241 109.025C83.5407 109.165 83.4991 109.367 83.4991 109.63V111H82.7541V109.405C82.7541 109.012 82.6174 108.815 82.3441 108.815C82.1374 108.815 81.9941 108.893 81.9141 109.05C81.8374 109.203 81.7991 109.425 81.7991 109.715V111H81.0541V108.27H81.6241L81.7241 108.62H81.7641C81.8474 108.48 81.9607 108.378 82.1041 108.315C82.2507 108.252 82.4024 108.22 82.5591 108.22C82.7591 108.22 82.9274 108.253 83.0641 108.32C83.2041 108.383 83.3124 108.483 83.3891 108.62H83.4541C83.5374 108.48 83.6524 108.378 83.7991 108.315C83.9491 108.252 84.1024 108.22 84.2591 108.22ZM87.4862 108.22C87.7928 108.22 88.0412 108.34 88.2312 108.58C88.4212 108.817 88.5162 109.167 88.5162 109.63C88.5162 110.097 88.4178 110.45 88.2212 110.69C88.0245 110.93 87.7728 111.05 87.4662 111.05C87.2695 111.05 87.1128 111.015 86.9962 110.945C86.8795 110.872 86.7845 110.79 86.7112 110.7H86.6712C86.6978 110.84 86.7112 110.973 86.7112 111.1V112.2H85.9662V108.27H86.5712L86.6762 108.625H86.7112C86.7845 108.515 86.8828 108.42 87.0062 108.34C87.1295 108.26 87.2895 108.22 87.4862 108.22ZM87.2462 108.815C87.0528 108.815 86.9162 108.877 86.8362 109C86.7562 109.12 86.7145 109.302 86.7112 109.545V109.625C86.7112 109.888 86.7495 110.092 86.8262 110.235C86.9062 110.375 87.0495 110.445 87.2562 110.445C87.4262 110.445 87.5512 110.375 87.6312 110.235C87.7145 110.092 87.7562 109.887 87.7562 109.62C87.7562 109.083 87.5862 108.815 87.2462 108.815ZM90.2502 108.215C90.6169 108.215 90.8969 108.295 91.0902 108.455C91.2869 108.612 91.3852 108.853 91.3852 109.18V111H90.8652L90.7202 110.63H90.7002C90.5836 110.777 90.4602 110.883 90.3302 110.95C90.2002 111.017 90.0219 111.05 89.7952 111.05C89.5519 111.05 89.3502 110.98 89.1902 110.84C89.0302 110.7 88.9502 110.482 88.9502 110.185C88.9502 109.895 89.0519 109.682 89.2552 109.545C89.4586 109.408 89.7636 109.332 90.1702 109.315L90.6452 109.3V109.18C90.6452 109.037 90.6069 108.932 90.5302 108.865C90.4569 108.798 90.3536 108.765 90.2202 108.765C90.0869 108.765 89.9569 108.785 89.8302 108.825C89.7036 108.862 89.5769 108.908 89.4502 108.965L89.2052 108.46C89.3486 108.387 89.5102 108.328 89.6902 108.285C89.8702 108.238 90.0569 108.215 90.2502 108.215ZM90.6452 109.735L90.3552 109.745C90.1152 109.752 89.9486 109.795 89.8552 109.875C89.7619 109.955 89.7152 110.06 89.7152 110.19C89.7152 110.303 89.7486 110.385 89.8152 110.435C89.8819 110.482 89.9686 110.505 90.0752 110.505C90.2352 110.505 90.3702 110.458 90.4802 110.365C90.5902 110.268 90.6452 110.133 90.6452 109.96V109.735ZM93.6978 108.22C93.9911 108.22 94.2261 108.3 94.4028 108.46C94.5795 108.617 94.6678 108.87 94.6678 109.22V111H93.9228V109.405C93.9228 109.208 93.8878 109.062 93.8178 108.965C93.7478 108.865 93.6361 108.815 93.4828 108.815C93.2561 108.815 93.1011 108.893 93.0178 109.05C92.9345 109.203 92.8928 109.425 92.8928 109.715V111H92.1478V108.27H92.7178L92.8178 108.62H92.8578C92.9445 108.48 93.0628 108.378 93.2128 108.315C93.3661 108.252 93.5278 108.22 93.6978 108.22ZM95.8089 107.2C95.9189 107.2 96.0139 107.227 96.0939 107.28C96.1739 107.33 96.2139 107.425 96.2139 107.565C96.2139 107.702 96.1739 107.797 96.0939 107.85C96.0139 107.903 95.9189 107.93 95.8089 107.93C95.6956 107.93 95.5989 107.903 95.5189 107.85C95.4423 107.797 95.4039 107.702 95.4039 107.565C95.4039 107.425 95.4423 107.33 95.5189 107.28C95.5989 107.227 95.6956 107.2 95.8089 107.2ZM96.1789 108.27V111H95.4339V108.27H96.1789ZM99.4374 109.63C99.4374 110.083 99.3174 110.433 99.0774 110.68C98.8407 110.927 98.5174 111.05 98.1074 111.05C97.854 111.05 97.6274 110.995 97.4274 110.885C97.2307 110.775 97.0757 110.615 96.9624 110.405C96.849 110.192 96.7924 109.933 96.7924 109.63C96.7924 109.177 96.9107 108.828 97.1474 108.585C97.384 108.342 97.709 108.22 98.1224 108.22C98.379 108.22 98.6057 108.275 98.8024 108.385C98.999 108.495 99.154 108.655 99.2674 108.865C99.3807 109.075 99.4374 109.33 99.4374 109.63ZM97.5524 109.63C97.5524 109.9 97.5957 110.105 97.6824 110.245C97.7724 110.382 97.9174 110.45 98.1174 110.45C98.314 110.45 98.4557 110.382 98.5424 110.245C98.6324 110.105 98.6774 109.9 98.6774 109.63C98.6774 109.36 98.6324 109.158 98.5424 109.025C98.4557 108.888 98.3124 108.82 98.1124 108.82C97.9157 108.82 97.7724 108.888 97.6824 109.025C97.5957 109.158 97.5524 109.36 97.5524 109.63ZM101.603 108.22C101.896 108.22 102.131 108.3 102.308 108.46C102.485 108.617 102.573 108.87 102.573 109.22V111H101.828V109.405C101.828 109.208 101.793 109.062 101.723 108.965C101.653 108.865 101.541 108.815 101.388 108.815C101.161 108.815 101.006 108.893 100.923 109.05C100.84 109.203 100.798 109.425 100.798 109.715V111H100.053V108.27H100.623L100.723 108.62H100.763C100.85 108.48 100.968 108.378 101.118 108.315C101.271 108.252 101.433 108.22 101.603 108.22ZM106.158 108.22C106.465 108.22 106.713 108.34 106.903 108.58C107.093 108.817 107.188 109.167 107.188 109.63C107.188 110.097 107.09 110.45 106.893 110.69C106.696 110.93 106.445 111.05 106.138 111.05C105.941 111.05 105.785 111.015 105.668 110.945C105.551 110.872 105.456 110.79 105.383 110.7H105.343C105.37 110.84 105.383 110.973 105.383 111.1V112.2H104.638V108.27H105.243L105.348 108.625H105.383C105.456 108.515 105.555 108.42 105.678 108.34C105.801 108.26 105.961 108.22 106.158 108.22ZM105.918 108.815C105.725 108.815 105.588 108.877 105.508 109C105.428 109.12 105.386 109.302 105.383 109.545V109.625C105.383 109.888 105.421 110.092 105.498 110.235C105.578 110.375 105.721 110.445 105.928 110.445C106.098 110.445 106.223 110.375 106.303 110.235C106.386 110.092 106.428 109.887 106.428 109.62C106.428 109.083 106.258 108.815 105.918 108.815ZM108.547 111H107.802V107.2H108.547V111ZM110.446 108.215C110.812 108.215 111.092 108.295 111.286 108.455C111.482 108.612 111.581 108.853 111.581 109.18V111H111.061L110.916 110.63H110.896C110.779 110.777 110.656 110.883 110.526 110.95C110.396 111.017 110.217 111.05 109.991 111.05C109.747 111.05 109.546 110.98 109.386 110.84C109.226 110.7 109.146 110.482 109.146 110.185C109.146 109.895 109.247 109.682 109.451 109.545C109.654 109.408 109.959 109.332 110.366 109.315L110.841 109.3V109.18C110.841 109.037 110.802 108.932 110.726 108.865C110.652 108.798 110.549 108.765 110.416 108.765C110.282 108.765 110.152 108.785 110.026 108.825C109.899 108.862 109.772 108.908 109.646 108.965L109.401 108.46C109.544 108.387 109.706 108.328 109.886 108.285C110.066 108.238 110.252 108.215 110.446 108.215ZM110.841 109.735L110.551 109.745C110.311 109.752 110.144 109.795 110.051 109.875C109.957 109.955 109.911 110.06 109.911 110.19C109.911 110.303 109.944 110.385 110.011 110.435C110.077 110.482 110.164 110.505 110.271 110.505C110.431 110.505 110.566 110.458 110.676 110.365C110.786 110.268 110.841 110.133 110.841 109.96V109.735ZM113.893 108.22C114.186 108.22 114.421 108.3 114.598 108.46C114.775 108.617 114.863 108.87 114.863 109.22V111H114.118V109.405C114.118 109.208 114.083 109.062 114.013 108.965C113.943 108.865 113.831 108.815 113.678 108.815C113.451 108.815 113.296 108.893 113.213 109.05C113.13 109.203 113.088 109.425 113.088 109.715V111H112.343V108.27H112.913L113.013 108.62H113.053C113.14 108.48 113.258 108.378 113.408 108.315C113.561 108.252 113.723 108.22 113.893 108.22ZM116.779 110.455C116.863 110.455 116.943 110.448 117.019 110.435C117.096 110.418 117.173 110.397 117.249 110.37V110.925C117.169 110.962 117.069 110.992 116.949 111.015C116.833 111.038 116.704 111.05 116.564 111.05C116.401 111.05 116.254 111.023 116.124 110.97C115.998 110.917 115.896 110.825 115.819 110.695C115.746 110.565 115.709 110.382 115.709 110.145V108.83H115.354V108.515L115.764 108.265L115.979 107.69H116.454V108.27H117.219V108.83H116.454V110.145C116.454 110.248 116.484 110.327 116.544 110.38C116.604 110.43 116.683 110.455 116.779 110.455Z" fill="#42362D"/>
<defs>
<clipPath id="clip0_1469_14405">
<rect width="116.12" height="116.12" fill="white" transform="translate(17 21)"/>
</clipPath>
<clipPath id="clip1_1469_14405">
<rect width="108.44" height="74.67" fill="white" transform="translate(37)"/>
</clipPath>
</defs>
</svg>
