<svg width="22" height="22" viewBox="0 0 22 22" fill="none" xmlns="http://www.w3.org/2000/svg">
<path d="M10.9997 11.0002C9.53301 11.0002 8.27745 10.4779 7.23301 9.4335C6.18856 8.38905 5.66634 7.1335 5.66634 5.66683C5.66634 4.20016 6.18856 2.94461 7.23301 1.90016C8.27745 0.855718 9.53301 0.333496 10.9997 0.333496C12.4663 0.333496 13.7219 0.855718 14.7663 1.90016C15.8108 2.94461 16.333 4.20016 16.333 5.66683C16.333 7.1335 15.8108 8.38905 14.7663 9.4335C13.7219 10.4779 12.4663 11.0002 10.9997 11.0002ZM0.333008 21.6668V17.9335C0.333008 17.1779 0.527452 16.4835 0.916341 15.8502C1.30523 15.2168 1.8219 14.7335 2.46634 14.4002C3.84412 13.7113 5.24412 13.1946 6.66634 12.8502C8.08856 12.5057 9.53301 12.3335 10.9997 12.3335C12.4663 12.3335 13.9108 12.5057 15.333 12.8502C16.7552 13.1946 18.1552 13.7113 19.533 14.4002C20.1775 14.7335 20.6941 15.2168 21.083 15.8502C21.4719 16.4835 21.6663 17.1779 21.6663 17.9335V21.6668H0.333008ZM2.99967 19.0002H18.9997V17.9335C18.9997 17.6891 18.9386 17.4668 18.8163 17.2668C18.6941 17.0668 18.533 16.9113 18.333 16.8002C17.133 16.2002 15.9219 15.7502 14.6997 15.4502C13.4775 15.1502 12.2441 15.0002 10.9997 15.0002C9.75523 15.0002 8.5219 15.1502 7.29967 15.4502C6.07745 15.7502 4.86634 16.2002 3.66634 16.8002C3.46634 16.9113 3.30523 17.0668 3.18301 17.2668C3.06079 17.4668 2.99967 17.6891 2.99967 17.9335V19.0002ZM10.9997 8.3335C11.733 8.3335 12.3608 8.07239 12.883 7.55016C13.4052 7.02794 13.6663 6.40016 13.6663 5.66683C13.6663 4.9335 13.4052 4.30572 12.883 3.7835C12.3608 3.26127 11.733 3.00016 10.9997 3.00016C10.2663 3.00016 9.63856 3.26127 9.11634 3.7835C8.59412 4.30572 8.33301 4.9335 8.33301 5.66683C8.33301 6.40016 8.59412 7.02794 9.11634 7.55016C9.63856 8.07239 10.2663 8.3335 10.9997 8.3335Z" fill="#B6CFB7"/>
</svg>
