<svg width="24" height="24" viewBox="0 0 24 24" fill="none" xmlns="http://www.w3.org/2000/svg">
<path d="M8.4 14.4H20.4L16.26 9L13.5 12.6L11.64 10.2L8.4 14.4ZM7.2 19.2C6.54 19.2 5.975 18.965 5.505 18.495C5.035 18.025 4.8 17.46 4.8 16.8V2.4C4.8 1.74 5.035 1.175 5.505 0.705C5.975 0.235 6.54 0 7.2 0H21.6C22.26 0 22.825 0.235 23.295 0.705C23.765 1.175 24 1.74 24 2.4V16.8C24 17.46 23.765 18.025 23.295 18.495C22.825 18.965 22.26 19.2 21.6 19.2H7.2ZM7.2 16.8H21.6V2.4H7.2V16.8ZM2.4 24C1.74 24 1.175 23.765 0.705 23.295C0.235 22.825 0 22.26 0 21.6V4.8H2.4V21.6H19.2V24H2.4Z" fill="#72A474"/>
</svg>
