<svg width="14" height="14" viewBox="0 0 14 14" fill="none" xmlns="http://www.w3.org/2000/svg">
<path fill-rule="evenodd" clip-rule="evenodd" d="M12.5263 6.19206H7.47368V1.12048C7.47368 0.85789 7.26161 0.64502 7 0.64502C6.73839 0.64502 6.52632 0.85789 6.52632 1.12048V6.19206H1.47368C1.21208 6.19206 1 6.40493 1 6.66752C1 6.93011 1.21208 7.14298 1.47368 7.14298H6.52632V12.2146C6.52632 12.4771 6.73839 12.69 7 12.69C7.26161 12.69 7.47368 12.4771 7.47368 12.2146V7.14298H12.5263C12.7879 7.14298 13 6.93011 13 6.66752C13 6.40493 12.7879 6.19206 12.5263 6.19206Z" fill="#81C384" stroke="#81C384"/>
</svg>
