<svg width="26" height="26" viewBox="0 0 26 26" fill="none" xmlns="http://www.w3.org/2000/svg">
<path fill-rule="evenodd" clip-rule="evenodd" d="M24.0526 12.0526H13.9473V1.94737C13.9473 1.42415 13.5232 1 13 1C12.4768 1 12.0526 1.42415 12.0526 1.94737V12.0526H1.94734C1.42412 12.0526 0.999969 12.4768 0.999969 13C0.999969 13.5232 1.42412 13.9474 1.94734 13.9474H12.0526V24.0526C12.0526 24.5758 12.4768 25 13 25C13.5232 25 13.9473 24.5758 13.9473 24.0526V13.9474H24.0526C24.5758 13.9474 25 13.5232 25 13C25 12.4768 24.5758 12.0526 24.0526 12.0526Z" fill="white" stroke="white"/>
</svg>
