<svg width="158" height="138" viewBox="0 0 158 138" fill="none" xmlns="http://www.w3.org/2000/svg">
<g clip-path="url(#clip0_1343_14450)">
<path opacity="0.63" d="M118.41 21H55.71C40.9585 21 29 32.9585 29 47.71V110.41C29 125.162 40.9585 137.12 55.71 137.12H118.41C133.162 137.12 145.12 125.162 145.12 110.41V47.71C145.12 32.9585 133.162 21 118.41 21Z" fill="#ABDFBD"/>
</g>
<g clip-path="url(#clip1_1343_14450)">
<path d="M117.1 74.0399H81.9902V33.1899L99.5402 15.9399L117.1 33.1899V74.0399Z" stroke="#DAEACA" stroke-width="1.24" stroke-linecap="round" stroke-linejoin="round"/>
<path d="M99.54 15.9399H139.22L156.82 32.9399H117.41" stroke="#DAEACA" stroke-width="1.24" stroke-linecap="round" stroke-linejoin="round"/>
<path d="M156.82 32.9399V74.0399H117.1" stroke="#DAEACA" stroke-width="1.24" stroke-linecap="round" stroke-linejoin="round"/>
<path d="M82.2701 34.2301C82.2701 34.2301 77.2301 12.3801 49.6201 0.620117" stroke="#DAEACA" stroke-width="1.24" stroke-linecap="round" stroke-linejoin="round"/>
<path d="M67.1302 11.5002C67.1302 11.5002 59.2602 6.33015 50.9902 14.4202C50.9902 14.4202 59.9302 19.7302 67.1402 11.4902L67.1302 11.5002Z" stroke="#DAEACA" stroke-width="1.24" stroke-linecap="round" stroke-linejoin="round"/>
<path d="M79.6402 3.55005C79.6402 3.55005 71.3502 8.01005 74.5302 19.14C74.5302 19.14 83.4502 13.8 79.6402 3.55005Z" stroke="#DAEACA" stroke-width="1.24" stroke-linecap="round" stroke-linejoin="round"/>
<path d="M74.5303 19.1401L77.3403 10.5701" stroke="#DAEACA" stroke-width="1.24" stroke-linecap="round" stroke-linejoin="round"/>
<path d="M66.86 11.3401L58.73 12.8801" stroke="#DAEACA" stroke-width="1.24" stroke-linecap="round" stroke-linejoin="round"/>
<path d="M143.35 74.0401H130.57V49.7301C130.57 46.2001 133.43 43.3401 136.96 43.3401C140.49 43.3401 143.35 46.2001 143.35 49.7301V74.0401Z" stroke="#DAEACA" stroke-width="1.24" stroke-linecap="round" stroke-linejoin="round"/>
<path d="M135.56 74.04H139.68V49.73C139.68 47 137.97 44.68 135.56 43.76" stroke="#DAEACA" stroke-width="1.24" stroke-linecap="round" stroke-linejoin="round"/>
</g>
<path d="M9.152 46.152C12.1387 46.152 14.3147 46.7387 15.68 47.912C17.0453 49.0853 17.728 50.7387 17.728 52.872C17.728 54.1307 17.44 55.3147 16.864 56.424C16.3093 57.512 15.36 58.3973 14.016 59.08C12.6933 59.7627 10.8907 60.104 8.608 60.104H5.984V69H3.104V46.152H9.152ZM8.896 48.616H5.984V57.64H8.288C10.464 57.64 12.0853 57.288 13.152 56.584C14.2187 55.88 14.752 54.6853 14.752 53C14.752 51.528 14.272 50.4293 13.312 49.704C12.3733 48.9787 10.9013 48.616 8.896 48.616ZM35.7251 51.848V69H33.4211L33.0051 66.728H32.8771C32.3225 67.624 31.5545 68.2853 30.5731 68.712C29.5918 69.1173 28.5465 69.32 27.4371 69.32C25.3678 69.32 23.8105 68.8293 22.7651 67.848C21.7198 66.8453 21.1971 65.256 21.1971 63.08V51.848H24.0451V62.888C24.0451 65.6187 25.3145 66.984 27.8531 66.984C29.7518 66.984 31.0638 66.4507 31.7891 65.384C32.5358 64.3173 32.9091 62.7813 32.9091 60.776V51.848H35.7251ZM48.4645 51.528C48.7845 51.528 49.1258 51.5493 49.4885 51.592C49.8512 51.6133 50.1818 51.656 50.4805 51.72L50.1285 54.312C49.8512 54.248 49.5418 54.1947 49.2005 54.152C48.8592 54.1093 48.5498 54.088 48.2725 54.088C47.3978 54.088 46.5765 54.3333 45.8085 54.824C45.0405 55.2933 44.4218 55.9653 43.9525 56.84C43.5045 57.6933 43.2805 58.696 43.2805 59.848V69H40.4645V51.848H42.7685L43.0885 54.984H43.2165C43.7498 54.0453 44.4538 53.2347 45.3285 52.552C46.2245 51.8693 47.2698 51.528 48.4645 51.528ZM67.3134 51.848V69H65.0094L64.5934 66.728H64.4654C63.9107 67.624 63.1427 68.2853 62.1614 68.712C61.18 69.1173 60.1347 69.32 59.0254 69.32C56.956 69.32 55.3987 68.8293 54.3534 67.848C53.308 66.8453 52.7854 65.256 52.7854 63.08V51.848H55.6334V62.888C55.6334 65.6187 56.9027 66.984 59.4414 66.984C61.34 66.984 62.652 66.4507 63.3774 65.384C64.124 64.3173 64.4974 62.7813 64.4974 60.776V51.848H67.3134Z" fill="#FAFFF4"/>
<path d="M10.88 89.528C12.992 89.528 14.688 90.264 15.968 91.736C17.2693 93.208 17.92 95.4267 17.92 98.392C17.92 101.315 17.2693 103.533 15.968 105.048C14.688 106.563 12.9813 107.32 10.848 107.32C9.52533 107.32 8.42667 107.075 7.552 106.584C6.69867 106.093 6.02667 105.507 5.536 104.824H5.344C5.36533 105.187 5.39733 105.645 5.44 106.2C5.504 106.755 5.536 107.235 5.536 107.64V114.68H2.72V89.848H5.024L5.408 92.184H5.536C6.048 91.4373 6.72 90.808 7.552 90.296C8.384 89.784 9.49333 89.528 10.88 89.528ZM10.368 91.896C8.61867 91.896 7.38133 92.3867 6.656 93.368C5.93067 94.3493 5.55733 95.8427 5.536 97.848V98.392C5.536 100.504 5.87733 102.136 6.56 103.288C7.264 104.419 8.55467 104.984 10.432 104.984C11.456 104.984 12.3093 104.707 12.992 104.152C13.6747 103.576 14.176 102.787 14.496 101.784C14.8373 100.781 15.008 99.64 15.008 98.36C15.008 96.3973 14.624 94.8293 13.856 93.656C13.1093 92.4827 11.9467 91.896 10.368 91.896ZM36.0376 89.848V107H33.7336L33.3176 104.728H33.1896C32.635 105.624 31.867 106.285 30.8856 106.712C29.9043 107.117 28.859 107.32 27.7496 107.32C25.6803 107.32 24.123 106.829 23.0776 105.848C22.0323 104.845 21.5096 103.256 21.5096 101.08V89.848H24.3576V100.888C24.3576 103.619 25.627 104.984 28.1656 104.984C30.0643 104.984 31.3763 104.451 32.1016 103.384C32.8483 102.317 33.2216 100.781 33.2216 98.776V89.848H36.0376ZM48.777 89.528C49.097 89.528 49.4383 89.5493 49.801 89.592C50.1637 89.6133 50.4943 89.656 50.793 89.72L50.441 92.312C50.1637 92.248 49.8543 92.1947 49.513 92.152C49.1717 92.1093 48.8623 92.088 48.585 92.088C47.7103 92.088 46.889 92.3333 46.121 92.824C45.353 93.2933 44.7343 93.9653 44.265 94.84C43.817 95.6933 43.593 96.696 43.593 97.848V107H40.777V89.848H43.081L43.401 92.984H43.529C44.0623 92.0453 44.7663 91.2347 45.641 90.552C46.537 89.8693 47.5823 89.528 48.777 89.528ZM59.2889 89.528C60.7395 89.528 61.9982 89.848 63.0649 90.488C64.1315 91.128 64.9422 92.0347 65.4969 93.208C66.0729 94.36 66.3609 95.7147 66.3609 97.272V98.968H54.6169C54.6595 100.909 55.1502 102.392 56.0889 103.416C57.0489 104.419 58.3822 104.92 60.0889 104.92C61.1769 104.92 62.1369 104.824 62.9689 104.632C63.8222 104.419 64.6969 104.12 65.5929 103.736V106.2C64.7182 106.584 63.8542 106.861 63.0009 107.032C62.1475 107.224 61.1342 107.32 59.9609 107.32C58.3182 107.32 56.8782 106.989 55.6409 106.328C54.4035 105.667 53.4329 104.685 52.7289 103.384C52.0462 102.083 51.7049 100.472 51.7049 98.552C51.7049 96.6747 52.0142 95.064 52.6329 93.72C53.2729 92.376 54.1582 91.3413 55.2889 90.616C56.4409 89.8907 57.7742 89.528 59.2889 89.528ZM59.2569 91.832C57.9129 91.832 56.8462 92.2693 56.0569 93.144C55.2889 93.9973 54.8302 95.192 54.6809 96.728H63.4169C63.3955 95.2773 63.0542 94.104 62.3929 93.208C61.7315 92.2907 60.6862 91.832 59.2569 91.832ZM84.3575 89.848V107H82.0535L81.6375 104.728H81.5095C80.9548 105.624 80.1868 106.285 79.2055 106.712C78.2241 107.117 77.1788 107.32 76.0695 107.32C74.0001 107.32 72.4428 106.829 71.3975 105.848C70.3521 104.845 69.8295 103.256 69.8295 101.08V89.848H72.6775V100.888C72.6775 103.619 73.9468 104.984 76.4855 104.984C78.3841 104.984 79.6961 104.451 80.4215 103.384C81.1681 102.317 81.5415 100.781 81.5415 98.776V89.848H84.3575ZM94.8248 105.016C95.2515 105.016 95.6888 104.984 96.1368 104.92C96.5848 104.856 96.9475 104.771 97.2248 104.664V106.808C96.9262 106.957 96.4995 107.075 95.9448 107.16C95.3902 107.267 94.8568 107.32 94.3448 107.32C93.4488 107.32 92.6168 107.171 91.8488 106.872C91.1022 106.552 90.4942 106.008 90.0248 105.24C89.5555 104.472 89.3208 103.395 89.3208 102.008V92.024H86.8888V90.68L89.3528 89.56L90.4728 85.912H92.1368V89.848H97.0968V92.024H92.1368V101.944C92.1368 102.989 92.3822 103.768 92.8728 104.28C93.3848 104.771 94.0355 105.016 94.8248 105.016Z" fill="#FAFFF4"/>
<rect x="114" y="126" width="43" height="1" fill="#42362D"/>
<path d="M88.5 119.05C88.0933 119.05 87.7783 118.938 87.555 118.715C87.335 118.492 87.225 118.137 87.225 117.65C87.225 117.317 87.2817 117.045 87.395 116.835C87.5083 116.625 87.665 116.47 87.865 116.37C88.0683 116.27 88.3017 116.22 88.565 116.22C88.7517 116.22 88.9133 116.238 89.05 116.275C89.19 116.312 89.3117 116.355 89.415 116.405L89.195 116.98C89.0783 116.933 88.9683 116.895 88.865 116.865C88.765 116.835 88.665 116.82 88.565 116.82C88.1783 116.82 87.985 117.095 87.985 117.645C87.985 117.918 88.035 118.12 88.135 118.25C88.2383 118.38 88.3817 118.445 88.565 118.445C88.7217 118.445 88.86 118.425 88.98 118.385C89.1 118.342 89.2167 118.283 89.33 118.21V118.845C89.2167 118.918 89.0967 118.97 88.97 119C88.8467 119.033 88.69 119.05 88.5 119.05ZM92.4384 117.63C92.4384 118.083 92.3184 118.433 92.0784 118.68C91.8417 118.927 91.5184 119.05 91.1084 119.05C90.855 119.05 90.6284 118.995 90.4284 118.885C90.2317 118.775 90.0767 118.615 89.9634 118.405C89.85 118.192 89.7934 117.933 89.7934 117.63C89.7934 117.177 89.9117 116.828 90.1484 116.585C90.385 116.342 90.71 116.22 91.1234 116.22C91.38 116.22 91.6067 116.275 91.8034 116.385C92 116.495 92.155 116.655 92.2684 116.865C92.3817 117.075 92.4384 117.33 92.4384 117.63ZM90.5534 117.63C90.5534 117.9 90.5967 118.105 90.6834 118.245C90.7734 118.382 90.9184 118.45 91.1184 118.45C91.315 118.45 91.4567 118.382 91.5434 118.245C91.6334 118.105 91.6784 117.9 91.6784 117.63C91.6784 117.36 91.6334 117.158 91.5434 117.025C91.4567 116.888 91.3134 116.82 91.1134 116.82C90.9167 116.82 90.7734 116.888 90.6834 117.025C90.5967 117.158 90.5534 117.36 90.5534 117.63ZM96.2591 116.22C96.5691 116.22 96.8024 116.3 96.9591 116.46C97.1191 116.617 97.1991 116.87 97.1991 117.22V119H96.4541V117.405C96.4541 117.012 96.3174 116.815 96.0441 116.815C95.8474 116.815 95.7074 116.885 95.6241 117.025C95.5407 117.165 95.4991 117.367 95.4991 117.63V119H94.7541V117.405C94.7541 117.012 94.6174 116.815 94.3441 116.815C94.1374 116.815 93.9941 116.893 93.9141 117.05C93.8374 117.203 93.7991 117.425 93.7991 117.715V119H93.0541V116.27H93.6241L93.7241 116.62H93.7641C93.8474 116.48 93.9607 116.378 94.1041 116.315C94.2507 116.252 94.4024 116.22 94.5591 116.22C94.7591 116.22 94.9274 116.253 95.0641 116.32C95.2041 116.383 95.3124 116.483 95.3891 116.62H95.4541C95.5374 116.48 95.6524 116.378 95.7991 116.315C95.9491 116.252 96.1024 116.22 96.2591 116.22ZM99.4862 116.22C99.7928 116.22 100.041 116.34 100.231 116.58C100.421 116.817 100.516 117.167 100.516 117.63C100.516 118.097 100.418 118.45 100.221 118.69C100.025 118.93 99.7728 119.05 99.4662 119.05C99.2695 119.05 99.1128 119.015 98.9962 118.945C98.8795 118.872 98.7845 118.79 98.7112 118.7H98.6712C98.6978 118.84 98.7112 118.973 98.7112 119.1V120.2H97.9662V116.27H98.5712L98.6762 116.625H98.7112C98.7845 116.515 98.8828 116.42 99.0062 116.34C99.1295 116.26 99.2895 116.22 99.4862 116.22ZM99.2462 116.815C99.0528 116.815 98.9162 116.877 98.8362 117C98.7562 117.12 98.7145 117.302 98.7112 117.545V117.625C98.7112 117.888 98.7495 118.092 98.8262 118.235C98.9062 118.375 99.0495 118.445 99.2562 118.445C99.4262 118.445 99.5512 118.375 99.6312 118.235C99.7145 118.092 99.7562 117.887 99.7562 117.62C99.7562 117.083 99.5862 116.815 99.2462 116.815ZM102.25 116.215C102.617 116.215 102.897 116.295 103.09 116.455C103.287 116.612 103.385 116.853 103.385 117.18V119H102.865L102.72 118.63H102.7C102.584 118.777 102.46 118.883 102.33 118.95C102.2 119.017 102.022 119.05 101.795 119.05C101.552 119.05 101.35 118.98 101.19 118.84C101.03 118.7 100.95 118.482 100.95 118.185C100.95 117.895 101.052 117.682 101.255 117.545C101.459 117.408 101.764 117.332 102.17 117.315L102.645 117.3V117.18C102.645 117.037 102.607 116.932 102.53 116.865C102.457 116.798 102.354 116.765 102.22 116.765C102.087 116.765 101.957 116.785 101.83 116.825C101.704 116.862 101.577 116.908 101.45 116.965L101.205 116.46C101.349 116.387 101.51 116.328 101.69 116.285C101.87 116.238 102.057 116.215 102.25 116.215ZM102.645 117.735L102.355 117.745C102.115 117.752 101.949 117.795 101.855 117.875C101.762 117.955 101.715 118.06 101.715 118.19C101.715 118.303 101.749 118.385 101.815 118.435C101.882 118.482 101.969 118.505 102.075 118.505C102.235 118.505 102.37 118.458 102.48 118.365C102.59 118.268 102.645 118.133 102.645 117.96V117.735ZM105.698 116.22C105.991 116.22 106.226 116.3 106.403 116.46C106.579 116.617 106.668 116.87 106.668 117.22V119H105.923V117.405C105.923 117.208 105.888 117.062 105.818 116.965C105.748 116.865 105.636 116.815 105.483 116.815C105.256 116.815 105.101 116.893 105.018 117.05C104.934 117.203 104.893 117.425 104.893 117.715V119H104.148V116.27H104.718L104.818 116.62H104.858C104.944 116.48 105.063 116.378 105.213 116.315C105.366 116.252 105.528 116.22 105.698 116.22ZM107.809 115.2C107.919 115.2 108.014 115.227 108.094 115.28C108.174 115.33 108.214 115.425 108.214 115.565C108.214 115.702 108.174 115.797 108.094 115.85C108.014 115.903 107.919 115.93 107.809 115.93C107.696 115.93 107.599 115.903 107.519 115.85C107.442 115.797 107.404 115.702 107.404 115.565C107.404 115.425 107.442 115.33 107.519 115.28C107.599 115.227 107.696 115.2 107.809 115.2ZM108.179 116.27V119H107.434V116.27H108.179ZM111.437 117.63C111.437 118.083 111.317 118.433 111.077 118.68C110.841 118.927 110.517 119.05 110.107 119.05C109.854 119.05 109.627 118.995 109.427 118.885C109.231 118.775 109.076 118.615 108.962 118.405C108.849 118.192 108.792 117.933 108.792 117.63C108.792 117.177 108.911 116.828 109.147 116.585C109.384 116.342 109.709 116.22 110.122 116.22C110.379 116.22 110.606 116.275 110.802 116.385C110.999 116.495 111.154 116.655 111.267 116.865C111.381 117.075 111.437 117.33 111.437 117.63ZM109.552 117.63C109.552 117.9 109.596 118.105 109.682 118.245C109.772 118.382 109.917 118.45 110.117 118.45C110.314 118.45 110.456 118.382 110.542 118.245C110.632 118.105 110.677 117.9 110.677 117.63C110.677 117.36 110.632 117.158 110.542 117.025C110.456 116.888 110.312 116.82 110.112 116.82C109.916 116.82 109.772 116.888 109.682 117.025C109.596 117.158 109.552 117.36 109.552 117.63ZM113.603 116.22C113.896 116.22 114.131 116.3 114.308 116.46C114.485 116.617 114.573 116.87 114.573 117.22V119H113.828V117.405C113.828 117.208 113.793 117.062 113.723 116.965C113.653 116.865 113.541 116.815 113.388 116.815C113.161 116.815 113.006 116.893 112.923 117.05C112.84 117.203 112.798 117.425 112.798 117.715V119H112.053V116.27H112.623L112.723 116.62H112.763C112.85 116.48 112.968 116.378 113.118 116.315C113.271 116.252 113.433 116.22 113.603 116.22ZM118.158 116.22C118.465 116.22 118.713 116.34 118.903 116.58C119.093 116.817 119.188 117.167 119.188 117.63C119.188 118.097 119.09 118.45 118.893 118.69C118.696 118.93 118.445 119.05 118.138 119.05C117.941 119.05 117.785 119.015 117.668 118.945C117.551 118.872 117.456 118.79 117.383 118.7H117.343C117.37 118.84 117.383 118.973 117.383 119.1V120.2H116.638V116.27H117.243L117.348 116.625H117.383C117.456 116.515 117.555 116.42 117.678 116.34C117.801 116.26 117.961 116.22 118.158 116.22ZM117.918 116.815C117.725 116.815 117.588 116.877 117.508 117C117.428 117.12 117.386 117.302 117.383 117.545V117.625C117.383 117.888 117.421 118.092 117.498 118.235C117.578 118.375 117.721 118.445 117.928 118.445C118.098 118.445 118.223 118.375 118.303 118.235C118.386 118.092 118.428 117.887 118.428 117.62C118.428 117.083 118.258 116.815 117.918 116.815ZM120.547 119H119.802V115.2H120.547V119ZM122.446 116.215C122.812 116.215 123.092 116.295 123.286 116.455C123.482 116.612 123.581 116.853 123.581 117.18V119H123.061L122.916 118.63H122.896C122.779 118.777 122.656 118.883 122.526 118.95C122.396 119.017 122.217 119.05 121.991 119.05C121.747 119.05 121.546 118.98 121.386 118.84C121.226 118.7 121.146 118.482 121.146 118.185C121.146 117.895 121.247 117.682 121.451 117.545C121.654 117.408 121.959 117.332 122.366 117.315L122.841 117.3V117.18C122.841 117.037 122.802 116.932 122.726 116.865C122.652 116.798 122.549 116.765 122.416 116.765C122.282 116.765 122.152 116.785 122.026 116.825C121.899 116.862 121.772 116.908 121.646 116.965L121.401 116.46C121.544 116.387 121.706 116.328 121.886 116.285C122.066 116.238 122.252 116.215 122.446 116.215ZM122.841 117.735L122.551 117.745C122.311 117.752 122.144 117.795 122.051 117.875C121.957 117.955 121.911 118.06 121.911 118.19C121.911 118.303 121.944 118.385 122.011 118.435C122.077 118.482 122.164 118.505 122.271 118.505C122.431 118.505 122.566 118.458 122.676 118.365C122.786 118.268 122.841 118.133 122.841 117.96V117.735ZM125.893 116.22C126.186 116.22 126.421 116.3 126.598 116.46C126.775 116.617 126.863 116.87 126.863 117.22V119H126.118V117.405C126.118 117.208 126.083 117.062 126.013 116.965C125.943 116.865 125.831 116.815 125.678 116.815C125.451 116.815 125.296 116.893 125.213 117.05C125.13 117.203 125.088 117.425 125.088 117.715V119H124.343V116.27H124.913L125.013 116.62H125.053C125.14 116.48 125.258 116.378 125.408 116.315C125.561 116.252 125.723 116.22 125.893 116.22ZM128.779 118.455C128.863 118.455 128.943 118.448 129.019 118.435C129.096 118.418 129.173 118.397 129.249 118.37V118.925C129.169 118.962 129.069 118.992 128.949 119.015C128.833 119.038 128.704 119.05 128.564 119.05C128.401 119.05 128.254 119.023 128.124 118.97C127.998 118.917 127.896 118.825 127.819 118.695C127.746 118.565 127.709 118.382 127.709 118.145V116.83H127.354V116.515L127.764 116.265L127.979 115.69H128.454V116.27H129.219V116.83H128.454V118.145C128.454 118.248 128.484 118.327 128.544 118.38C128.604 118.43 128.683 118.455 128.779 118.455Z" fill="#42362D"/>
<defs>
<clipPath id="clip0_1343_14450">
<rect width="116.12" height="116.12" fill="white" transform="translate(29 21)"/>
</clipPath>
<clipPath id="clip1_1343_14450">
<rect width="108.44" height="74.67" fill="white" transform="translate(49)"/>
</clipPath>
</defs>
</svg>
