<svg width="67" height="74" viewBox="0 0 67 74" fill="none" xmlns="http://www.w3.org/2000/svg">
<path d="M65.6257 62.8634C65.6257 62.8634 66 56.2708 66 53.8481C66 51.4254 61.3378 44.5594 60.5912 44.1124C59.8426 43.6653 58.7471 41.0454 58.7471 39.0464C58.7471 37.0473 48.29 24.7796 47.5904 24.0846C46.8927 23.3896 45.2838 21.7868 45.2838 21.7868C45.2838 21.7868 43.7513 21.6131 43.1399 21.291C42.5284 20.9688 42.1424 19.4285 42.1424 19.4285C42.1424 19.4285 38.2915 17.244 37.8545 17.1444C37.4175 17.0449 34.5387 14.8604 34.5387 14.8604C34.5387 14.8604 34.9953 17.8687 33.5 17.8687C32.0047 17.8687 32.4613 14.8604 32.4613 14.8604C32.4613 14.8604 29.5825 17.0449 29.1455 17.1444C28.7085 17.244 24.8576 19.4285 24.8576 19.4285C24.8576 19.4285 24.4716 20.9688 23.8601 21.291C23.2487 21.6131 21.7162 21.7868 21.7162 21.7868L19.4096 24.0846C18.712 24.7796 8.25292 37.0473 8.25292 39.0464C8.25292 41.0454 7.15548 43.6653 6.40883 44.1124C5.66021 44.5594 1 51.4254 1 53.8481C1 56.2708 1.37431 62.8634 1.37431 62.8634C1.37431 62.8634 3.02047 63.41 3.86707 64.2534C4.71563 65.0987 3.41829 66.7874 3.41829 66.7874C3.41829 66.7874 7.2907 71.1838 9.76779 71.1838C12.2449 71.1838 10.4654 72.7397 15.9507 72.7397C21.436 72.7397 26.2549 72.441 26.9193 72.441C27.5836 72.441 33.5 73.1692 33.5 73.1692C33.5 73.1692 39.4164 72.441 40.0807 72.441C40.7451 72.441 45.566 72.7397 51.0493 72.7397C56.5326 72.7397 54.7551 71.1838 57.2322 71.1838C59.7093 71.1838 63.5817 66.7874 63.5817 66.7874C63.5817 66.7874 62.2863 65.0987 63.1329 64.2534C63.9795 63.4081 65.6257 62.8634 65.6257 62.8634Z" fill="#72A474" stroke="#42210B" stroke-miterlimit="10"/>
<path d="M60.4282 59.6875C60.4282 59.6875 60.7426 54.1218 60.7426 52.0765C60.7426 50.0312 56.8352 44.2362 56.2084 43.8581C55.5815 43.48 54.6618 41.2682 54.6618 39.5814C54.6618 37.8947 45.896 27.537 45.3101 26.9512C44.7243 26.3635 43.3769 25.0117 43.3769 25.0117C43.3769 25.0117 42.092 24.8648 41.5804 24.5925C41.0688 24.3201 40.7446 23.0193 40.7446 23.0193C40.7446 23.0193 37.5168 21.1738 37.1496 21.0916C36.7845 21.0073 34.3709 19.1619 34.3709 19.1619C34.3709 19.1619 34.7536 21.7008 33.5 21.7008C32.2463 21.7008 32.629 19.1619 32.629 19.1619C32.629 19.1619 30.2155 21.0073 29.8503 21.0916C29.4851 21.1758 26.2553 23.0193 26.2553 23.0193C26.2553 23.0193 25.9312 24.3182 25.4195 24.5925C24.9079 24.8648 23.623 25.0117 23.623 25.0117L21.6898 26.9512C21.104 27.5389 12.3382 37.8947 12.3382 39.5814C12.3382 41.2682 11.4184 43.48 10.7916 43.8581C10.1648 44.2362 6.25732 50.0312 6.25732 52.0765C6.25732 54.1218 6.57172 59.6875 6.57172 59.6875C6.57172 59.6875 7.95035 60.1479 8.66114 60.861C9.37194 61.5741 8.28427 63.0004 8.28427 63.0004C8.28427 63.0004 11.5297 66.7109 13.6055 66.7109C15.6812 66.7109 14.1913 68.0254 18.788 68.0254C23.3848 68.0254 27.425 67.7747 27.9815 67.7747C28.5381 67.7747 33.498 68.3898 33.498 68.3898C33.498 68.3898 38.458 67.7747 39.0145 67.7747C39.571 67.7747 43.6112 68.0254 48.208 68.0254C52.8047 68.0254 51.3148 66.7109 53.3906 66.7109C55.4663 66.7109 58.7118 63.0004 58.7118 63.0004C58.7118 63.0004 57.626 61.5741 58.3349 60.861C59.0437 60.1479 60.4243 59.6875 60.4243 59.6875H60.4282Z" fill="#FAFFF4" stroke="#42210B" stroke-miterlimit="10"/>
<path d="M25.8531 44.4927C27.1729 44.4927 28.2428 42.9948 28.2428 41.1471C28.2428 39.2994 27.1729 37.8015 25.8531 37.8015C24.5333 37.8015 23.4634 39.2994 23.4634 41.1471C23.4634 42.9948 24.5333 44.4927 25.8531 44.4927Z" fill="#40210F" stroke="#3C2110" stroke-width="0.89" stroke-miterlimit="10"/>
<path d="M25.3748 41.147C25.9027 41.147 26.3307 40.6121 26.3307 39.9522C26.3307 39.2923 25.9027 38.7573 25.3748 38.7573C24.8469 38.7573 24.4189 39.2923 24.4189 39.9522C24.4189 40.6121 24.8469 41.147 25.3748 41.147Z" fill="#F8FFFF" stroke="#3C2110" stroke-width="0.89" stroke-miterlimit="10"/>
<path d="M34.2168 50.2281C34.8767 50.2281 35.4117 49.6931 35.4117 49.0332C35.4117 48.3733 34.8767 47.8384 34.2168 47.8384C33.5569 47.8384 33.022 48.3733 33.022 49.0332C33.022 49.6931 33.5569 50.2281 34.2168 50.2281Z" fill="#40210F" stroke="#3C2110" stroke-width="0.3" stroke-miterlimit="10"/>
<path d="M16.7719 53.0956C19.9394 53.0956 22.5072 52.0257 22.5072 50.7059C22.5072 49.3861 19.9394 48.3162 16.7719 48.3162C13.6044 48.3162 11.0366 49.3861 11.0366 50.7059C11.0366 52.0257 13.6044 53.0956 16.7719 53.0956Z" fill="#DE7474"/>
<path opacity="0.5" d="M19.6399 50.706C20.4318 50.706 21.0737 50.3851 21.0737 49.9891C21.0737 49.5932 20.4318 49.2722 19.6399 49.2722C18.848 49.2722 18.2061 49.5932 18.2061 49.9891C18.2061 50.3851 18.848 50.706 19.6399 50.706Z" fill="#F8FFFF"/>
<path d="M50.706 53.0956C53.8735 53.0956 56.4413 52.0257 56.4413 50.7059C56.4413 49.3861 53.8735 48.3162 50.706 48.3162C47.5385 48.3162 44.9707 49.3861 44.9707 50.7059C44.9707 52.0257 47.5385 53.0956 50.706 53.0956Z" fill="#DE7474"/>
<path opacity="0.5" d="M48.3161 50.706C49.108 50.706 49.75 50.3851 49.75 49.9891C49.75 49.5932 49.108 49.2722 48.3161 49.2722C47.5243 49.2722 46.8823 49.5932 46.8823 49.9891C46.8823 50.3851 47.5243 50.706 48.3161 50.706Z" fill="#F8FFFF"/>
<path d="M29.1987 53.0957C29.1987 54.4731 29.7631 55.8404 30.8535 56.7848C32.7894 58.4623 35.6512 58.1723 37.2447 56.1344C37.941 55.2443 38.2815 54.167 38.2796 53.0957H29.1987Z" fill="#40210F" stroke="#3C2110" stroke-width="1.38" stroke-miterlimit="10"/>
<path d="M43.0587 44.4927C44.3784 44.4927 45.4484 42.9948 45.4484 41.1471C45.4484 39.2994 44.3784 37.8015 43.0587 37.8015C41.7389 37.8015 40.6689 39.2994 40.6689 41.1471C40.6689 42.9948 41.7389 44.4927 43.0587 44.4927Z" fill="#40210F" stroke="#3C2110" stroke-width="0.89" stroke-miterlimit="10"/>
<path d="M42.5809 41.147C43.1088 41.147 43.5368 40.6121 43.5368 39.9522C43.5368 39.2923 43.1088 38.7573 42.5809 38.7573C42.053 38.7573 41.625 39.2923 41.625 39.9522C41.625 40.6121 42.053 41.147 42.5809 41.147Z" fill="#F8FFFF" stroke="#3C2110" stroke-width="0.89" stroke-miterlimit="10"/>
<path d="M30.6296 16.3446C30.6296 16.3446 30.9374 8.37049 24.9413 4.63557C17.8916 0.245147 11.7 0.857429 11.5371 1.32564C11.3742 1.79386 12.1418 2.46377 12.4459 3.74596C12.7501 5.02815 12.9528 15.5846 21.3133 16.8056C29.6737 18.0265 30.626 16.3446 30.626 16.3446H30.6296Z" fill="#72A474" stroke="#42210B" stroke-width="0.65" stroke-miterlimit="10"/>
<path d="M36.3703 17.3004C36.3703 17.3004 36.0626 9.3263 42.0586 5.59138C49.1084 1.20096 55.2999 1.81324 55.4629 2.28145C55.6258 2.74967 54.8582 3.41958 54.5541 4.70177C54.2499 5.98396 54.0471 16.5404 45.6867 17.7614C37.3262 18.9824 36.374 17.3004 36.374 17.3004H36.3703Z" fill="#72A474" stroke="#42210B" stroke-width="0.65" stroke-miterlimit="10"/>
</svg>
