<svg width="20" height="20" viewBox="0 0 20 20" fill="none" xmlns="http://www.w3.org/2000/svg">
<path d="M18 8.22857C18.3313 8.22857 18.6141 8.3625 18.8484 8.63036C19.0828 8.89821 19.2 9.22143 19.2 9.6C19.2 9.97857 19.0828 10.3018 18.8484 10.5696C18.6141 10.8375 18.3313 10.9714 18 10.9714H17.8594L16.7812 18.0643C16.7313 18.3929 16.5938 18.6643 16.3688 18.8786C16.1438 19.0929 15.8875 19.2 15.6 19.2H3.6C3.3125 19.2 3.05625 19.0929 2.83125 18.8786C2.60625 18.6643 2.46875 18.3929 2.41875 18.0643L1.34063 10.9714H1.2C0.86875 10.9714 0.585938 10.8375 0.351562 10.5696C0.117188 10.3018 0 9.97857 0 9.6C0 9.22143 0.117188 8.89821 0.351562 8.63036C0.585938 8.3625 0.86875 8.22857 1.2 8.22857H18ZM4.54688 16.8C4.70938 16.7857 4.84531 16.7054 4.95469 16.5589C5.06406 16.4125 5.1125 16.2464 5.1 16.0607L4.8 11.6036C4.7875 11.4179 4.71719 11.2625 4.58906 11.1375C4.46094 11.0125 4.31563 10.9571 4.15313 10.9714C3.99063 10.9857 3.85469 11.0661 3.74531 11.2125C3.63594 11.3589 3.5875 11.525 3.6 11.7107L3.9 16.1679C3.9125 16.3464 3.97656 16.4964 4.09219 16.6179C4.20781 16.7393 4.34375 16.8 4.5 16.8H4.54688ZM8.4 16.1143V11.6571C8.4 11.4714 8.34063 11.3107 8.22188 11.175C8.10313 11.0393 7.9625 10.9714 7.8 10.9714C7.6375 10.9714 7.49688 11.0393 7.37813 11.175C7.25938 11.3107 7.2 11.4714 7.2 11.6571V16.1143C7.2 16.3 7.25938 16.4607 7.37813 16.5964C7.49688 16.7321 7.6375 16.8 7.8 16.8C7.9625 16.8 8.10313 16.7321 8.22188 16.5964C8.34063 16.4607 8.4 16.3 8.4 16.1143ZM12 16.1143V11.6571C12 11.4714 11.9406 11.3107 11.8219 11.175C11.7031 11.0393 11.5625 10.9714 11.4 10.9714C11.2375 10.9714 11.0969 11.0393 10.9781 11.175C10.8594 11.3107 10.8 11.4714 10.8 11.6571V16.1143C10.8 16.3 10.8594 16.4607 10.9781 16.5964C11.0969 16.7321 11.2375 16.8 11.4 16.8C11.5625 16.8 11.7031 16.7321 11.8219 16.5964C11.9406 16.4607 12 16.3 12 16.1143ZM15.3 16.1679L15.6 11.7107C15.6125 11.525 15.5641 11.3589 15.4547 11.2125C15.3453 11.0661 15.2094 10.9857 15.0469 10.9714C14.8844 10.9571 14.7391 11.0125 14.6109 11.1375C14.4828 11.2625 14.4125 11.4179 14.4 11.6036L14.1 16.0607C14.0875 16.2464 14.1359 16.4125 14.2453 16.5589C14.3547 16.7054 14.4906 16.7857 14.6531 16.8H14.7C14.8563 16.8 14.9922 16.7393 15.1078 16.6179C15.2234 16.4964 15.2875 16.3464 15.3 16.1679ZM4.4625 3.12857L3.59063 7.54286H2.35313L3.3 2.81786C3.41875 2.18929 3.69688 1.67679 4.13438 1.28036C4.57188 0.883929 5.07188 0.685714 5.63438 0.685714H7.2C7.2 0.5 7.25938 0.339286 7.37813 0.203571C7.49688 0.0678571 7.6375 0 7.8 0H11.4C11.5625 0 11.7031 0.0678571 11.8219 0.203571C11.9406 0.339286 12 0.5 12 0.685714H13.5656C14.1281 0.685714 14.6281 0.883929 15.0656 1.28036C15.5031 1.67679 15.7813 2.18929 15.9 2.81786L16.8469 7.54286H15.6094L14.7375 3.12857C14.6688 2.81429 14.5266 2.55714 14.3109 2.35714C14.0953 2.15714 13.8469 2.05714 13.5656 2.05714H12C12 2.24286 11.9406 2.40357 11.8219 2.53929C11.7031 2.675 11.5625 2.74286 11.4 2.74286H7.8C7.6375 2.74286 7.49688 2.675 7.37813 2.53929C7.25938 2.40357 7.2 2.24286 7.2 2.05714H5.63438C5.35313 2.05714 5.10469 2.15714 4.88906 2.35714C4.67344 2.55714 4.53125 2.81429 4.4625 3.12857Z" fill="#DAEACA"/>
</svg>
