<svg width="17" height="16" viewBox="0 0 17 16" fill="none" xmlns="http://www.w3.org/2000/svg">
<path fill-rule="evenodd" clip-rule="evenodd" d="M6.6237 2.14468C6.54838 2.22942 6.5 2.35654 6.5 2.5V3.5H5.5V2.5C5.5 2.14346 5.61828 1.77058 5.8763 1.48032C6.14249 1.18085 6.53099 1 7 1H9C9.46901 1 9.85751 1.18085 10.1237 1.48032C10.3817 1.77058 10.5 2.14346 10.5 2.5V3.5H9.5V2.5C9.5 2.35654 9.45162 2.22942 9.3763 2.14468C9.30915 2.06915 9.19765 2 9 2H7C6.80235 2 6.69084 2.06915 6.6237 2.14468Z" fill="#FF7A7A"/>
<path fill-rule="evenodd" clip-rule="evenodd" d="M14.5 4L1.5 4L1.5 3L14.5 3L14.5 4Z" fill="#FF7A7A"/>
<path d="M3 13.5V3.5H13V13.5C13 13.7452 12.8968 14.0112 12.7304 14.2154C12.5577 14.4274 12.3811 14.5 12.2778 14.5H3.72222C3.44343 14.5 3.28716 14.3745 3.17571 14.1845C3.0493 13.969 3 13.688 3 13.5Z" stroke="#FF7A7A"/>
<rect width="1" height="6" transform="matrix(-1 -8.74228e-08 0.000147677 1 6.5 6)" fill="#FF7A7A"/>
<rect width="1" height="6" transform="matrix(-1 -8.74228e-08 0.000147677 1 8.49902 6)" fill="#FF7A7A"/>
<rect width="1" height="6" transform="matrix(-1 -8.74228e-08 0.000147677 1 10.5 6)" fill="#FF7A7A"/>
</svg>
