<svg width="14" height="14" viewBox="0 0 14 14" fill="none" xmlns="http://www.w3.org/2000/svg">
<mask id="mask0_812_14932" style="mask-type:alpha" maskUnits="userSpaceOnUse" x="0" y="0" width="14" height="14">
<rect width="14" height="14" fill="#D9D9D9"/>
</mask>
<g mask="url(#mask0_812_14932)">
<path d="M6.99935 12.2501L6.15352 11.4917C5.17157 10.607 4.35977 9.84382 3.7181 9.20215C3.07643 8.56048 2.56602 7.98444 2.18685 7.47402C1.80768 6.96361 1.54275 6.49451 1.39206 6.06673C1.24136 5.63895 1.16602 5.20145 1.16602 4.75423C1.16602 3.84034 1.47227 3.07715 2.08477 2.46465C2.69727 1.85215 3.46046 1.5459 4.37435 1.5459C4.8799 1.5459 5.36115 1.65284 5.8181 1.86673C6.27504 2.08062 6.66879 2.38201 6.99935 2.7709C7.32991 2.38201 7.72366 2.08062 8.1806 1.86673C8.63754 1.65284 9.11879 1.5459 9.62435 1.5459C10.5382 1.5459 11.3014 1.85215 11.9139 2.46465C12.5264 3.07715 12.8327 3.84034 12.8327 4.75423C12.8327 5.20145 12.7573 5.63895 12.6066 6.06673C12.4559 6.49451 12.191 6.96361 11.8118 7.47402C11.4327 7.98444 10.9223 8.56048 10.2806 9.20215C9.63893 9.84382 8.82713 10.607 7.84518 11.4917L6.99935 12.2501ZM6.99935 10.6751C7.93268 9.83895 8.70074 9.12194 9.30352 8.52402C9.90629 7.92611 10.3827 7.40597 10.7327 6.96361C11.0827 6.52125 11.3257 6.1275 11.4618 5.78236C11.598 5.43722 11.666 5.09451 11.666 4.75423C11.666 4.1709 11.4716 3.68479 11.0827 3.2959C10.6938 2.90701 10.2077 2.71257 9.62435 2.71257C9.16741 2.71257 8.74449 2.84138 8.3556 3.09902C7.96671 3.35666 7.69935 3.68479 7.55352 4.0834H6.44518C6.29935 3.68479 6.03199 3.35666 5.6431 3.09902C5.25421 2.84138 4.83129 2.71257 4.37435 2.71257C3.79102 2.71257 3.3049 2.90701 2.91602 3.2959C2.52713 3.68479 2.33268 4.1709 2.33268 4.75423C2.33268 5.09451 2.40074 5.43722 2.53685 5.78236C2.67296 6.1275 2.91602 6.52125 3.26602 6.96361C3.61602 7.40597 4.0924 7.92611 4.69518 8.52402C5.29796 9.12194 6.06602 9.83895 6.99935 10.6751Z" fill="#FFC8C8"/>
</g>
</svg>
