<svg width="36" height="35" viewBox="0 0 36 35" fill="none" xmlns="http://www.w3.org/2000/svg">
<path d="M13.3102 23.375C13.3102 23.365 13.3052 23.255 13.2952 23.045C13.2952 22.835 13.2902 22.595 13.2802 22.325C13.2802 22.055 13.2802 21.79 13.2802 21.53C13.2802 21.26 13.2802 21.07 13.2802 20.96C13.1302 20.95 12.9752 20.945 12.8152 20.945C12.6552 20.945 12.5002 20.93 12.3502 20.9C12.2102 20.87 12.0752 20.82 11.9452 20.75C11.8252 20.67 11.7252 20.55 11.6452 20.39C11.5252 20.16 11.5202 19.94 11.6302 19.73C11.7502 19.52 11.9252 19.375 12.1552 19.295C12.3852 19.215 12.6402 19.165 12.9202 19.145C13.2002 19.125 13.4652 19.115 13.7152 19.115C14.1252 19.115 14.6352 19.115 15.2452 19.115C15.8552 19.115 16.4852 19.12 17.1352 19.13C17.7852 19.13 18.4152 19.13 19.0252 19.13C19.6352 19.13 20.1452 19.13 20.5552 19.13C20.7552 19.13 20.9752 19.155 21.2152 19.205C21.4652 19.245 21.6652 19.345 21.8152 19.505C21.8852 19.585 21.9352 19.68 21.9652 19.79C22.0052 19.9 22.0252 20.015 22.0252 20.135C22.0252 20.255 22.0002 20.37 21.9502 20.48C21.9102 20.58 21.8452 20.665 21.7552 20.735C21.7152 20.775 21.6552 20.81 21.5752 20.84C21.3852 20.92 21.1752 20.95 20.9452 20.93C20.7252 20.91 20.5152 20.92 20.3152 20.96C20.3352 21.1 20.3452 21.225 20.3452 21.335C20.3552 21.435 20.3602 21.525 20.3602 21.605V23.345C20.3602 23.335 20.4052 23.335 20.4952 23.345C20.5952 23.355 20.7002 23.37 20.8102 23.39C20.9302 23.4 21.0402 23.415 21.1402 23.435C21.2402 23.455 21.3002 23.465 21.3202 23.465C21.5702 23.505 21.7552 23.57 21.8752 23.66C22.0052 23.74 22.0552 23.93 22.0252 24.23C22.0052 24.48 21.9502 24.665 21.8602 24.785C21.7802 24.895 21.6752 24.975 21.5452 25.025C21.4152 25.065 21.2602 25.085 21.0802 25.085C20.9102 25.075 20.7252 25.07 20.5252 25.07C20.2652 25.08 20.0052 25.085 19.7452 25.085C19.4952 25.075 19.2402 25.07 18.9802 25.07C18.8502 25.07 18.6702 25.07 18.4402 25.07C18.2202 25.07 17.9752 25.07 17.7052 25.07C17.4352 25.07 17.1502 25.07 16.8502 25.07C16.5602 25.07 16.2802 25.07 16.0102 25.07C15.7402 25.07 15.4902 25.075 15.2602 25.085C15.0402 25.085 14.8652 25.085 14.7352 25.085C14.4652 25.085 14.1952 25.085 13.9252 25.085C13.6652 25.085 13.4002 25.08 13.1302 25.07C13.0002 25.07 12.8502 25.06 12.6802 25.04C12.5102 25.02 12.3452 24.98 12.1852 24.92C12.0252 24.86 11.8852 24.78 11.7652 24.68C11.6552 24.57 11.5902 24.43 11.5702 24.26C11.5402 24.03 11.5852 23.86 11.7052 23.75C11.8352 23.63 11.9902 23.545 12.1702 23.495C12.3602 23.445 12.5602 23.42 12.7702 23.42C12.9802 23.41 13.1602 23.395 13.3102 23.375ZM12.7102 28.085C12.4802 28.075 12.2602 28.045 12.0502 27.995C11.8502 27.935 11.6852 27.805 11.5552 27.605C11.4452 27.435 11.3902 27.255 11.3902 27.065C11.4002 26.865 11.4752 26.695 11.6152 26.555C11.6952 26.475 11.7952 26.415 11.9152 26.375C12.0352 26.335 12.1502 26.305 12.2602 26.285C12.3702 26.265 12.4652 26.255 12.5452 26.255C12.6352 26.255 12.6852 26.255 12.6952 26.255H20.8702C21.0302 26.245 21.2002 26.245 21.3802 26.255C21.5702 26.265 21.7452 26.3 21.9052 26.36C22.0652 26.41 22.2002 26.5 22.3102 26.63C22.4202 26.75 22.4752 26.92 22.4752 27.14C22.4752 27.39 22.3902 27.58 22.2202 27.71C22.0502 27.83 21.8452 27.92 21.6052 27.98C21.3752 28.03 21.1352 28.06 20.8852 28.07C20.6352 28.07 20.4302 28.07 20.2702 28.07H19.6852C19.4852 28.08 19.2902 28.085 19.1002 28.085C18.9102 28.075 18.7152 28.07 18.5152 28.07H17.9452C17.9552 28.35 17.9652 28.645 17.9752 28.955C17.9852 29.265 17.9702 29.54 17.9302 29.78C17.9102 29.97 17.8602 30.15 17.7802 30.32C17.7102 30.5 17.5902 30.645 17.4202 30.755C17.2702 30.855 17.0952 30.905 16.8952 30.905C16.6952 30.915 16.5152 30.875 16.3552 30.785C16.2252 30.705 16.1252 30.59 16.0552 30.44C15.9952 30.29 15.9552 30.145 15.9352 30.005C15.9152 29.895 15.9052 29.775 15.9052 29.645C15.9152 29.515 15.9202 29.395 15.9202 29.285C15.9102 29.105 15.9052 28.91 15.9052 28.7C15.9052 28.48 15.9052 28.265 15.9052 28.055H15.5302C15.2502 28.055 14.9952 28.06 14.7652 28.07C14.5452 28.07 14.3302 28.075 14.1202 28.085C13.9102 28.085 13.6902 28.085 13.4602 28.085C13.2402 28.085 12.9902 28.085 12.7102 28.085ZM15.1252 22.91C15.1252 22.94 15.1302 23 15.1402 23.09C15.1602 23.18 15.1902 23.265 15.2302 23.345H18.5152V21.965C18.5152 21.965 18.5152 21.935 18.5152 21.875C18.5152 21.805 18.5102 21.73 18.5002 21.65C18.5002 21.56 18.4952 21.47 18.4852 21.38C18.4852 21.28 18.4802 21.195 18.4702 21.125C18.4702 21.065 18.4552 21.01 18.4252 20.96H15.2002C15.1602 21 15.1352 21.055 15.1252 21.125C15.1052 21.205 15.1002 21.33 15.1102 21.5C15.1202 21.67 15.1302 21.825 15.1402 21.965L15.1252 22.91ZM32.3038 22.445C32.4638 22.455 32.6038 22.495 32.7238 22.565C32.8438 22.625 32.9288 22.74 32.9788 22.91C33.0888 23.3 32.9588 23.57 32.5888 23.72C32.4688 23.77 32.3438 23.8 32.2138 23.81C32.0938 23.82 31.9788 23.825 31.8688 23.825H25.0138C24.8138 23.825 24.6038 23.825 24.3838 23.825C24.1738 23.825 23.9588 23.82 23.7388 23.81C23.5288 23.79 23.3488 23.71 23.1988 23.57C23.0588 23.42 22.9788 23.225 22.9588 22.985C22.9388 22.805 22.9288 22.62 22.9288 22.43C22.9288 22.23 22.9288 22.06 22.9288 21.92C22.9288 21.9 22.9238 21.875 22.9138 21.845C22.9138 21.815 22.9138 21.79 22.9138 21.77C22.9138 21.66 22.9188 21.525 22.9288 21.365C22.9388 21.195 22.9888 21.055 23.0788 20.945C23.2188 20.785 23.4038 20.69 23.6338 20.66C23.8638 20.62 24.0888 20.6 24.3088 20.6H29.8738C30.0538 20.6 30.1938 20.6 30.2938 20.6C30.3938 20.6 30.4838 20.6 30.5638 20.6C30.6438 20.6 30.7238 20.6 30.8038 20.6C30.8838 20.6 30.9838 20.6 31.1038 20.6C31.1038 20.58 31.1038 20.54 31.1038 20.48C31.1138 20.41 31.1188 20.345 31.1188 20.285C31.1288 20.215 31.1338 20.155 31.1338 20.105C31.1338 20.045 31.1238 20.015 31.1038 20.015H24.6838C24.6338 20.015 24.5788 20.015 24.5188 20.015C24.4688 20.005 24.4138 20.005 24.3538 20.015H23.9938C23.8938 20.015 23.8038 20.015 23.7238 20.015C23.6438 20.015 23.5638 20.005 23.4838 19.985C23.3938 19.965 23.3088 19.935 23.2288 19.895C23.1488 19.845 23.0838 19.78 23.0338 19.7C22.9938 19.61 22.9688 19.515 22.9588 19.415C22.9588 19.315 22.9588 19.22 22.9588 19.13C22.9588 19.04 22.9838 18.955 23.0338 18.875C23.0938 18.795 23.1588 18.73 23.2288 18.68C23.3088 18.63 23.3888 18.6 23.4688 18.59C23.5488 18.58 23.6388 18.565 23.7388 18.545C23.8188 18.525 23.8988 18.52 23.9788 18.53C24.0588 18.54 24.1388 18.54 24.2188 18.53C24.3088 18.52 24.3938 18.515 24.4738 18.515C24.5638 18.515 24.6538 18.515 24.7438 18.515C25.0538 18.525 25.4488 18.53 25.9288 18.53C26.4088 18.52 26.8738 18.515 27.3238 18.515H31.4188C31.9288 18.515 32.3188 18.6 32.5888 18.77C32.8588 18.93 32.9938 19.2 32.9938 19.58V20.63C32.9938 20.72 32.9938 20.82 32.9938 20.93C33.0038 21.03 32.9988 21.135 32.9788 21.245C32.9688 21.345 32.9438 21.44 32.9038 21.53C32.8638 21.62 32.7988 21.69 32.7088 21.74C32.5588 21.82 32.3838 21.865 32.1838 21.875C31.9938 21.875 31.8138 21.875 31.6438 21.875H24.7588V22.43H31.8088C31.8888 22.43 31.9688 22.43 32.0488 22.43C32.1388 22.43 32.2238 22.435 32.3038 22.445ZM27.4138 26.72C27.6038 26.59 27.7838 26.51 27.9538 26.48C28.1338 26.45 28.2988 26.445 28.4488 26.465C28.5988 26.485 28.7288 26.525 28.8388 26.585C28.9588 26.635 29.0438 26.68 29.0938 26.72L30.5638 27.665C30.9338 27.925 31.2738 28.165 31.5838 28.385C31.9038 28.605 32.2388 28.855 32.5888 29.135C32.7088 29.235 32.8388 29.34 32.9788 29.45C33.1288 29.57 33.2188 29.715 33.2488 29.885C33.2788 30.025 33.2688 30.165 33.2188 30.305C33.1688 30.445 33.0888 30.56 32.9788 30.65C32.8088 30.79 32.6438 30.85 32.4838 30.83C32.3238 30.81 32.1538 30.76 31.9738 30.68L28.9588 28.88C28.8388 28.81 28.7238 28.75 28.6138 28.7C28.5138 28.64 28.3838 28.595 28.2238 28.565C28.0838 28.575 27.9588 28.605 27.8488 28.655C27.7488 28.705 27.6488 28.77 27.5488 28.85C27.3488 28.98 27.1388 29.12 26.9188 29.27C26.6988 29.42 26.4788 29.565 26.2588 29.705C26.0488 29.855 25.8438 29.99 25.6438 30.11C25.4538 30.24 25.2838 30.34 25.1338 30.41C25.0238 30.47 24.8988 30.53 24.7588 30.59C24.6188 30.65 24.4788 30.695 24.3388 30.725C24.1988 30.765 24.0538 30.78 23.9038 30.77C23.7638 30.77 23.6338 30.74 23.5138 30.68C23.3538 30.6 23.2388 30.48 23.1688 30.32C23.0988 30.16 23.0888 29.995 23.1388 29.825C23.1888 29.655 23.2988 29.515 23.4688 29.405C23.6488 29.295 23.7988 29.19 23.9188 29.09C24.2988 28.8 24.6538 28.545 24.9838 28.325C25.3238 28.095 25.6888 27.84 26.0788 27.56C26.2488 27.43 26.4388 27.31 26.6488 27.2C26.8688 27.08 27.1238 26.92 27.4138 26.72ZM31.9588 24.365C32.1288 24.365 32.3088 24.365 32.4988 24.365C32.6988 24.355 32.8788 24.375 33.0388 24.425C33.2088 24.465 33.3438 24.55 33.4438 24.68C33.5538 24.81 33.6088 25.01 33.6088 25.28C33.6088 25.52 33.5088 25.73 33.3088 25.91C33.1488 26.05 32.9538 26.13 32.7238 26.15C32.5038 26.16 32.2938 26.16 32.0938 26.15C32.0438 26.14 31.9988 26.135 31.9588 26.135C31.9188 26.135 31.8738 26.135 31.8238 26.135H23.5588C23.5488 26.135 23.5038 26.135 23.4238 26.135C23.3438 26.135 23.2488 26.125 23.1388 26.105C23.0388 26.085 22.9338 26.06 22.8238 26.03C22.7138 25.99 22.6238 25.93 22.5538 25.85C22.4338 25.72 22.3738 25.545 22.3738 25.325C22.3738 25.115 22.4388 24.945 22.5688 24.815C22.6988 24.695 22.8338 24.595 22.9738 24.515C23.1138 24.435 23.2588 24.385 23.4088 24.365C23.4388 24.365 23.4688 24.37 23.4988 24.38C23.5288 24.38 23.5588 24.375 23.5888 24.365C23.7288 24.345 23.8788 24.345 24.0388 24.365C24.1988 24.375 24.3638 24.375 24.5338 24.365C25.0538 24.345 25.5788 24.34 26.1088 24.35C26.6488 24.36 27.2088 24.365 27.7888 24.365C28.4188 24.365 29.0888 24.36 29.7988 24.35C30.5088 24.34 31.2038 24.345 31.8838 24.365H31.9588Z" fill="#72A474"/>
<path d="M3.99944 3.77712C3.99944 3.77712 4.06384 1.81427 2.80928 0.89491C1.33426 -0.18581 0.0387863 -0.0350945 0.00469494 0.0801586C-0.0293964 0.195412 0.131212 0.360312 0.194849 0.675929C0.258486 0.991545 0.300911 3.59006 2.05018 3.8906C3.79944 4.19115 3.99868 3.77712 3.99868 3.77712H3.99944Z" fill="#B7C675"/>
<path d="M32.0006 15.7771C32.0006 15.7771 31.9362 13.8143 33.1907 12.8949C34.6657 11.8142 35.9612 11.9649 35.9953 12.0802C36.0294 12.1954 35.8688 12.3603 35.8052 12.6759C35.7415 12.9915 35.6991 15.5901 33.9498 15.8906C32.2006 16.1911 32.0013 15.7771 32.0013 15.7771H32.0006Z" fill="#B7C675"/>
<path d="M5.71879 8.5C5.71879 8.492 5.71479 8.404 5.70679 8.236C5.70679 8.068 5.70279 7.876 5.69479 7.66C5.69479 7.444 5.69479 7.232 5.69479 7.024C5.69479 6.808 5.69479 6.656 5.69479 6.568C5.57479 6.56 5.45079 6.556 5.32279 6.556C5.19479 6.556 5.07079 6.544 4.95079 6.52C4.83879 6.496 4.73079 6.456 4.62679 6.4C4.53079 6.336 4.45079 6.24 4.38679 6.112C4.29079 5.928 4.28679 5.752 4.37479 5.584C4.47079 5.416 4.61079 5.3 4.79479 5.236C4.97879 5.172 5.18279 5.132 5.40679 5.116C5.63079 5.1 5.84279 5.092 6.04279 5.092C6.37079 5.092 6.77879 5.092 7.26679 5.092C7.75479 5.092 8.25879 5.096 8.77879 5.104C9.29879 5.104 9.80279 5.104 10.2908 5.104C10.7788 5.104 11.1868 5.104 11.5148 5.104C11.6748 5.104 11.8508 5.124 12.0428 5.164C12.2428 5.196 12.4028 5.276 12.5228 5.404C12.5788 5.468 12.6188 5.544 12.6428 5.632C12.6748 5.72 12.6908 5.812 12.6908 5.908C12.6908 6.004 12.6708 6.096 12.6308 6.184C12.5988 6.264 12.5468 6.332 12.4748 6.388C12.4428 6.42 12.3948 6.448 12.3308 6.472C12.1788 6.536 12.0108 6.56 11.8268 6.544C11.6508 6.528 11.4828 6.536 11.3228 6.568C11.3388 6.68 11.3468 6.78 11.3468 6.868C11.3548 6.948 11.3588 7.02 11.3588 7.084V8.476C11.3588 8.468 11.3948 8.468 11.4668 8.476C11.5468 8.484 11.6308 8.496 11.7188 8.512C11.8148 8.52 11.9028 8.532 11.9828 8.548C12.0628 8.564 12.1108 8.572 12.1268 8.572C12.3268 8.604 12.4748 8.656 12.5708 8.728C12.6748 8.792 12.7148 8.944 12.6908 9.184C12.6748 9.384 12.6308 9.532 12.5588 9.628C12.4948 9.716 12.4108 9.78 12.3068 9.82C12.2028 9.852 12.0788 9.868 11.9348 9.868C11.7988 9.86 11.6508 9.856 11.4908 9.856C11.2828 9.864 11.0748 9.868 10.8668 9.868C10.6668 9.86 10.4628 9.856 10.2548 9.856C10.1508 9.856 10.0068 9.856 9.82279 9.856C9.64679 9.856 9.45079 9.856 9.23479 9.856C9.01879 9.856 8.79079 9.856 8.55079 9.856C8.31879 9.856 8.09479 9.856 7.87879 9.856C7.66279 9.856 7.46279 9.86 7.27879 9.868C7.10279 9.868 6.96279 9.868 6.85879 9.868C6.64279 9.868 6.42679 9.868 6.21079 9.868C6.00279 9.868 5.79079 9.864 5.57479 9.856C5.47079 9.856 5.35079 9.848 5.21479 9.832C5.07879 9.816 4.94679 9.784 4.81879 9.736C4.69079 9.688 4.57879 9.624 4.48279 9.544C4.39479 9.456 4.34279 9.344 4.32679 9.208C4.30279 9.024 4.33879 8.888 4.43479 8.8C4.53879 8.704 4.66279 8.636 4.80679 8.596C4.95879 8.556 5.11879 8.536 5.28679 8.536C5.45479 8.528 5.59879 8.516 5.71879 8.5ZM5.23879 12.268C5.05479 12.26 4.87879 12.236 4.71079 12.196C4.55079 12.148 4.41879 12.044 4.31479 11.884C4.22679 11.748 4.18279 11.604 4.18279 11.452C4.19079 11.292 4.25079 11.156 4.36279 11.044C4.42679 10.98 4.50679 10.932 4.60279 10.9C4.69879 10.868 4.79079 10.844 4.87879 10.828C4.96679 10.812 5.04279 10.804 5.10679 10.804C5.17879 10.804 5.21879 10.804 5.22679 10.804H11.7668C11.8948 10.796 12.0308 10.796 12.1748 10.804C12.3268 10.812 12.4668 10.84 12.5948 10.888C12.7228 10.928 12.8308 11 12.9188 11.104C13.0068 11.2 13.0508 11.336 13.0508 11.512C13.0508 11.712 12.9828 11.864 12.8468 11.968C12.7108 12.064 12.5468 12.136 12.3548 12.184C12.1708 12.224 11.9788 12.248 11.7788 12.256C11.5788 12.256 11.4148 12.256 11.2868 12.256H10.8188C10.6588 12.264 10.5028 12.268 10.3508 12.268C10.1988 12.26 10.0428 12.256 9.88279 12.256H9.42679C9.43479 12.48 9.44279 12.716 9.45079 12.964C9.45879 13.212 9.44679 13.432 9.41479 13.624C9.39879 13.776 9.35879 13.92 9.29479 14.056C9.23879 14.2 9.14279 14.316 9.00679 14.404C8.88679 14.484 8.74679 14.524 8.58679 14.524C8.42679 14.532 8.28279 14.5 8.15479 14.428C8.05079 14.364 7.97079 14.272 7.91479 14.152C7.86679 14.032 7.83479 13.916 7.81879 13.804C7.80279 13.716 7.79479 13.62 7.79479 13.516C7.80279 13.412 7.80679 13.316 7.80679 13.228C7.79879 13.084 7.79479 12.928 7.79479 12.76C7.79479 12.584 7.79479 12.412 7.79479 12.244H7.49479C7.27079 12.244 7.06679 12.248 6.88279 12.256C6.70679 12.256 6.53479 12.26 6.36679 12.268C6.19879 12.268 6.02279 12.268 5.83879 12.268C5.66279 12.268 5.46279 12.268 5.23879 12.268ZM7.17079 8.128C7.17079 8.152 7.17479 8.2 7.18279 8.272C7.19879 8.344 7.22279 8.412 7.25479 8.476H9.88279V7.372C9.88279 7.372 9.88279 7.348 9.88279 7.3C9.88279 7.244 9.87879 7.184 9.87079 7.12C9.87079 7.048 9.86679 6.976 9.85879 6.904C9.85879 6.824 9.85479 6.756 9.84679 6.7C9.84679 6.652 9.83479 6.608 9.81079 6.568H7.23079C7.19879 6.6 7.17879 6.644 7.17079 6.7C7.15479 6.764 7.15079 6.864 7.15879 7C7.16679 7.136 7.17479 7.26 7.18279 7.372L7.17079 8.128ZM20.7725 7.756C20.9005 7.764 21.0125 7.796 21.1085 7.852C21.2045 7.9 21.2725 7.992 21.3125 8.128C21.4005 8.44 21.2965 8.656 21.0005 8.776C20.9045 8.816 20.8045 8.84 20.7005 8.848C20.6045 8.856 20.5125 8.86 20.4245 8.86H14.9405C14.7805 8.86 14.6125 8.86 14.4365 8.86C14.2685 8.86 14.0965 8.856 13.9205 8.848C13.7525 8.832 13.6085 8.768 13.4885 8.656C13.3765 8.536 13.3125 8.38 13.2965 8.188C13.2805 8.044 13.2725 7.896 13.2725 7.744C13.2725 7.584 13.2725 7.448 13.2725 7.336C13.2725 7.32 13.2685 7.3 13.2605 7.276C13.2605 7.252 13.2605 7.232 13.2605 7.216C13.2605 7.128 13.2645 7.02 13.2725 6.892C13.2805 6.756 13.3205 6.644 13.3925 6.556C13.5045 6.428 13.6525 6.352 13.8365 6.328C14.0205 6.296 14.2005 6.28 14.3765 6.28H18.8285C18.9725 6.28 19.0845 6.28 19.1645 6.28C19.2445 6.28 19.3165 6.28 19.3805 6.28C19.4445 6.28 19.5085 6.28 19.5725 6.28C19.6365 6.28 19.7165 6.28 19.8125 6.28C19.8125 6.264 19.8125 6.232 19.8125 6.184C19.8205 6.128 19.8245 6.076 19.8245 6.028C19.8325 5.972 19.8365 5.924 19.8365 5.884C19.8365 5.836 19.8285 5.812 19.8125 5.812H14.6765C14.6365 5.812 14.5925 5.812 14.5445 5.812C14.5045 5.804 14.4605 5.804 14.4125 5.812H14.1245C14.0445 5.812 13.9725 5.812 13.9085 5.812C13.8445 5.812 13.7805 5.804 13.7165 5.788C13.6445 5.772 13.5765 5.748 13.5125 5.716C13.4485 5.676 13.3965 5.624 13.3565 5.56C13.3245 5.488 13.3045 5.412 13.2965 5.332C13.2965 5.252 13.2965 5.176 13.2965 5.104C13.2965 5.032 13.3165 4.964 13.3565 4.9C13.4045 4.836 13.4565 4.784 13.5125 4.744C13.5765 4.704 13.6405 4.68 13.7045 4.672C13.7685 4.664 13.8405 4.652 13.9205 4.636C13.9845 4.62 14.0485 4.616 14.1125 4.624C14.1765 4.632 14.2405 4.632 14.3045 4.624C14.3765 4.616 14.4445 4.612 14.5085 4.612C14.5805 4.612 14.6525 4.612 14.7245 4.612C14.9725 4.62 15.2885 4.624 15.6725 4.624C16.0565 4.616 16.4285 4.612 16.7885 4.612H20.0645C20.4725 4.612 20.7845 4.68 21.0005 4.816C21.2165 4.944 21.3245 5.16 21.3245 5.464V6.304C21.3245 6.376 21.3245 6.456 21.3245 6.544C21.3325 6.624 21.3285 6.708 21.3125 6.796C21.3045 6.876 21.2845 6.952 21.2525 7.024C21.2205 7.096 21.1685 7.152 21.0965 7.192C20.9765 7.256 20.8365 7.292 20.6765 7.3C20.5245 7.3 20.3805 7.3 20.2445 7.3H14.7365V7.744H20.3765C20.4405 7.744 20.5045 7.744 20.5685 7.744C20.6405 7.744 20.7085 7.748 20.7725 7.756ZM16.8605 11.176C17.0125 11.072 17.1565 11.008 17.2925 10.984C17.4365 10.96 17.5685 10.956 17.6885 10.972C17.8085 10.988 17.9125 11.02 18.0005 11.068C18.0965 11.108 18.1645 11.144 18.2045 11.176L19.3805 11.932C19.6765 12.14 19.9485 12.332 20.1965 12.508C20.4525 12.684 20.7205 12.884 21.0005 13.108C21.0965 13.188 21.2005 13.272 21.3125 13.36C21.4325 13.456 21.5045 13.572 21.5285 13.708C21.5525 13.82 21.5445 13.932 21.5045 14.044C21.4645 14.156 21.4005 14.248 21.3125 14.32C21.1765 14.432 21.0445 14.48 20.9165 14.464C20.7885 14.448 20.6525 14.408 20.5085 14.344L18.0965 12.904C18.0005 12.848 17.9085 12.8 17.8205 12.76C17.7405 12.712 17.6365 12.676 17.5085 12.652C17.3965 12.66 17.2965 12.684 17.2085 12.724C17.1285 12.764 17.0485 12.816 16.9685 12.88C16.8085 12.984 16.6405 13.096 16.4645 13.216C16.2885 13.336 16.1125 13.452 15.9365 13.564C15.7685 13.684 15.6045 13.792 15.4445 13.888C15.2925 13.992 15.1565 14.072 15.0365 14.128C14.9485 14.176 14.8485 14.224 14.7365 14.272C14.6245 14.32 14.5125 14.356 14.4005 14.38C14.2885 14.412 14.1725 14.424 14.0525 14.416C13.9405 14.416 13.8365 14.392 13.7405 14.344C13.6125 14.28 13.5205 14.184 13.4645 14.056C13.4085 13.928 13.4005 13.796 13.4405 13.66C13.4805 13.524 13.5685 13.412 13.7045 13.324C13.8485 13.236 13.9685 13.152 14.0645 13.072C14.3685 12.84 14.6525 12.636 14.9165 12.46C15.1885 12.276 15.4805 12.072 15.7925 11.848C15.9285 11.744 16.0805 11.648 16.2485 11.56C16.4245 11.464 16.6285 11.336 16.8605 11.176ZM20.4965 9.292C20.6325 9.292 20.7765 9.292 20.9285 9.292C21.0885 9.284 21.2325 9.3 21.3605 9.34C21.4965 9.372 21.6045 9.44 21.6845 9.544C21.7725 9.648 21.8165 9.808 21.8165 10.024C21.8165 10.216 21.7365 10.384 21.5765 10.528C21.4485 10.64 21.2925 10.704 21.1085 10.72C20.9325 10.728 20.7645 10.728 20.6045 10.72C20.5645 10.712 20.5285 10.708 20.4965 10.708C20.4645 10.708 20.4285 10.708 20.3885 10.708H13.7765C13.7685 10.708 13.7325 10.708 13.6685 10.708C13.6045 10.708 13.5285 10.7 13.4405 10.684C13.3605 10.668 13.2765 10.648 13.1885 10.624C13.1005 10.592 13.0285 10.544 12.9725 10.48C12.8765 10.376 12.8285 10.236 12.8285 10.06C12.8285 9.892 12.8805 9.756 12.9845 9.652C13.0885 9.556 13.1965 9.476 13.3085 9.412C13.4205 9.348 13.5365 9.308 13.6565 9.292C13.6805 9.292 13.7045 9.296 13.7285 9.304C13.7525 9.304 13.7765 9.3 13.8005 9.292C13.9125 9.276 14.0325 9.276 14.1605 9.292C14.2885 9.3 14.4205 9.3 14.5565 9.292C14.9725 9.276 15.3925 9.272 15.8165 9.28C16.2485 9.288 16.6965 9.292 17.1605 9.292C17.6645 9.292 18.2005 9.288 18.7685 9.28C19.3365 9.272 19.8925 9.276 20.4365 9.292H20.4965Z" fill="#72A474"/>
</svg>
