<svg width="96" height="54" viewBox="0 0 96 54" fill="none" xmlns="http://www.w3.org/2000/svg">
<path d="M13.8052 26.5073L0.57666 31.041L5.9094 37.9294L3.86556 47.3459L17.0941 42.8122L14.4144 29.5275C15.8491 29.0358 16.8761 27.96 16.7081 27.1269C16.5401 26.2939 15.2399 26.0156 13.8052 26.5073Z" fill="#FEB625"/>
<path d="M14.4146 29.5243L11.4429 30.5434C10.0081 31.0354 8.98096 32.1115 9.14891 32.9446C9.31686 33.7777 10.617 34.0557 12.0517 33.5637L17.6232 31.653L16.7099 27.1226C16.8779 27.9557 15.8508 29.0318 14.416 29.5238L14.4146 29.5243Z" fill="#FCAF17"/>
<path d="M77.6392 4.61388L90.8672 0.0775461L88.8226 9.4951L94.1543 16.3831L80.9263 20.9194L78.2481 7.63417C76.8134 8.12616 75.5134 7.84814 75.3454 7.01503C75.1775 6.18191 76.2045 5.10587 77.6392 4.61388Z" fill="#FEB625"/>
<path d="M78.2475 7.63375L81.2192 6.61464C82.654 6.1226 83.9541 6.40059 84.122 7.23371C84.29 8.06683 83.2628 9.14291 81.8281 9.63494L76.2566 11.5456L75.3433 7.01514C75.5112 7.84825 76.8113 8.12625 78.2461 7.63421L78.2475 7.63375Z" fill="#FCAF17"/>
<path d="M81.4862 8.42981L11.8886 32.8688C10.4576 33.3713 9.14725 33.063 8.96289 32.1821L12.5711 49.4218C12.7555 50.3027 14.0659 50.611 15.4968 50.1085L85.0931 25.67C86.5241 25.1675 87.5348 24.0442 87.3505 23.1633L83.7422 5.92361C83.9266 6.80446 82.9158 7.9278 81.4849 8.43029L81.4862 8.42981Z" fill="#FEAA00"/>
<path d="M90.2035 31.6122C89.7553 29.6251 88.3086 28.4867 86.9709 29.0703C87.419 31.0574 88.8657 32.1958 90.2035 31.6122Z" fill="#A5D6A7"/>
<path d="M86.9825 35.53C87.6126 33.7135 87.0987 31.4357 85.8363 30.4426C85.2062 32.2591 85.72 34.537 86.9825 35.53Z" fill="#A5D6A7"/>
<path d="M82.7294 34.8485C84.0672 34.2649 84.7888 32.1826 84.3406 30.1955C83.0028 30.7791 82.2812 32.8614 82.7294 34.8485Z" fill="#A5D6A7"/>
<path d="M28.9713 23.6341C29.2785 25.6706 30.6427 27.0184 32.0194 26.6437C31.7122 24.6072 30.348 23.2594 28.9713 23.6341Z" fill="#A5D6A7"/>
<path d="M32.4646 20.2448C31.7074 21.9501 32.0596 24.2837 33.2495 25.4596C34.0067 23.7543 33.6545 21.4207 32.4646 20.2448Z" fill="#A5D6A7"/>
<path d="M36.6617 21.5661C35.2849 21.9408 34.4174 23.894 34.7247 25.9305C36.1014 25.5558 36.9689 23.6026 36.6617 21.5661Z" fill="#A5D6A7"/>
<path d="M7.08688 38.0658C7.13491 38.3555 7.01493 38.6364 6.82054 38.6956C6.62615 38.7549 6.42871 38.5686 6.38102 38.281C6.33333 37.9934 6.45298 37.7105 6.64737 37.6512C6.84175 37.5919 7.03919 37.7782 7.08688 38.0658Z" fill="#FEB625"/>
<path d="M6.54614 27.8674C6.91618 27.7546 7.14257 27.2193 7.05178 26.6717C6.961 26.1242 6.58743 25.7718 6.21738 25.8846C5.84734 25.9974 5.62096 26.5327 5.71174 27.0803C5.80253 27.6278 6.1761 27.9802 6.54614 27.8674Z" fill="#FEB625"/>
<path d="M10.1497 24.1012C10.3964 24.026 10.5474 23.6691 10.4868 23.3041C10.4263 22.9391 10.1773 22.7041 9.93057 22.7793C9.68387 22.8546 9.53295 23.2114 9.59347 23.5765C9.654 23.9415 9.90304 24.1764 10.1497 24.1012Z" fill="#FEB625"/>
<path d="M21.3853 24.112C21.477 24.6648 21.2484 25.2081 20.8734 25.3225C20.4984 25.4368 20.1207 25.0805 20.0287 24.5256C19.9367 23.9708 20.1656 23.4295 20.5406 23.3152C20.9156 23.2008 21.2933 23.5572 21.3853 24.112Z" fill="#FEB625"/>
<path d="M21.7882 30.1986C22.1065 30.1016 22.3012 29.6412 22.2231 29.1702C22.145 28.6993 21.8237 28.3962 21.5055 28.4933C21.1872 28.5903 20.9925 29.0507 21.0706 29.5216C21.1487 29.9926 21.47 30.2957 21.7882 30.1986Z" fill="#FEB625"/>
<path d="M18.4742 22.9701C18.5459 23.4025 18.3666 23.8237 18.0757 23.9123C17.7848 24.001 17.4895 23.7225 17.4181 23.292C17.3467 22.8616 17.5257 22.4384 17.8166 22.3498C18.1075 22.2611 18.4028 22.5396 18.4742 22.9701Z" fill="#FEB625"/>
<path d="M93.0499 22.9152C93.1338 23.4211 92.9243 23.9136 92.5838 24.0174C92.2432 24.1212 91.8982 23.7957 91.8146 23.2918C91.7311 22.788 91.9402 22.2934 92.2807 22.1896C92.6212 22.0858 92.9663 22.4113 93.0499 22.9152Z" fill="#FEB625"/>
<path d="M92.9206 27.8619C92.9713 28.1678 92.8444 28.468 92.6376 28.531C92.4308 28.5941 92.2213 28.3965 92.1706 28.0905C92.1199 27.7845 92.2468 27.4844 92.4536 27.4213C92.6604 27.3583 92.8699 27.5559 92.9206 27.8619Z" fill="#FEB625"/>
<path d="M78.0327 9.43207C78.0821 9.7299 77.9583 10.0227 77.757 10.084C77.5557 10.1454 77.3514 9.95267 77.302 9.65484C77.2527 9.35701 77.3765 9.06424 77.5777 9.00287C77.779 8.94151 77.9833 9.13424 78.0327 9.43207Z" fill="#FEB625"/>
<path d="M85.1753 2.96168C85.2369 3.33295 85.0829 3.69707 84.832 3.77357C84.5811 3.85007 84.327 3.61036 84.2654 3.2391C84.2039 2.86783 84.3578 2.50371 84.6088 2.42721C84.8597 2.35071 85.1138 2.59042 85.1753 2.96168Z" fill="#FEB625"/>
<path d="M32.7644 40.2502L29.9921 32.3209L31.7139 31.7189L35.9984 35.8651L36.732 29.9644L38.4538 29.3624L41.2262 37.2917L39.7762 37.7987L37.8633 32.3274L37.1713 37.4382L36.0272 37.8382L32.3015 34.272L34.2144 39.7433L32.7644 40.2502ZM40.903 30.1205C40.6387 30.213 40.392 30.2102 40.1629 30.1124C39.9413 30.0119 39.7882 29.8408 39.7038 29.5991C39.6193 29.3575 39.6337 29.1321 39.747 28.923C39.8653 28.7037 40.0565 28.5478 40.3208 28.4554C40.5852 28.363 40.8281 28.367 41.0497 28.4675C41.2762 28.5578 41.4317 28.7238 41.5162 28.9655C41.6007 29.2071 41.5838 29.4376 41.4655 29.6569C41.3548 29.8736 41.1673 30.0281 40.903 30.1205ZM42.4474 36.8647L40.483 31.2462L41.933 30.7393L43.8973 36.3578L42.4474 36.8647ZM47.4406 35.2715C46.9422 35.4458 46.4765 35.5196 46.0434 35.4931C45.6077 35.4589 45.2265 35.338 44.8996 35.1302C44.5727 34.9225 44.3206 34.6377 44.1433 34.276L45.6045 33.7651C45.7264 33.9682 45.9132 34.1148 46.165 34.2047C46.4217 34.2845 46.7087 34.2689 47.0259 34.158C47.343 34.0471 47.5509 33.9024 47.6495 33.7239C47.7557 33.5427 47.7797 33.369 47.7216 33.2029C47.6371 32.9612 47.4746 32.8358 47.2341 32.8267C46.991 32.81 46.6661 32.8261 46.2595 32.8751C45.9993 32.9067 45.7315 32.9283 45.4559 32.9399C45.1803 32.9515 44.9169 32.9377 44.6659 32.8983C44.4197 32.8488 44.2008 32.7558 44.009 32.6195C43.8146 32.4756 43.6699 32.2677 43.5749 31.9958C43.4006 31.4974 43.4504 31.0096 43.7243 30.5325C44.0057 30.0527 44.5051 29.6874 45.2226 29.4366C45.8871 29.2043 46.4699 29.1743 46.9708 29.3466C47.4793 29.5163 47.8664 29.8598 48.132 30.3771L46.7613 30.8563C46.5331 30.47 46.147 30.3719 45.6033 30.562C45.3315 30.6571 45.1385 30.7838 45.0244 30.9424C44.9179 31.0983 44.8924 31.2555 44.9478 31.4141C45.0059 31.5802 45.1616 31.6741 45.4149 31.6957C45.6683 31.7173 45.9907 31.7063 46.3822 31.6626C46.8066 31.6159 47.2009 31.5925 47.5653 31.5922C47.9345 31.5818 48.2556 31.6517 48.5285 31.8021C48.7988 31.9449 49.0039 32.2164 49.1438 32.6166C49.2728 32.9614 49.2918 33.3065 49.2007 33.6519C49.1096 33.9973 48.9143 34.3114 48.6148 34.594C48.3153 34.8767 47.9239 35.1025 47.4406 35.2715ZM53.0522 33.3095C52.5538 33.4838 52.088 33.5577 51.655 33.5311C51.2193 33.497 50.8381 33.376 50.5112 33.1683C50.1843 32.9605 49.9322 32.6758 49.7549 32.314L51.2161 31.8031C51.338 32.0063 51.5248 32.1528 51.7766 32.2428C52.0333 32.3225 52.3203 32.3069 52.6374 32.196C52.9546 32.0851 53.1625 31.9404 53.2611 31.7619C53.3672 31.5807 53.3913 31.407 53.3332 31.2409C53.2487 30.9992 53.0862 30.8738 52.8457 30.8647C52.6026 30.848 52.2777 30.8641 51.8711 30.9131C51.6109 30.9447 51.3431 30.9663 51.0675 30.9779C50.7918 30.9896 50.5285 30.9757 50.2775 30.9363C50.0313 30.8868 49.8124 30.7938 49.6206 30.6575C49.4262 30.5136 49.2815 30.3057 49.1865 30.0338C49.0122 29.5354 49.062 29.0477 49.3359 28.5705C49.6173 28.0908 50.1167 27.7255 50.8342 27.4746C51.4987 27.2423 52.0815 27.2123 52.5824 27.3846C53.0909 27.5543 53.478 27.8978 53.7436 28.4151L52.3729 28.8943C52.1446 28.508 51.7586 28.4099 51.2149 28.6C50.9431 28.6951 50.7501 28.8219 50.636 28.9804C50.5295 29.1363 50.504 29.2935 50.5594 29.4521C50.6175 29.6183 50.7732 29.7121 51.0265 29.7337C51.2798 29.7553 51.6023 29.7443 51.9938 29.7006C52.4182 29.654 52.8125 29.6305 53.1769 29.6302C53.5461 29.6198 53.8672 29.6897 54.1401 29.8401C54.4104 29.9829 54.6155 30.2544 54.7554 30.6547C54.8844 30.9994 54.9034 31.3445 54.8123 31.6899C54.7212 32.0353 54.5259 32.3494 54.2264 32.6321C53.9269 32.9147 53.5355 33.1406 53.0522 33.3095ZM54.8063 25.2595C54.542 25.352 54.2953 25.3492 54.0662 25.2514C53.8446 25.1509 53.6916 24.9798 53.6071 24.7381C53.5226 24.4965 53.537 24.2711 53.6503 24.062C53.7686 23.8427 53.9598 23.6868 54.2242 23.5944C54.4885 23.502 54.7314 23.506 54.953 23.6065C55.1795 23.6968 55.335 23.8628 55.4195 24.1045C55.504 24.3461 55.4871 24.5766 55.3689 24.7959C55.2582 25.0126 55.0707 25.1671 54.8063 25.2595ZM56.3507 32.0037L54.3863 26.3852L55.8363 25.8783L57.8007 31.4968L56.3507 32.0037ZM61.7177 30.2798C61.174 30.4699 60.6396 30.5169 60.1144 30.4209C59.5969 30.3222 59.1331 30.0987 58.7232 29.7505C58.3182 29.392 58.0141 28.9221 57.8108 28.3406C57.6075 27.7591 57.5576 27.2045 57.6613 26.6767C57.7622 26.1414 57.9844 25.6739 58.3277 25.2742C58.6786 24.8718 59.1259 24.5756 59.6696 24.3855C60.2058 24.198 60.7327 24.1537 61.2502 24.2524C61.7754 24.3484 62.2404 24.5757 62.6454 24.9341C63.0553 25.2823 63.3619 25.7472 63.5652 26.3287C63.7685 26.9102 63.8197 27.4686 63.7187 28.0039C63.6226 28.529 63.3992 28.9928 63.0483 29.3951C62.6974 29.7975 62.2539 30.0924 61.7177 30.2798ZM61.2781 29.0225C61.6557 28.8904 61.9353 28.6359 62.1171 28.2588C62.2962 27.8741 62.288 27.4024 62.0926 26.8435C61.8972 26.2847 61.611 25.9144 61.2339 25.7327C60.8541 25.5434 60.4792 25.5135 60.1092 25.6429C59.7241 25.7775 59.442 26.0372 59.2629 26.4218C59.0887 26.7963 59.0993 27.263 59.2947 27.8218C59.4901 28.3806 59.7739 28.756 60.1461 28.9479C60.5232 29.1296 60.9005 29.1545 61.2781 29.0225ZM65.504 28.8035L63.5396 23.185L64.8196 22.7375L65.2655 23.6494C65.3231 23.2564 65.4799 22.9049 65.7359 22.5951C65.9996 22.2825 66.3542 22.0484 66.7997 21.8926C67.4945 21.6497 68.111 21.6799 68.6493 21.9833C69.1875 22.2866 69.6045 22.8612 69.9003 23.707L71.0092 26.8787L69.5592 27.3856L68.4978 24.3498C68.3289 23.8665 68.1013 23.5308 67.8152 23.3427C67.5291 23.1546 67.1784 23.1332 66.763 23.2784C66.3552 23.4209 66.0693 23.6819 65.9053 24.0613C65.7489 24.438 65.7605 24.8832 65.94 25.3967L66.9539 28.2965L65.504 28.8035Z" fill="white"/>
</svg>
