<svg width="20" height="18" viewBox="0 0 20 18" fill="none" xmlns="http://www.w3.org/2000/svg">
<path d="M7.29167 13C5.32361 13 3.65799 12.3708 2.29479 11.1125C0.931597 9.85417 0.25 8.31667 0.25 6.5C0.25 4.68333 0.931597 3.14583 2.29479 1.8875C3.65799 0.629167 5.32361 0 7.29167 0C9.25972 0 10.9253 0.629167 12.2885 1.8875C13.6517 3.14583 14.3333 4.68333 14.3333 6.5C14.3333 7.23333 14.2069 7.925 13.9542 8.575C13.7014 9.225 13.3583 9.8 12.925 10.3L18.9917 15.9C19.1903 16.0833 19.2896 16.3167 19.2896 16.6C19.2896 16.8833 19.1903 17.1167 18.9917 17.3C18.7931 17.4833 18.5403 17.575 18.2333 17.575C17.9264 17.575 17.6736 17.4833 17.475 17.3L11.4083 11.7C10.8667 12.1 10.2438 12.4167 9.53958 12.65C8.83542 12.8833 8.08611 13 7.29167 13ZM7.29167 11C8.64583 11 9.79688 10.5625 10.7448 9.6875C11.6927 8.8125 12.1667 7.75 12.1667 6.5C12.1667 5.25 11.6927 4.1875 10.7448 3.3125C9.79688 2.4375 8.64583 2 7.29167 2C5.9375 2 4.78646 2.4375 3.83854 3.3125C2.89062 4.1875 2.41667 5.25 2.41667 6.5C2.41667 7.75 2.89062 8.8125 3.83854 9.6875C4.78646 10.5625 5.9375 11 7.29167 11Z" fill="#72A474"/>
</svg>
