<svg width="22" height="18" viewBox="0 0 22 18" fill="none" xmlns="http://www.w3.org/2000/svg">
<path d="M20.025 8.05V16C20.025 16.55 19.8291 17.0208 19.4375 17.4125C19.0458 17.8042 18.575 18 18.025 18H4.02497C3.47497 18 3.00413 17.8042 2.61247 17.4125C2.2208 17.0208 2.02497 16.55 2.02497 16V8.05C1.64163 7.7 1.3458 7.25 1.13747 6.7C0.929133 6.15 0.924966 5.55 1.12497 4.9L2.17497 1.5C2.3083 1.06667 2.5458 0.708333 2.88747 0.425C3.22913 0.141667 3.62497 0 4.07497 0H17.975C18.425 0 18.8166 0.1375 19.15 0.4125C19.4833 0.6875 19.725 1.05 19.875 1.5L20.925 4.9C21.125 5.55 21.1208 6.14167 20.9125 6.675C20.7041 7.20833 20.4083 7.66667 20.025 8.05ZM13.225 7C13.675 7 14.0166 6.84583 14.25 6.5375C14.4833 6.22917 14.575 5.88333 14.525 5.5L13.975 2H12.025V5.7C12.025 6.05 12.1416 6.35417 12.375 6.6125C12.6083 6.87083 12.8916 7 13.225 7ZM8.72497 7C9.1083 7 9.4208 6.87083 9.66247 6.6125C9.90413 6.35417 10.025 6.05 10.025 5.7V2H8.07497L7.52497 5.5C7.4583 5.9 7.5458 6.25 7.78747 6.55C8.02913 6.85 8.34163 7 8.72497 7ZM4.27497 7C4.57497 7 4.83747 6.89167 5.06247 6.675C5.28747 6.45833 5.42497 6.18333 5.47497 5.85L6.02497 2H4.07497L3.07497 5.35C2.97497 5.68333 3.02913 6.04167 3.23747 6.425C3.4458 6.80833 3.79163 7 4.27497 7ZM17.775 7C18.2583 7 18.6083 6.80833 18.825 6.425C19.0416 6.04167 19.0916 5.68333 18.975 5.35L17.925 2H16.025L16.575 5.85C16.625 6.18333 16.7625 6.45833 16.9875 6.675C17.2125 6.89167 17.475 7 17.775 7ZM4.02497 16H18.025V8.95C17.9416 8.98333 17.8875 9 17.8625 9H17.775C17.325 9 16.9291 8.925 16.5875 8.775C16.2458 8.625 15.9083 8.38333 15.575 8.05C15.275 8.35 14.9333 8.58333 14.55 8.75C14.1666 8.91667 13.7583 9 13.325 9C12.875 9 12.4541 8.91667 12.0625 8.75C11.6708 8.58333 11.325 8.35 11.025 8.05C10.7416 8.35 10.4125 8.58333 10.0375 8.75C9.66247 8.91667 9.2583 9 8.82497 9C8.34163 9 7.90413 8.91667 7.51247 8.75C7.1208 8.58333 6.77497 8.35 6.47497 8.05C6.12497 8.4 5.77913 8.64583 5.43747 8.7875C5.0958 8.92917 4.7083 9 4.27497 9H4.16247C4.1208 9 4.07497 8.98333 4.02497 8.95V16Z" fill="#72A474"/>
</svg>
